<svg width="276" height="106" viewBox="0 0 276 106" fill="none" xmlns="http://www.w3.org/2000/svg">
<path d="M86.544 52.72V59.488C86.544 60.5973 86.7893 61.4187 87.28 61.952C87.7707 62.4747 88.448 62.736 89.312 62.736C90.1653 62.736 90.832 62.4693 91.312 61.936C91.792 61.4027 92.032 60.5867 92.032 59.488V52.72H93.488V59.488C93.488 61.024 93.104 62.1813 92.336 62.96C91.5787 63.728 90.56 64.112 89.28 64.112C88.0107 64.112 86.992 63.728 86.224 62.96C85.4667 62.1813 85.088 61.024 85.088 59.488V52.72H86.544ZM98.4981 55.104C99.4901 55.104 100.285 55.3653 100.882 55.888C101.49 56.4 101.858 57.0933 101.986 57.968H100.594C100.53 57.4453 100.311 57.0187 99.9381 56.688C99.5755 56.3467 99.0848 56.176 98.4661 56.176C97.9435 56.176 97.5328 56.304 97.2341 56.56C96.9461 56.8053 96.8021 57.1413 96.8021 57.568C96.8021 57.888 96.8981 58.1493 97.0901 58.352C97.2928 58.544 97.5381 58.6933 97.8261 58.8C98.1248 58.896 98.5301 59.0027 99.0421 59.12C99.6928 59.2693 100.215 59.424 100.61 59.584C101.015 59.7333 101.357 59.9787 101.634 60.32C101.922 60.6613 102.066 61.12 102.066 61.696C102.066 62.4107 101.794 62.992 101.25 63.44C100.717 63.888 100.002 64.112 99.1061 64.112C98.0608 64.112 97.2075 63.8613 96.5461 63.36C95.8848 62.8587 95.4955 62.16 95.3781 61.264H96.7861C96.8395 61.7973 97.0688 62.2293 97.4741 62.56C97.8901 62.8907 98.4341 63.056 99.1061 63.056C99.6075 63.056 99.9968 62.928 100.274 62.672C100.562 62.416 100.706 62.08 100.706 61.664C100.706 61.3227 100.605 61.0507 100.402 60.848C100.199 60.6453 99.9488 60.4907 99.6501 60.384C99.3515 60.2773 98.9408 60.1653 98.4181 60.048C97.7675 59.8987 97.2448 59.7493 96.8501 59.6C96.4661 59.4507 96.1355 59.216 95.8581 58.896C95.5915 58.5653 95.4581 58.1227 95.4581 57.568C95.4581 56.832 95.7301 56.24 96.2741 55.792C96.8181 55.3333 97.5595 55.104 98.4981 55.104ZM112.092 59.12C112.092 59.4293 112.07 59.696 112.028 59.92H105.004C105.036 60.9227 105.318 61.6747 105.852 62.176C106.396 62.6773 107.057 62.928 107.836 62.928C108.54 62.928 109.126 62.752 109.596 62.4C110.076 62.0373 110.369 61.5573 110.476 60.96H112.028C111.921 61.568 111.681 62.112 111.308 62.592C110.945 63.072 110.47 63.4453 109.884 63.712C109.297 63.9787 108.636 64.112 107.9 64.112C107.057 64.112 106.31 63.9307 105.66 63.568C105.009 63.2053 104.497 62.688 104.124 62.016C103.761 61.3333 103.58 60.5333 103.58 59.616C103.58 58.6987 103.761 57.8987 104.124 57.216C104.497 56.5333 105.009 56.0107 105.66 55.648C106.31 55.2853 107.057 55.104 107.9 55.104C108.753 55.104 109.494 55.2853 110.124 55.648C110.764 56.0107 111.249 56.496 111.58 57.104C111.921 57.712 112.092 58.384 112.092 59.12ZM110.62 59.216C110.652 58.5653 110.545 58.0213 110.3 57.584C110.054 57.1467 109.718 56.8213 109.292 56.608C108.865 56.3947 108.401 56.288 107.9 56.288C107.1 56.288 106.428 56.5387 105.884 57.04C105.34 57.5307 105.046 58.256 105.004 59.216H110.62ZM122.141 62.72V64H121.053C120.157 64 119.485 63.7867 119.037 63.36C118.6 62.9333 118.381 62.2187 118.381 61.216V56.48H117.069V55.216H118.381V53.024H119.853V55.216H122.125V56.48H119.853V61.248C119.853 61.8133 119.955 62.2027 120.157 62.416C120.371 62.6187 120.733 62.72 121.245 62.72H122.141ZM128.542 55.072C129.566 55.072 130.393 55.4027 131.022 56.064C131.651 56.7147 131.966 57.6587 131.966 58.896V64H130.51V59.024C130.51 58.1493 130.286 57.4773 129.838 57.008C129.39 56.5387 128.782 56.304 128.014 56.304C127.214 56.304 126.574 56.5653 126.094 57.088C125.614 57.6 125.374 58.352 125.374 59.344V64H123.918V52.16H125.374V57.296C125.598 56.5813 125.993 56.032 126.558 55.648C127.134 55.264 127.795 55.072 128.542 55.072ZM142.279 59.12C142.279 59.4293 142.258 59.696 142.215 59.92H135.191C135.223 60.9227 135.506 61.6747 136.039 62.176C136.583 62.6773 137.245 62.928 138.023 62.928C138.727 62.928 139.314 62.752 139.783 62.4C140.263 62.0373 140.557 61.5573 140.663 60.96H142.215C142.109 61.568 141.869 62.112 141.495 62.592C141.133 63.072 140.658 63.4453 140.071 63.712C139.485 63.9787 138.823 64.112 138.087 64.112C137.245 64.112 136.498 63.9307 135.847 63.568C135.197 63.2053 134.685 62.688 134.311 62.016C133.949 61.3333 133.767 60.5333 133.767 59.616C133.767 58.6987 133.949 57.8987 134.311 57.216C134.685 56.5333 135.197 56.0107 135.847 55.648C136.498 55.2853 137.245 55.104 138.087 55.104C138.941 55.104 139.682 55.2853 140.311 55.648C140.951 56.0107 141.437 56.496 141.767 57.104C142.109 57.712 142.279 58.384 142.279 59.12ZM140.807 59.216C140.839 58.5653 140.733 58.0213 140.487 57.584C140.242 57.1467 139.906 56.8213 139.479 56.608C139.053 56.3947 138.589 56.288 138.087 56.288C137.287 56.288 136.615 56.5387 136.071 57.04C135.527 57.5307 135.234 58.256 135.191 59.216H140.807ZM152.025 53.136C151.246 53.1253 150.702 53.2587 150.393 53.536C150.094 53.8133 149.945 54.2933 149.945 54.976V55.216H152.025V56.496H149.945V64H148.489V56.496H147.225V55.216H148.489V54.864C148.489 52.7627 149.667 51.76 152.025 51.856V53.136ZM161.686 59.12C161.686 59.4293 161.664 59.696 161.622 59.92H154.598C154.63 60.9227 154.912 61.6747 155.446 62.176C155.99 62.6773 156.651 62.928 157.43 62.928C158.134 62.928 158.72 62.752 159.19 62.4C159.67 62.0373 159.963 61.5573 160.07 60.96H161.622C161.515 61.568 161.275 62.112 160.902 62.592C160.539 63.072 160.064 63.4453 159.478 63.712C158.891 63.9787 158.23 64.112 157.494 64.112C156.651 64.112 155.904 63.9307 155.254 63.568C154.603 63.2053 154.091 62.688 153.718 62.016C153.355 61.3333 153.174 60.5333 153.174 59.616C153.174 58.6987 153.355 57.8987 153.718 57.216C154.091 56.5333 154.603 56.0107 155.254 55.648C155.904 55.2853 156.651 55.104 157.494 55.104C158.347 55.104 159.088 55.2853 159.718 55.648C160.358 56.0107 160.843 56.496 161.174 57.104C161.515 57.712 161.686 58.384 161.686 59.12ZM160.214 59.216C160.246 58.5653 160.139 58.0213 159.894 57.584C159.648 57.1467 159.312 56.8213 158.886 56.608C158.459 56.3947 157.995 56.288 157.494 56.288C156.694 56.288 156.022 56.5387 155.478 57.04C154.934 57.5307 154.64 58.256 154.598 59.216H160.214ZM167.19 55.104C168.043 55.104 168.763 55.3173 169.35 55.744C169.947 56.1707 170.363 56.7413 170.598 57.456V55.216H172.054V64H170.598V61.76C170.363 62.4747 169.947 63.0453 169.35 63.472C168.763 63.8987 168.043 64.112 167.19 64.112C166.411 64.112 165.718 63.9307 165.11 63.568C164.502 63.2053 164.022 62.688 163.67 62.016C163.329 61.3333 163.158 60.5333 163.158 59.616C163.158 58.6987 163.329 57.8987 163.67 57.216C164.022 56.5333 164.502 56.0107 165.11 55.648C165.718 55.2853 166.411 55.104 167.19 55.104ZM167.606 56.4C166.71 56.4 165.99 56.688 165.446 57.264C164.913 57.8293 164.646 58.6133 164.646 59.616C164.646 60.6187 164.913 61.408 165.446 61.984C165.99 62.5493 166.71 62.832 167.606 62.832C168.182 62.832 168.694 62.6987 169.142 62.432C169.601 62.1653 169.958 61.792 170.214 61.312C170.47 60.8213 170.598 60.256 170.598 59.616C170.598 58.976 170.47 58.4107 170.214 57.92C169.958 57.4293 169.601 57.056 169.142 56.8C168.694 56.5333 168.182 56.4 167.606 56.4ZM178.563 62.72V64H177.475C176.579 64 175.907 63.7867 175.459 63.36C175.022 62.9333 174.803 62.2187 174.803 61.216V56.48H173.491V55.216H174.803V53.024H176.275V55.216H178.547V56.48H176.275V61.248C176.275 61.8133 176.376 62.2027 176.579 62.416C176.792 62.6187 177.155 62.72 177.667 62.72H178.563ZM188.148 55.216V64H186.692V61.936C186.468 62.6507 186.068 63.2 185.492 63.584C184.927 63.9573 184.265 64.144 183.508 64.144C182.495 64.144 181.673 63.8187 181.044 63.168C180.415 62.5067 180.1 61.5627 180.1 60.336V55.216H181.556V60.192C181.556 61.0667 181.78 61.744 182.228 62.224C182.676 62.6933 183.284 62.928 184.052 62.928C184.852 62.928 185.492 62.672 185.972 62.16C186.452 61.6373 186.692 60.88 186.692 59.888V55.216H188.148ZM191.937 56.992C192.225 56.384 192.646 55.9147 193.201 55.584C193.755 55.2427 194.417 55.072 195.185 55.072V56.656H194.737C193.915 56.656 193.243 56.8693 192.721 57.296C192.198 57.712 191.937 58.4053 191.937 59.376V64H190.481V55.216H191.937V56.992ZM204.701 59.12C204.701 59.4293 204.68 59.696 204.637 59.92H197.613C197.645 60.9227 197.928 61.6747 198.461 62.176C199.005 62.6773 199.666 62.928 200.445 62.928C201.149 62.928 201.736 62.752 202.205 62.4C202.685 62.0373 202.978 61.5573 203.085 60.96H204.637C204.53 61.568 204.29 62.112 203.917 62.592C203.554 63.072 203.08 63.4453 202.493 63.712C201.906 63.9787 201.245 64.112 200.509 64.112C199.666 64.112 198.92 63.9307 198.269 63.568C197.618 63.2053 197.106 62.688 196.733 62.016C196.37 61.3333 196.189 60.5333 196.189 59.616C196.189 58.6987 196.37 57.8987 196.733 57.216C197.106 56.5333 197.618 56.0107 198.269 55.648C198.92 55.2853 199.666 55.104 200.509 55.104C201.362 55.104 202.104 55.2853 202.733 55.648C203.373 56.0107 203.858 56.496 204.189 57.104C204.53 57.712 204.701 58.384 204.701 59.12ZM203.229 59.216C203.261 58.5653 203.154 58.0213 202.909 57.584C202.664 57.1467 202.328 56.8213 201.901 56.608C201.474 56.3947 201.01 56.288 200.509 56.288C199.709 56.288 199.037 56.5387 198.493 57.04C197.949 57.5307 197.656 58.256 197.613 59.216H203.229ZM222.623 55.216L220.095 64H218.527L216.111 56.848L213.679 64H212.095L209.599 55.216H211.071L212.943 62.608L215.375 55.216H216.895L219.343 62.592L221.231 55.216H222.623ZM228.605 55.072C229.629 55.072 230.455 55.4027 231.085 56.064C231.714 56.7147 232.029 57.6587 232.029 58.896V64H230.573V59.024C230.573 58.1493 230.349 57.4773 229.901 57.008C229.453 56.5387 228.845 56.304 228.077 56.304C227.277 56.304 226.637 56.5653 226.157 57.088C225.677 57.6 225.437 58.352 225.437 59.344V64H223.981V52.16H225.437V57.296C225.661 56.5813 226.055 56.032 226.621 55.648C227.197 55.264 227.858 55.072 228.605 55.072ZM234.006 52.64C234.006 52.3733 234.096 52.16 234.278 52C234.459 51.8293 234.699 51.744 234.998 51.744C235.296 51.744 235.536 51.8293 235.718 52C235.899 52.16 235.99 52.3733 235.99 52.64C235.99 52.9067 235.899 53.1253 235.718 53.296C235.536 53.456 235.296 53.536 234.998 53.536C234.699 53.536 234.459 53.456 234.278 53.296C234.096 53.1253 234.006 52.9067 234.006 52.64ZM235.718 55.216V64H234.262V55.216H235.718ZM239.515 52.16V64H238.059V52.16H239.515ZM249.936 59.12C249.936 59.4293 249.914 59.696 249.872 59.92H242.848C242.88 60.9227 243.162 61.6747 243.696 62.176C244.24 62.6773 244.901 62.928 245.68 62.928C246.384 62.928 246.97 62.752 247.44 62.4C247.92 62.0373 248.213 61.5573 248.32 60.96H249.872C249.765 61.568 249.525 62.112 249.152 62.592C248.789 63.072 248.314 63.4453 247.728 63.712C247.141 63.9787 246.48 64.112 245.744 64.112C244.901 64.112 244.154 63.9307 243.504 63.568C242.853 63.2053 242.341 62.688 241.968 62.016C241.605 61.3333 241.424 60.5333 241.424 59.616C241.424 58.6987 241.605 57.8987 241.968 57.216C242.341 56.5333 242.853 56.0107 243.504 55.648C244.154 55.2853 244.901 55.104 245.744 55.104C246.597 55.104 247.338 55.2853 247.968 55.648C248.608 56.0107 249.093 56.496 249.424 57.104C249.765 57.712 249.936 58.384 249.936 59.12ZM248.464 59.216C248.496 58.5653 248.389 58.0213 248.144 57.584C247.898 57.1467 247.562 56.8213 247.136 56.608C246.709 56.3947 246.245 56.288 245.744 56.288C244.944 56.288 244.272 56.5387 243.728 57.04C243.184 57.5307 242.89 58.256 242.848 59.216H248.464ZM259.777 55.104C260.62 55.104 261.372 55.2853 262.033 55.648C262.705 56.0107 263.228 56.5333 263.601 57.216C263.985 57.8987 264.177 58.6987 264.177 59.616C264.177 60.5333 263.985 61.3333 263.601 62.016C263.228 62.688 262.705 63.2053 262.033 63.568C261.372 63.9307 260.62 64.112 259.777 64.112C258.934 64.112 258.177 63.9307 257.505 63.568C256.844 63.2053 256.321 62.688 255.937 62.016C255.553 61.3333 255.361 60.5333 255.361 59.616C255.361 58.6987 255.553 57.8987 255.937 57.216C256.321 56.5333 256.844 56.0107 257.505 55.648C258.177 55.2853 258.934 55.104 259.777 55.104ZM259.777 56.384C259.254 56.384 258.769 56.5013 258.321 56.736C257.884 56.9707 257.526 57.3333 257.249 57.824C256.982 58.304 256.849 58.9013 256.849 59.616C256.849 60.32 256.982 60.9173 257.249 61.408C257.526 61.888 257.884 62.2453 258.321 62.48C258.769 62.7147 259.254 62.832 259.777 62.832C260.3 62.832 260.78 62.7147 261.217 62.48C261.665 62.2453 262.022 61.888 262.289 61.408C262.566 60.9173 262.705 60.32 262.705 59.616C262.705 58.9013 262.566 58.304 262.289 57.824C262.022 57.3333 261.665 56.9707 261.217 56.736C260.78 56.5013 260.3 56.384 259.777 56.384ZM269.962 53.136C269.184 53.1253 268.64 53.2587 268.33 53.536C268.032 53.8133 267.882 54.2933 267.882 54.976V55.216H269.962V56.496H267.882V64H266.426V56.496H265.162V55.216H266.426V54.864C266.426 52.7627 267.605 51.76 269.962 51.856V53.136ZM275.431 53.136C274.652 53.1253 274.108 53.2587 273.799 53.536C273.5 53.8133 273.351 54.2933 273.351 54.976V55.216H275.431V56.496H273.351V64H271.895V56.496H270.631V55.216H271.895V54.864C271.895 52.7627 273.074 51.76 275.431 51.856V53.136ZM89.056 85.136C88.2773 85.1253 87.7333 85.2587 87.424 85.536C87.1253 85.8133 86.976 86.2933 86.976 86.976V87.216H89.056V88.496H86.976V96H85.52V88.496H84.256V87.216H85.52V86.864C85.52 84.7627 86.6987 83.76 89.056 83.856V85.136ZM92.0928 88.992C92.3808 88.384 92.8021 87.9147 93.3568 87.584C93.9114 87.2427 94.5728 87.072 95.3408 87.072V88.656H94.8928C94.0714 88.656 93.3994 88.8693 92.8768 89.296C92.3541 89.712 92.0928 90.4053 92.0928 91.376V96H90.6368V87.216H92.0928V88.992ZM100.761 87.104C101.604 87.104 102.356 87.2853 103.017 87.648C103.689 88.0107 104.212 88.5333 104.585 89.216C104.969 89.8987 105.161 90.6987 105.161 91.616C105.161 92.5333 104.969 93.3333 104.585 94.016C104.212 94.688 103.689 95.2053 103.017 95.568C102.356 95.9307 101.604 96.112 100.761 96.112C99.9187 96.112 99.1614 95.9307 98.4894 95.568C97.828 95.2053 97.3054 94.688 96.9214 94.016C96.5374 93.3333 96.3454 92.5333 96.3454 91.616C96.3454 90.6987 96.5374 89.8987 96.9214 89.216C97.3054 88.5333 97.828 88.0107 98.4894 87.648C99.1614 87.2853 99.9187 87.104 100.761 87.104ZM100.761 88.384C100.239 88.384 99.7534 88.5013 99.3054 88.736C98.868 88.9707 98.5107 89.3333 98.2334 89.824C97.9667 90.304 97.8334 90.9013 97.8334 91.616C97.8334 92.32 97.9667 92.9173 98.2334 93.408C98.5107 93.888 98.868 94.2453 99.3054 94.48C99.7534 94.7147 100.239 94.832 100.761 94.832C101.284 94.832 101.764 94.7147 102.201 94.48C102.649 94.2453 103.007 93.888 103.273 93.408C103.551 92.9173 103.689 92.32 103.689 91.616C103.689 90.9013 103.551 90.304 103.273 89.824C103.007 89.3333 102.649 88.9707 102.201 88.736C101.764 88.5013 101.284 88.384 100.761 88.384ZM117.859 87.072C118.883 87.072 119.704 87.4027 120.323 88.064C120.952 88.7147 121.267 89.6587 121.267 90.896V96H119.811V91.024C119.811 90.16 119.597 89.4987 119.171 89.04C118.755 88.5813 118.179 88.352 117.443 88.352C116.675 88.352 116.056 88.608 115.587 89.12C115.128 89.6213 114.899 90.3627 114.899 91.344V96H113.443V91.024C113.443 90.16 113.229 89.4987 112.803 89.04C112.376 88.5813 111.8 88.352 111.075 88.352C110.296 88.352 109.672 88.608 109.203 89.12C108.744 89.6213 108.515 90.3627 108.515 91.344V96H107.059V87.216H108.515V89.216C108.728 88.5227 109.107 87.9947 109.651 87.632C110.205 87.2587 110.84 87.072 111.555 87.072C112.301 87.072 112.947 87.264 113.491 87.648C114.045 88.0213 114.44 88.576 114.675 89.312C114.92 88.5973 115.331 88.048 115.907 87.664C116.483 87.2693 117.133 87.072 117.859 87.072ZM127.225 84.64C127.225 84.3733 127.315 84.16 127.497 84C127.678 83.8293 127.918 83.744 128.217 83.744C128.515 83.744 128.755 83.8293 128.937 84C129.118 84.16 129.209 84.3733 129.209 84.64C129.209 84.9067 129.118 85.1253 128.937 85.296C128.755 85.456 128.515 85.536 128.217 85.536C127.918 85.536 127.678 85.456 127.497 85.296C127.315 85.1253 127.225 84.9067 127.225 84.64ZM128.937 87.216V96H127.481V87.216H128.937ZM135.901 87.072C136.925 87.072 137.752 87.4027 138.381 88.064C139.011 88.7147 139.325 89.6587 139.325 90.896V96H137.869V91.024C137.869 90.1493 137.645 89.4773 137.197 89.008C136.749 88.5387 136.141 88.304 135.373 88.304C134.573 88.304 133.933 88.5653 133.453 89.088C132.973 89.6 132.733 90.352 132.733 91.344V96H131.277V87.216H132.733V89.296C132.957 88.5813 133.352 88.032 133.917 87.648C134.493 87.264 135.155 87.072 135.901 87.072ZM145.751 94.72V96H144.663C143.767 96 143.095 95.7867 142.647 95.36C142.209 94.9333 141.991 94.2187 141.991 93.216V88.48H140.679V87.216H141.991V85.024H143.463V87.216H145.735V88.48H143.463V93.248C143.463 93.8133 143.564 94.2027 143.767 94.416C143.98 94.6187 144.343 94.72 144.855 94.72H145.751ZM155.607 91.12C155.607 91.4293 155.586 91.696 155.543 91.92H148.519C148.551 92.9227 148.834 93.6747 149.367 94.176C149.911 94.6773 150.573 94.928 151.351 94.928C152.055 94.928 152.642 94.752 153.111 94.4C153.591 94.0373 153.885 93.5573 153.991 92.96H155.543C155.437 93.568 155.197 94.112 154.823 94.592C154.461 95.072 153.986 95.4453 153.399 95.712C152.813 95.9787 152.151 96.112 151.415 96.112C150.573 96.112 149.826 95.9307 149.175 95.568C148.525 95.2053 148.013 94.688 147.639 94.016C147.277 93.3333 147.095 92.5333 147.095 91.616C147.095 90.6987 147.277 89.8987 147.639 89.216C148.013 88.5333 148.525 88.0107 149.175 87.648C149.826 87.2853 150.573 87.104 151.415 87.104C152.269 87.104 153.01 87.2853 153.639 87.648C154.279 88.0107 154.765 88.496 155.095 89.104C155.437 89.712 155.607 90.384 155.607 91.12ZM154.135 91.216C154.167 90.5653 154.061 90.0213 153.815 89.584C153.57 89.1467 153.234 88.8213 152.807 88.608C152.381 88.3947 151.917 88.288 151.415 88.288C150.615 88.288 149.943 88.5387 149.399 89.04C148.855 89.5307 148.562 90.256 148.519 91.216H154.135ZM158.968 88.992C159.256 88.384 159.677 87.9147 160.232 87.584C160.786 87.2427 161.448 87.072 162.216 87.072V88.656H161.768C160.946 88.656 160.274 88.8693 159.752 89.296C159.229 89.712 158.968 90.4053 158.968 91.376V96H157.512V87.216H158.968V88.992ZM168.276 87.072C169.3 87.072 170.127 87.4027 170.756 88.064C171.386 88.7147 171.7 89.6587 171.7 90.896V96H170.244V91.024C170.244 90.1493 170.02 89.4773 169.572 89.008C169.124 88.5387 168.516 88.304 167.748 88.304C166.948 88.304 166.308 88.5653 165.828 89.088C165.348 89.6 165.108 90.352 165.108 91.344V96H163.652V87.216H165.108V89.296C165.332 88.5813 165.727 88.032 166.292 87.648C166.868 87.264 167.53 87.072 168.276 87.072ZM182.014 91.12C182.014 91.4293 181.992 91.696 181.95 91.92H174.926C174.958 92.9227 175.24 93.6747 175.774 94.176C176.318 94.6773 176.979 94.928 177.758 94.928C178.462 94.928 179.048 94.752 179.518 94.4C179.998 94.0373 180.291 93.5573 180.398 92.96H181.95C181.843 93.568 181.603 94.112 181.23 94.592C180.867 95.072 180.392 95.4453 179.806 95.712C179.219 95.9787 178.558 96.112 177.822 96.112C176.979 96.112 176.232 95.9307 175.582 95.568C174.931 95.2053 174.419 94.688 174.046 94.016C173.683 93.3333 173.502 92.5333 173.502 91.616C173.502 90.6987 173.683 89.8987 174.046 89.216C174.419 88.5333 174.931 88.0107 175.582 87.648C176.232 87.2853 176.979 87.104 177.822 87.104C178.675 87.104 179.416 87.2853 180.046 87.648C180.686 88.0107 181.171 88.496 181.502 89.104C181.843 89.712 182.014 90.384 182.014 91.12ZM180.542 91.216C180.574 90.5653 180.467 90.0213 180.222 89.584C179.976 89.1467 179.64 88.8213 179.214 88.608C178.787 88.3947 178.323 88.288 177.822 88.288C177.022 88.288 176.35 88.5387 175.806 89.04C175.262 89.5307 174.968 90.256 174.926 91.216H180.542ZM188.11 94.72V96H187.022C186.126 96 185.454 95.7867 185.006 95.36C184.569 94.9333 184.35 94.2187 184.35 93.216V88.48H183.038V87.216H184.35V85.024H185.822V87.216H188.094V88.48H185.822V93.248C185.822 93.8133 185.923 94.2027 186.126 94.416C186.339 94.6187 186.702 94.72 187.214 94.72H188.11ZM192.783 84.272C193.828 84.272 194.66 84.56 195.279 85.136C195.908 85.7013 196.223 86.4907 196.223 87.504C196.223 88.6347 195.871 89.4827 195.167 90.048C194.473 90.6027 193.519 90.8907 192.303 90.912V92.8H190.927V89.92H191.567C192.548 89.92 193.327 89.7493 193.903 89.408C194.489 89.0667 194.783 88.432 194.783 87.504C194.783 86.8747 194.596 86.3787 194.223 86.016C193.86 85.6533 193.364 85.472 192.735 85.472C192.073 85.472 191.54 85.6587 191.135 86.032C190.74 86.4053 190.543 86.896 190.543 87.504H189.135C189.135 86.864 189.284 86.2987 189.583 85.808C189.881 85.3173 190.308 84.9387 190.863 84.672C191.417 84.4053 192.057 84.272 192.783 84.272ZM192.511 94.288V96H190.751V94.288H192.511ZM204.623 87.104C205.615 87.104 206.41 87.3653 207.007 87.888C207.615 88.4 207.983 89.0933 208.111 89.968H206.719C206.655 89.4453 206.436 89.0187 206.063 88.688C205.7 88.3467 205.21 88.176 204.591 88.176C204.068 88.176 203.658 88.304 203.359 88.56C203.071 88.8053 202.927 89.1413 202.927 89.568C202.927 89.888 203.023 90.1493 203.215 90.352C203.418 90.544 203.663 90.6933 203.951 90.8C204.25 90.896 204.655 91.0027 205.167 91.12C205.818 91.2693 206.34 91.424 206.735 91.584C207.14 91.7333 207.482 91.9787 207.759 92.32C208.047 92.6613 208.191 93.12 208.191 93.696C208.191 94.4107 207.919 94.992 207.375 95.44C206.842 95.888 206.127 96.112 205.231 96.112C204.186 96.112 203.332 95.8613 202.671 95.36C202.01 94.8587 201.62 94.16 201.503 93.264H202.911C202.964 93.7973 203.194 94.2293 203.599 94.56C204.015 94.8907 204.559 95.056 205.231 95.056C205.732 95.056 206.122 94.928 206.399 94.672C206.687 94.416 206.831 94.08 206.831 93.664C206.831 93.3227 206.73 93.0507 206.527 92.848C206.324 92.6453 206.074 92.4907 205.775 92.384C205.476 92.2773 205.066 92.1653 204.543 92.048C203.892 91.8987 203.37 91.7493 202.975 91.6C202.591 91.4507 202.26 91.216 201.983 90.896C201.716 90.5653 201.583 90.1227 201.583 89.568C201.583 88.832 201.855 88.24 202.399 87.792C202.943 87.3333 203.684 87.104 204.623 87.104ZM217.945 87.216V96H216.489V93.936C216.265 94.6507 215.865 95.2 215.289 95.584C214.723 95.9573 214.062 96.144 213.305 96.144C212.291 96.144 211.47 95.8187 210.841 95.168C210.211 94.5067 209.897 93.5627 209.897 92.336V87.216H211.353V92.192C211.353 93.0667 211.577 93.744 212.025 94.224C212.473 94.6933 213.081 94.928 213.849 94.928C214.649 94.928 215.289 94.672 215.769 94.16C216.249 93.6373 216.489 92.88 216.489 91.888V87.216H217.945ZM221.733 88.992C222.021 88.384 222.443 87.9147 222.997 87.584C223.552 87.2427 224.213 87.072 224.981 87.072V88.656H224.533C223.712 88.656 223.04 88.8693 222.517 89.296C221.995 89.712 221.733 90.4053 221.733 91.376V96H220.277V87.216H221.733V88.992ZM234.498 91.12C234.498 91.4293 234.477 91.696 234.434 91.92H227.41C227.442 92.9227 227.725 93.6747 228.258 94.176C228.802 94.6773 229.463 94.928 230.242 94.928C230.946 94.928 231.533 94.752 232.002 94.4C232.482 94.0373 232.775 93.5573 232.882 92.96H234.434C234.327 93.568 234.087 94.112 233.714 94.592C233.351 95.072 232.877 95.4453 232.29 95.712C231.703 95.9787 231.042 96.112 230.306 96.112C229.463 96.112 228.717 95.9307 228.066 95.568C227.415 95.2053 226.903 94.688 226.53 94.016C226.167 93.3333 225.986 92.5333 225.986 91.616C225.986 90.6987 226.167 89.8987 226.53 89.216C226.903 88.5333 227.415 88.0107 228.066 87.648C228.717 87.2853 229.463 87.104 230.306 87.104C231.159 87.104 231.901 87.2853 232.53 87.648C233.17 88.0107 233.655 88.496 233.986 89.104C234.327 89.712 234.498 90.384 234.498 91.12ZM233.026 91.216C233.058 90.5653 232.951 90.0213 232.706 89.584C232.461 89.1467 232.125 88.8213 231.698 88.608C231.271 88.3947 230.807 88.288 230.306 88.288C229.506 88.288 228.834 88.5387 228.29 89.04C227.746 89.5307 227.453 90.256 227.41 91.216H233.026ZM244.244 87.104C245.364 87.104 246.292 87.4027 247.028 88C247.764 88.5973 248.217 89.3973 248.388 90.4H246.852C246.745 89.7707 246.452 89.28 245.972 88.928C245.502 88.5653 244.916 88.384 244.212 88.384C243.7 88.384 243.23 88.5013 242.804 88.736C242.388 88.9707 242.052 89.3333 241.796 89.824C241.54 90.304 241.412 90.9013 241.412 91.616C241.412 92.3307 241.54 92.9333 241.796 93.424C242.052 93.904 242.388 94.2613 242.804 94.496C243.23 94.7307 243.7 94.848 244.212 94.848C244.916 94.848 245.502 94.6667 245.972 94.304C246.452 93.9413 246.745 93.4453 246.852 92.816H248.388C248.217 93.8293 247.764 94.6347 247.028 95.232C246.292 95.8187 245.364 96.112 244.244 96.112C243.401 96.112 242.654 95.9307 242.004 95.568C241.353 95.2053 240.841 94.688 240.468 94.016C240.105 93.3333 239.924 92.5333 239.924 91.616C239.924 90.6987 240.105 89.8987 240.468 89.216C240.841 88.5333 241.353 88.0107 242.004 87.648C242.654 87.2853 243.401 87.104 244.244 87.104ZM253.893 87.104C254.746 87.104 255.466 87.3173 256.053 87.744C256.65 88.1707 257.066 88.7413 257.301 89.456V87.216H258.757V96H257.301V93.76C257.066 94.4747 256.65 95.0453 256.053 95.472C255.466 95.8987 254.746 96.112 253.893 96.112C253.114 96.112 252.421 95.9307 251.813 95.568C251.205 95.2053 250.725 94.688 250.373 94.016C250.032 93.3333 249.861 92.5333 249.861 91.616C249.861 90.6987 250.032 89.8987 250.373 89.216C250.725 88.5333 251.205 88.0107 251.813 87.648C252.421 87.2853 253.114 87.104 253.893 87.104ZM254.309 88.4C253.413 88.4 252.693 88.688 252.149 89.264C251.616 89.8293 251.349 90.6133 251.349 91.616C251.349 92.6187 251.616 93.408 252.149 93.984C252.693 94.5493 253.413 94.832 254.309 94.832C254.885 94.832 255.397 94.6987 255.845 94.432C256.304 94.1653 256.661 93.792 256.917 93.312C257.173 92.8213 257.301 92.256 257.301 91.616C257.301 90.976 257.173 90.4107 256.917 89.92C256.661 89.4293 256.304 89.056 255.845 88.8C255.397 88.5333 254.885 88.4 254.309 88.4ZM265.698 87.072C266.722 87.072 267.549 87.4027 268.178 88.064C268.808 88.7147 269.122 89.6587 269.122 90.896V96H267.666V91.024C267.666 90.1493 267.442 89.4773 266.994 89.008C266.546 88.5387 265.938 88.304 265.17 88.304C264.37 88.304 263.73 88.5653 263.25 89.088C262.77 89.6 262.53 90.352 262.53 91.344V96H261.074V87.216H262.53V89.296C262.754 88.5813 263.149 88.032 263.714 87.648C264.29 87.264 264.952 87.072 265.698 87.072Z" fill="#575455"/>
<circle cx="30" cy="30" r="30" fill="#191046"/>
<g clip-path="url(#clip0_8_31)">
<path d="M19 19L41 41" stroke="white" stroke-width="2" stroke-linecap="round" stroke-linejoin="round"/>
<path d="M30 38H30.01" stroke="white" stroke-width="2" stroke-linecap="round" stroke-linejoin="round"/>
<path d="M26.53 34.11C27.5452 33.3888 28.7597 33.0013 30.005 33.0013C31.2504 33.0013 32.4648 33.3888 33.48 34.11" stroke="white" stroke-width="2" stroke-linecap="round" stroke-linejoin="round"/>
<path d="M34.72 29.06C35.5391 29.4597 36.305 29.9603 37 30.55" stroke="white" stroke-width="2" stroke-linecap="round" stroke-linejoin="round"/>
<path d="M23 30.55C24.4821 29.3108 26.2659 28.4862 28.17 28.16" stroke="white" stroke-width="2" stroke-linecap="round" stroke-linejoin="round"/>
<path d="M19.42 27C20.8072 25.7738 22.3977 24.7992 24.12 24.12" stroke="white" stroke-width="2" stroke-linecap="round" stroke-linejoin="round"/>
<path d="M28.71 23.05C30.8524 22.8774 33.0076 23.1381 35.047 23.8168C37.0864 24.4955 38.9682 25.5781 40.58 27" stroke="white" stroke-width="2" stroke-linecap="round" stroke-linejoin="round"/>
</g>
<path d="M91.9 7.68C93.22 7.68 94.4133 7.98667 95.48 8.6C96.56 9.21333 97.4067 10.0733 98.02 11.18C98.6467 12.2733 98.96 13.5133 98.96 14.9C98.96 16.2867 98.6467 17.5333 98.02 18.64C97.4067 19.7467 96.56 20.6067 95.48 21.22C94.4133 21.8333 93.22 22.14 91.9 22.14C90.58 22.14 89.38 21.8333 88.3 21.22C87.2333 20.6067 86.3867 19.7467 85.76 18.64C85.1467 17.5333 84.84 16.2867 84.84 14.9C84.84 13.5133 85.1467 12.2733 85.76 11.18C86.3867 10.0733 87.2333 9.21333 88.3 8.6C89.38 7.98667 90.58 7.68 91.9 7.68ZM91.9 10.28C91.0733 10.28 90.3467 10.4667 89.72 10.84C89.0933 11.2133 88.6 11.7533 88.24 12.46C87.8933 13.1533 87.72 13.9667 87.72 14.9C87.72 15.8333 87.8933 16.6533 88.24 17.36C88.6 18.0533 89.0933 18.5867 89.72 18.96C90.3467 19.3333 91.0733 19.52 91.9 19.52C92.7267 19.52 93.4533 19.3333 94.08 18.96C94.7067 18.5867 95.1933 18.0533 95.54 17.36C95.9 16.6533 96.08 15.8333 96.08 14.9C96.08 13.9667 95.9 13.1533 95.54 12.46C95.1933 11.7533 94.7067 11.2133 94.08 10.84C93.4533 10.4667 92.7267 10.28 91.9 10.28ZM106.561 9C105.734 8.94667 105.154 9.06667 104.821 9.36C104.487 9.65333 104.321 10.1667 104.321 10.9V10.92H106.561V13.3H104.321V22H101.501V13.3H100.081V10.92H101.501V10.66C101.501 9.34 101.874 8.32667 102.621 7.62C103.381 6.9 104.501 6.54 105.981 6.54C106.234 6.54 106.427 6.54667 106.561 6.56V9ZM113.729 9C112.902 8.94667 112.322 9.06667 111.989 9.36C111.655 9.65333 111.489 10.1667 111.489 10.9V10.92H113.729V13.3H111.489V22H108.669V13.3H107.249V10.92H108.669V10.66C108.669 9.34 109.042 8.32667 109.789 7.62C110.549 6.9 111.669 6.54 113.149 6.54C113.402 6.54 113.595 6.54667 113.729 6.56V9ZM118.237 7.2V22H115.417V7.2H118.237ZM120.468 7.74C120.468 7.28667 120.628 6.92 120.948 6.64C121.268 6.34667 121.688 6.2 122.208 6.2C122.728 6.2 123.148 6.34667 123.468 6.64C123.788 6.92 123.948 7.28667 123.948 7.74C123.948 8.18 123.788 8.54667 123.468 8.84C123.148 9.12 122.728 9.26 122.208 9.26C121.688 9.26 121.268 9.12 120.948 8.84C120.628 8.54667 120.468 8.18 120.468 7.74ZM123.608 10.92V22H120.788V10.92H123.608ZM132.759 10.76C134.039 10.76 135.059 11.18 135.819 12.02C136.579 12.86 136.959 14.04 136.959 15.56V22H134.159V15.88C134.159 15 133.932 14.32 133.479 13.84C133.026 13.3467 132.406 13.1 131.619 13.1C130.819 13.1 130.179 13.36 129.699 13.88C129.219 14.4 128.979 15.1467 128.979 16.12V22H126.159V10.92H128.979V13.14C129.272 12.3933 129.752 11.8133 130.419 11.4C131.099 10.9733 131.879 10.76 132.759 10.76ZM149.86 16.04C149.86 16.32 149.827 16.64 149.76 17H141.64C141.68 17.9867 141.947 18.7133 142.44 19.18C142.933 19.6467 143.547 19.88 144.28 19.88C144.933 19.88 145.473 19.72 145.9 19.4C146.34 19.08 146.62 18.6467 146.74 18.1H149.72C149.573 18.8733 149.26 19.5667 148.78 20.18C148.3 20.7933 147.68 21.2733 146.92 21.62C146.173 21.9667 145.34 22.14 144.42 22.14C143.34 22.14 142.38 21.9133 141.54 21.46C140.7 20.9933 140.047 20.3333 139.58 19.48C139.113 18.6267 138.88 17.62 138.88 16.46C138.88 15.3 139.113 14.2933 139.58 13.44C140.047 12.5733 140.7 11.9133 141.54 11.46C142.38 11.0067 143.34 10.78 144.42 10.78C145.513 10.78 146.467 11.0067 147.28 11.46C148.107 11.9133 148.74 12.54 149.18 13.34C149.633 14.1267 149.86 15.0267 149.86 16.04ZM147.02 15.76C147.06 14.8533 146.82 14.1667 146.3 13.7C145.793 13.2333 145.167 13 144.42 13C143.66 13 143.02 13.2333 142.5 13.7C141.98 14.1667 141.693 14.8533 141.64 15.76H147.02ZM171.438 8.04V22H168.638V12.26L165.058 22H162.618L159.038 12.3V22H156.218V8.04H159.638L163.878 18.54L168.038 8.04H171.438ZM179.111 10.78C180.191 10.78 181.158 11.0067 182.011 11.46C182.878 11.9133 183.558 12.5733 184.051 13.44C184.544 14.2933 184.791 15.3 184.791 16.46C184.791 17.62 184.544 18.6267 184.051 19.48C183.558 20.3333 182.878 20.9933 182.011 21.46C181.158 21.9133 180.191 22.14 179.111 22.14C178.031 22.14 177.058 21.9133 176.191 21.46C175.338 20.9933 174.664 20.3333 174.171 19.48C173.678 18.6267 173.431 17.62 173.431 16.46C173.431 15.3 173.678 14.2933 174.171 13.44C174.664 12.5733 175.338 11.9133 176.191 11.46C177.058 11.0067 178.031 10.78 179.111 10.78ZM179.111 13.22C178.324 13.22 177.658 13.5 177.111 14.06C176.564 14.6067 176.291 15.4067 176.291 16.46C176.291 17.5133 176.564 18.32 177.111 18.88C177.658 19.4267 178.324 19.7 179.111 19.7C179.898 19.7 180.564 19.4267 181.111 18.88C181.658 18.32 181.931 17.5133 181.931 16.46C181.931 15.4067 181.658 14.6067 181.111 14.06C180.564 13.5 179.898 13.22 179.111 13.22ZM191.124 10.78C192.057 10.78 192.851 11 193.504 11.44C194.171 11.88 194.651 12.4733 194.944 13.22V7.2H197.744V22H194.944V19.68C194.651 20.4267 194.171 21.0267 193.504 21.48C192.851 21.92 192.057 22.14 191.124 22.14C190.191 22.14 189.351 21.9133 188.604 21.46C187.857 21.0067 187.271 20.3533 186.844 19.5C186.431 18.6333 186.224 17.62 186.224 16.46C186.224 15.3 186.431 14.2933 186.844 13.44C187.271 12.5733 187.857 11.9133 188.604 11.46C189.351 11.0067 190.191 10.78 191.124 10.78ZM192.004 13.24C191.124 13.24 190.417 13.5267 189.884 14.1C189.351 14.6733 189.084 15.46 189.084 16.46C189.084 17.46 189.351 18.2467 189.884 18.82C190.417 19.38 191.124 19.66 192.004 19.66C192.857 19.66 193.557 19.3733 194.104 18.8C194.664 18.2133 194.944 17.4333 194.944 16.46C194.944 15.4733 194.664 14.6933 194.104 14.12C193.557 13.5333 192.857 13.24 192.004 13.24ZM210.72 16.04C210.72 16.32 210.686 16.64 210.62 17H202.5C202.54 17.9867 202.806 18.7133 203.3 19.18C203.793 19.6467 204.406 19.88 205.14 19.88C205.793 19.88 206.333 19.72 206.76 19.4C207.2 19.08 207.48 18.6467 207.6 18.1H210.58C210.433 18.8733 210.12 19.5667 209.64 20.18C209.16 20.7933 208.54 21.2733 207.78 21.62C207.033 21.9667 206.2 22.14 205.28 22.14C204.2 22.14 203.24 21.9133 202.4 21.46C201.56 20.9933 200.906 20.3333 200.44 19.48C199.973 18.6267 199.74 17.62 199.74 16.46C199.74 15.3 199.973 14.2933 200.44 13.44C200.906 12.5733 201.56 11.9133 202.4 11.46C203.24 11.0067 204.2 10.78 205.28 10.78C206.373 10.78 207.326 11.0067 208.14 11.46C208.966 11.9133 209.6 12.54 210.04 13.34C210.493 14.1267 210.72 15.0267 210.72 16.04ZM207.88 15.76C207.92 14.8533 207.68 14.1667 207.16 13.7C206.653 13.2333 206.026 13 205.28 13C204.52 13 203.88 13.2333 203.36 13.7C202.84 14.1667 202.553 14.8533 202.5 15.76H207.88Z" fill="#070F18"/>
<defs>
<clipPath id="clip0_8_31">
<rect width="24" height="24" fill="white" transform="translate(18 18)"/>
</clipPath>
</defs>
</svg>
