<svg width="310" height="106" viewBox="0 0 310 106" fill="none" xmlns="http://www.w3.org/2000/svg">
<path d="M92.304 61.072C92.304 61.6053 92.176 62.1013 91.92 62.56C91.664 63.0187 91.2747 63.392 90.752 63.68C90.2293 63.968 89.584 64.112 88.816 64.112C88.0693 64.112 87.4027 63.9787 86.816 63.712C86.24 63.4347 85.776 63.0613 85.424 62.592C85.0827 62.112 84.8853 61.568 84.832 60.96H86.384C86.416 61.28 86.5227 61.5947 86.704 61.904C86.896 62.2027 87.1627 62.4533 87.504 62.656C87.856 62.848 88.2773 62.944 88.768 62.944C89.408 62.944 89.8987 62.7733 90.24 62.432C90.5813 62.0907 90.752 61.6533 90.752 61.12C90.752 60.6613 90.6293 60.288 90.384 60C90.1493 59.712 89.856 59.488 89.504 59.328C89.152 59.1573 88.672 58.976 88.064 58.784C87.3493 58.5493 86.7733 58.3307 86.336 58.128C85.9093 57.9147 85.5413 57.6 85.232 57.184C84.9333 56.768 84.784 56.2187 84.784 55.536C84.784 54.9493 84.9227 54.432 85.2 53.984C85.488 53.536 85.8933 53.1893 86.416 52.944C86.9493 52.6987 87.5733 52.576 88.288 52.576C89.3973 52.576 90.2773 52.848 90.928 53.392C91.5787 53.9253 91.9573 54.608 92.064 55.44H90.496C90.4107 54.992 90.1813 54.5973 89.808 54.256C89.4347 53.9147 88.928 53.744 88.288 53.744C87.7013 53.744 87.232 53.8987 86.88 54.208C86.528 54.5067 86.352 54.9333 86.352 55.488C86.352 55.9253 86.464 56.2827 86.688 56.56C86.9227 56.8267 87.2107 57.04 87.552 57.2C87.8933 57.3493 88.3627 57.52 88.96 57.712C89.6853 57.9467 90.2667 58.1707 90.704 58.384C91.152 58.5973 91.5307 58.9227 91.84 59.36C92.1493 59.7867 92.304 60.3573 92.304 61.072ZM102.342 59.12C102.342 59.4293 102.32 59.696 102.278 59.92H95.2538C95.2858 60.9227 95.5684 61.6747 96.1018 62.176C96.6458 62.6773 97.3071 62.928 98.0858 62.928C98.7898 62.928 99.3764 62.752 99.8458 62.4C100.326 62.0373 100.619 61.5573 100.726 60.96H102.278C102.171 61.568 101.931 62.112 101.558 62.592C101.195 63.072 100.72 63.4453 100.134 63.712C99.5471 63.9787 98.8858 64.112 98.1498 64.112C97.3071 64.112 96.5604 63.9307 95.9098 63.568C95.2591 63.2053 94.7471 62.688 94.3738 62.016C94.0111 61.3333 93.8298 60.5333 93.8298 59.616C93.8298 58.6987 94.0111 57.8987 94.3738 57.216C94.7471 56.5333 95.2591 56.0107 95.9098 55.648C96.5604 55.2853 97.3071 55.104 98.1498 55.104C99.0031 55.104 99.7444 55.2853 100.374 55.648C101.014 56.0107 101.499 56.496 101.83 57.104C102.171 57.712 102.342 58.384 102.342 59.12ZM100.87 59.216C100.902 58.5653 100.795 58.0213 100.55 57.584C100.304 57.1467 99.9684 56.8213 99.5418 56.608C99.1151 56.3947 98.6511 56.288 98.1498 56.288C97.3498 56.288 96.6778 56.5387 96.1338 57.04C95.5898 57.5307 95.2964 58.256 95.2538 59.216H100.87ZM112.326 59.12C112.326 59.4293 112.305 59.696 112.262 59.92H105.238C105.27 60.9227 105.553 61.6747 106.086 62.176C106.63 62.6773 107.291 62.928 108.07 62.928C108.774 62.928 109.361 62.752 109.83 62.4C110.31 62.0373 110.603 61.5573 110.71 60.96H112.262C112.155 61.568 111.915 62.112 111.542 62.592C111.179 63.072 110.705 63.4453 110.118 63.712C109.531 63.9787 108.87 64.112 108.134 64.112C107.291 64.112 106.545 63.9307 105.894 63.568C105.243 63.2053 104.731 62.688 104.358 62.016C103.995 61.3333 103.814 60.5333 103.814 59.616C103.814 58.6987 103.995 57.8987 104.358 57.216C104.731 56.5333 105.243 56.0107 105.894 55.648C106.545 55.2853 107.291 55.104 108.134 55.104C108.987 55.104 109.729 55.2853 110.358 55.648C110.998 56.0107 111.483 56.496 111.814 57.104C112.155 57.712 112.326 58.384 112.326 59.12ZM110.854 59.216C110.886 58.5653 110.779 58.0213 110.534 57.584C110.289 57.1467 109.953 56.8213 109.526 56.608C109.099 56.3947 108.635 56.288 108.134 56.288C107.334 56.288 106.662 56.5387 106.118 57.04C105.574 57.5307 105.281 58.256 105.238 59.216H110.854ZM130.248 55.216L127.72 64H126.152L123.736 56.848L121.304 64H119.72L117.224 55.216H118.696L120.568 62.608L123 55.216H124.52L126.968 62.592L128.856 55.216H130.248ZM136.23 55.072C137.254 55.072 138.08 55.4027 138.71 56.064C139.339 56.7147 139.654 57.6587 139.654 58.896V64H138.198V59.024C138.198 58.1493 137.974 57.4773 137.526 57.008C137.078 56.5387 136.47 56.304 135.702 56.304C134.902 56.304 134.262 56.5653 133.782 57.088C133.302 57.6 133.062 58.352 133.062 59.344V64H131.606V52.16H133.062V57.296C133.286 56.5813 133.68 56.032 134.246 55.648C134.822 55.264 135.483 55.072 136.23 55.072ZM149.967 59.12C149.967 59.4293 149.945 59.696 149.903 59.92H142.879C142.911 60.9227 143.193 61.6747 143.727 62.176C144.271 62.6773 144.932 62.928 145.711 62.928C146.415 62.928 147.001 62.752 147.471 62.4C147.951 62.0373 148.244 61.5573 148.351 60.96H149.903C149.796 61.568 149.556 62.112 149.183 62.592C148.82 63.072 148.345 63.4453 147.759 63.712C147.172 63.9787 146.511 64.112 145.775 64.112C144.932 64.112 144.185 63.9307 143.535 63.568C142.884 63.2053 142.372 62.688 141.999 62.016C141.636 61.3333 141.455 60.5333 141.455 59.616C141.455 58.6987 141.636 57.8987 141.999 57.216C142.372 56.5333 142.884 56.0107 143.535 55.648C144.185 55.2853 144.932 55.104 145.775 55.104C146.628 55.104 147.369 55.2853 147.999 55.648C148.639 56.0107 149.124 56.496 149.455 57.104C149.796 57.712 149.967 58.384 149.967 59.12ZM148.495 59.216C148.527 58.5653 148.42 58.0213 148.175 57.584C147.929 57.1467 147.593 56.8213 147.167 56.608C146.74 56.3947 146.276 56.288 145.775 56.288C144.975 56.288 144.303 56.5387 143.759 57.04C143.215 57.5307 142.921 58.256 142.879 59.216H148.495ZM153.327 56.992C153.615 56.384 154.036 55.9147 154.591 55.584C155.146 55.2427 155.807 55.072 156.575 55.072V56.656H156.127C155.306 56.656 154.634 56.8693 154.111 57.296C153.588 57.712 153.327 58.4053 153.327 59.376V64H151.871V55.216H153.327V56.992ZM166.092 59.12C166.092 59.4293 166.07 59.696 166.028 59.92H159.004C159.036 60.9227 159.318 61.6747 159.852 62.176C160.396 62.6773 161.057 62.928 161.836 62.928C162.54 62.928 163.126 62.752 163.596 62.4C164.076 62.0373 164.369 61.5573 164.476 60.96H166.028C165.921 61.568 165.681 62.112 165.308 62.592C164.945 63.072 164.47 63.4453 163.884 63.712C163.297 63.9787 162.636 64.112 161.9 64.112C161.057 64.112 160.31 63.9307 159.66 63.568C159.009 63.2053 158.497 62.688 158.124 62.016C157.761 61.3333 157.58 60.5333 157.58 59.616C157.58 58.6987 157.761 57.8987 158.124 57.216C158.497 56.5333 159.009 56.0107 159.66 55.648C160.31 55.2853 161.057 55.104 161.9 55.104C162.753 55.104 163.494 55.2853 164.124 55.648C164.764 56.0107 165.249 56.496 165.58 57.104C165.921 57.712 166.092 58.384 166.092 59.12ZM164.62 59.216C164.652 58.5653 164.545 58.0213 164.3 57.584C164.054 57.1467 163.718 56.8213 163.292 56.608C162.865 56.3947 162.401 56.288 161.9 56.288C161.1 56.288 160.428 56.5387 159.884 57.04C159.34 57.5307 159.046 58.256 159.004 59.216H164.62ZM172.557 55.216L175.405 62.128L178.045 55.216H179.661L174.445 68.16H172.797L174.621 63.856L170.925 55.216H172.557ZM184.98 55.104C185.823 55.104 186.575 55.2853 187.236 55.648C187.908 56.0107 188.431 56.5333 188.804 57.216C189.188 57.8987 189.38 58.6987 189.38 59.616C189.38 60.5333 189.188 61.3333 188.804 62.016C188.431 62.688 187.908 63.2053 187.236 63.568C186.575 63.9307 185.823 64.112 184.98 64.112C184.137 64.112 183.38 63.9307 182.708 63.568C182.047 63.2053 181.524 62.688 181.14 62.016C180.756 61.3333 180.564 60.5333 180.564 59.616C180.564 58.6987 180.756 57.8987 181.14 57.216C181.524 56.5333 182.047 56.0107 182.708 55.648C183.38 55.2853 184.137 55.104 184.98 55.104ZM184.98 56.384C184.457 56.384 183.972 56.5013 183.524 56.736C183.087 56.9707 182.729 57.3333 182.452 57.824C182.185 58.304 182.052 58.9013 182.052 59.616C182.052 60.32 182.185 60.9173 182.452 61.408C182.729 61.888 183.087 62.2453 183.524 62.48C183.972 62.7147 184.457 62.832 184.98 62.832C185.503 62.832 185.983 62.7147 186.42 62.48C186.868 62.2453 187.225 61.888 187.492 61.408C187.769 60.9173 187.908 60.32 187.908 59.616C187.908 58.9013 187.769 58.304 187.492 57.824C187.225 57.3333 186.868 56.9707 186.42 56.736C185.983 56.5013 185.503 56.384 184.98 56.384ZM199.085 55.216V64H197.629V61.936C197.405 62.6507 197.005 63.2 196.429 63.584C195.864 63.9573 195.203 64.144 194.445 64.144C193.432 64.144 192.611 63.8187 191.981 63.168C191.352 62.5067 191.037 61.5627 191.037 60.336V55.216H192.493V60.192C192.493 61.0667 192.717 61.744 193.165 62.224C193.613 62.6933 194.221 62.928 194.989 62.928C195.789 62.928 196.429 62.672 196.909 62.16C197.389 61.6373 197.629 60.88 197.629 59.888V55.216H199.085ZM202.874 56.992C203.162 56.384 203.583 55.9147 204.138 55.584C204.693 55.2427 205.354 55.072 206.122 55.072V56.656H205.674C204.853 56.656 204.181 56.8693 203.658 57.296C203.135 57.712 202.874 58.4053 202.874 59.376V64H201.418V55.216H202.874V56.992ZM222.312 55.072C223.336 55.072 224.157 55.4027 224.776 56.064C225.405 56.7147 225.72 57.6587 225.72 58.896V64H224.264V59.024C224.264 58.16 224.05 57.4987 223.624 57.04C223.208 56.5813 222.632 56.352 221.896 56.352C221.128 56.352 220.509 56.608 220.04 57.12C219.581 57.6213 219.352 58.3627 219.352 59.344V64H217.896V59.024C217.896 58.16 217.682 57.4987 217.256 57.04C216.829 56.5813 216.253 56.352 215.528 56.352C214.749 56.352 214.125 56.608 213.656 57.12C213.197 57.6213 212.968 58.3627 212.968 59.344V64H211.512V55.216H212.968V57.216C213.181 56.5227 213.56 55.9947 214.104 55.632C214.658 55.2587 215.293 55.072 216.008 55.072C216.754 55.072 217.4 55.264 217.944 55.648C218.498 56.0213 218.893 56.576 219.128 57.312C219.373 56.5973 219.784 56.048 220.36 55.664C220.936 55.2693 221.586 55.072 222.312 55.072ZM231.965 55.104C232.807 55.104 233.559 55.2853 234.221 55.648C234.893 56.0107 235.415 56.5333 235.789 57.216C236.173 57.8987 236.365 58.6987 236.365 59.616C236.365 60.5333 236.173 61.3333 235.789 62.016C235.415 62.688 234.893 63.2053 234.221 63.568C233.559 63.9307 232.807 64.112 231.965 64.112C231.122 64.112 230.365 63.9307 229.693 63.568C229.031 63.2053 228.509 62.688 228.125 62.016C227.741 61.3333 227.549 60.5333 227.549 59.616C227.549 58.6987 227.741 57.8987 228.125 57.216C228.509 56.5333 229.031 56.0107 229.693 55.648C230.365 55.2853 231.122 55.104 231.965 55.104ZM231.965 56.384C231.442 56.384 230.957 56.5013 230.509 56.736C230.071 56.9707 229.714 57.3333 229.437 57.824C229.17 58.304 229.037 58.9013 229.037 59.616C229.037 60.32 229.17 60.9173 229.437 61.408C229.714 61.888 230.071 62.2453 230.509 62.48C230.957 62.7147 231.442 62.832 231.965 62.832C232.487 62.832 232.967 62.7147 233.405 62.48C233.853 62.2453 234.21 61.888 234.477 61.408C234.754 60.9173 234.892 60.32 234.892 59.616C234.892 58.9013 234.754 58.304 234.477 57.824C234.21 57.3333 233.853 56.9707 233.405 56.736C232.967 56.5013 232.487 56.384 231.965 56.384ZM242.886 55.072C243.91 55.072 244.736 55.4027 245.366 56.064C245.995 56.7147 246.31 57.6587 246.31 58.896V64H244.854V59.024C244.854 58.1493 244.63 57.4773 244.182 57.008C243.734 56.5387 243.126 56.304 242.358 56.304C241.558 56.304 240.918 56.5653 240.438 57.088C239.958 57.6 239.718 58.352 239.718 59.344V64H238.262V55.216H239.718V57.296C239.942 56.5813 240.336 56.032 240.902 55.648C241.478 55.264 242.139 55.072 242.886 55.072ZM256.623 59.12C256.623 59.4293 256.602 59.696 256.559 59.92H249.535C249.567 60.9227 249.85 61.6747 250.383 62.176C250.927 62.6773 251.588 62.928 252.367 62.928C253.071 62.928 253.658 62.752 254.127 62.4C254.607 62.0373 254.9 61.5573 255.007 60.96H256.559C256.452 61.568 256.212 62.112 255.839 62.592C255.476 63.072 255.002 63.4453 254.415 63.712C253.828 63.9787 253.167 64.112 252.431 64.112C251.588 64.112 250.842 63.9307 250.191 63.568C249.54 63.2053 249.028 62.688 248.655 62.016C248.292 61.3333 248.111 60.5333 248.111 59.616C248.111 58.6987 248.292 57.8987 248.655 57.216C249.028 56.5333 249.54 56.0107 250.191 55.648C250.842 55.2853 251.588 55.104 252.431 55.104C253.284 55.104 254.026 55.2853 254.655 55.648C255.295 56.0107 255.78 56.496 256.111 57.104C256.452 57.712 256.623 58.384 256.623 59.12ZM255.151 59.216C255.183 58.5653 255.076 58.0213 254.831 57.584C254.586 57.1467 254.25 56.8213 253.823 56.608C253.396 56.3947 252.932 56.288 252.431 56.288C251.631 56.288 250.959 56.5387 250.415 57.04C249.871 57.5307 249.578 58.256 249.535 59.216H255.151ZM259.135 55.216L261.983 62.128L264.623 55.216H266.239L261.023 68.16H259.375L261.199 63.856L257.503 55.216H259.135ZM275.127 55.104C275.981 55.104 276.701 55.3173 277.287 55.744C277.885 56.1707 278.301 56.7413 278.535 57.456V55.216H279.991V64.144C279.991 64.9547 279.821 65.6747 279.479 66.304C279.138 66.9333 278.658 67.424 278.039 67.776C277.421 68.128 276.701 68.304 275.879 68.304C274.695 68.304 273.73 68.016 272.983 67.44C272.237 66.8747 271.762 66.1067 271.559 65.136H272.999C273.17 65.7227 273.49 66.1813 273.959 66.512C274.439 66.8533 275.053 67.024 275.799 67.024C276.589 67.024 277.239 66.768 277.751 66.256C278.274 65.7547 278.535 65.0507 278.535 64.144V61.76C278.301 62.4747 277.885 63.0453 277.287 63.472C276.701 63.8987 275.981 64.112 275.127 64.112C274.349 64.112 273.655 63.9307 273.047 63.568C272.439 63.2053 271.959 62.688 271.607 62.016C271.266 61.3333 271.095 60.5333 271.095 59.616C271.095 58.6987 271.266 57.8987 271.607 57.216C271.959 56.5333 272.439 56.0107 273.047 55.648C273.655 55.2853 274.349 55.104 275.127 55.104ZM275.543 56.4C274.647 56.4 273.927 56.688 273.383 57.264C272.85 57.8293 272.583 58.6133 272.583 59.616C272.583 60.6187 272.85 61.408 273.383 61.984C273.927 62.5493 274.647 62.832 275.543 62.832C276.119 62.832 276.631 62.6987 277.079 62.432C277.538 62.1653 277.895 61.792 278.151 61.312C278.407 60.8213 278.535 60.256 278.535 59.616C278.535 58.976 278.407 58.4107 278.151 57.92C277.895 57.4293 277.538 57.056 277.079 56.8C276.631 56.5333 276.119 56.4 275.543 56.4ZM286.293 55.104C287.135 55.104 287.887 55.2853 288.549 55.648C289.221 56.0107 289.743 56.5333 290.117 57.216C290.501 57.8987 290.693 58.6987 290.693 59.616C290.693 60.5333 290.501 61.3333 290.117 62.016C289.743 62.688 289.221 63.2053 288.549 63.568C287.887 63.9307 287.135 64.112 286.293 64.112C285.45 64.112 284.693 63.9307 284.021 63.568C283.359 63.2053 282.837 62.688 282.453 62.016C282.069 61.3333 281.877 60.5333 281.877 59.616C281.877 58.6987 282.069 57.8987 282.453 57.216C282.837 56.5333 283.359 56.0107 284.021 55.648C284.693 55.2853 285.45 55.104 286.293 55.104ZM286.293 56.384C285.77 56.384 285.285 56.5013 284.837 56.736C284.399 56.9707 284.042 57.3333 283.765 57.824C283.498 58.304 283.365 58.9013 283.365 59.616C283.365 60.32 283.498 60.9173 283.765 61.408C284.042 61.888 284.399 62.2453 284.837 62.48C285.285 62.7147 285.77 62.832 286.293 62.832C286.815 62.832 287.295 62.7147 287.733 62.48C288.181 62.2453 288.538 61.888 288.805 61.408C289.082 60.9173 289.221 60.32 289.221 59.616C289.221 58.9013 289.082 58.304 288.805 57.824C288.538 57.3333 288.181 56.9707 287.733 56.736C287.295 56.5013 286.815 56.384 286.293 56.384ZM300.67 59.12C300.67 59.4293 300.649 59.696 300.606 59.92H293.582C293.614 60.9227 293.897 61.6747 294.43 62.176C294.974 62.6773 295.635 62.928 296.414 62.928C297.118 62.928 297.705 62.752 298.174 62.4C298.654 62.0373 298.947 61.5573 299.054 60.96H300.606C300.499 61.568 300.259 62.112 299.886 62.592C299.523 63.072 299.049 63.4453 298.462 63.712C297.875 63.9787 297.214 64.112 296.478 64.112C295.635 64.112 294.889 63.9307 294.238 63.568C293.587 63.2053 293.075 62.688 292.702 62.016C292.339 61.3333 292.158 60.5333 292.158 59.616C292.158 58.6987 292.339 57.8987 292.702 57.216C293.075 56.5333 293.587 56.0107 294.238 55.648C294.889 55.2853 295.635 55.104 296.478 55.104C297.331 55.104 298.073 55.2853 298.702 55.648C299.342 56.0107 299.827 56.496 300.158 57.104C300.499 57.712 300.67 58.384 300.67 59.12ZM299.198 59.216C299.23 58.5653 299.123 58.0213 298.878 57.584C298.633 57.1467 298.297 56.8213 297.87 56.608C297.443 56.3947 296.979 56.288 296.478 56.288C295.678 56.288 295.006 56.5387 294.462 57.04C293.918 57.5307 293.625 58.256 293.582 59.216H299.198ZM305.326 55.104C306.318 55.104 307.113 55.3653 307.71 55.888C308.318 56.4 308.686 57.0933 308.814 57.968H307.422C307.358 57.4453 307.14 57.0187 306.766 56.688C306.404 56.3467 305.913 56.176 305.294 56.176C304.772 56.176 304.361 56.304 304.062 56.56C303.774 56.8053 303.63 57.1413 303.63 57.568C303.63 57.888 303.726 58.1493 303.918 58.352C304.121 58.544 304.366 58.6933 304.654 58.8C304.953 58.896 305.358 59.0027 305.87 59.12C306.521 59.2693 307.044 59.424 307.438 59.584C307.844 59.7333 308.185 59.9787 308.462 60.32C308.75 60.6613 308.894 61.12 308.894 61.696C308.894 62.4107 308.622 62.992 308.078 63.44C307.545 63.888 306.83 64.112 305.934 64.112C304.889 64.112 304.036 63.8613 303.374 63.36C302.713 62.8587 302.324 62.16 302.206 61.264H303.614C303.668 61.7973 303.897 62.2293 304.302 62.56C304.718 62.8907 305.262 63.056 305.934 63.056C306.436 63.056 306.825 62.928 307.102 62.672C307.39 62.416 307.534 62.08 307.534 61.664C307.534 61.3227 307.433 61.0507 307.23 60.848C307.028 60.6453 306.777 60.4907 306.478 60.384C306.18 60.2773 305.769 60.1653 305.246 60.048C304.596 59.8987 304.073 59.7493 303.678 59.6C303.294 59.4507 302.964 59.216 302.686 58.896C302.42 58.5653 302.286 58.1227 302.286 57.568C302.286 56.832 302.558 56.24 303.102 55.792C303.646 55.3333 304.388 55.104 305.326 55.104ZM88.768 87.104C89.6213 87.104 90.3413 87.3173 90.928 87.744C91.5253 88.1707 91.9413 88.7413 92.176 89.456V87.216H93.632V96H92.176V93.76C91.9413 94.4747 91.5253 95.0453 90.928 95.472C90.3413 95.8987 89.6213 96.112 88.768 96.112C87.9893 96.112 87.296 95.9307 86.688 95.568C86.08 95.2053 85.6 94.688 85.248 94.016C84.9067 93.3333 84.736 92.5333 84.736 91.616C84.736 90.6987 84.9067 89.8987 85.248 89.216C85.6 88.5333 86.08 88.0107 86.688 87.648C87.296 87.2853 87.9893 87.104 88.768 87.104ZM89.184 88.4C88.288 88.4 87.568 88.688 87.024 89.264C86.4907 89.8293 86.224 90.6133 86.224 91.616C86.224 92.6187 86.4907 93.408 87.024 93.984C87.568 94.5493 88.288 94.832 89.184 94.832C89.76 94.832 90.272 94.6987 90.72 94.432C91.1787 94.1653 91.536 93.792 91.792 93.312C92.048 92.8213 92.176 92.256 92.176 91.616C92.176 90.976 92.048 90.4107 91.792 89.92C91.536 89.4293 91.1787 89.056 90.72 88.8C90.272 88.5333 89.76 88.4 89.184 88.4ZM100.573 87.072C101.597 87.072 102.424 87.4027 103.053 88.064C103.683 88.7147 103.997 89.6587 103.997 90.896V96H102.541V91.024C102.541 90.1493 102.317 89.4773 101.869 89.008C101.421 88.5387 100.813 88.304 100.045 88.304C99.2453 88.304 98.6053 88.5653 98.1253 89.088C97.6453 89.6 97.4053 90.352 97.4053 91.344V96H95.9493V87.216H97.4053V89.296C97.6293 88.5813 98.0239 88.032 98.5893 87.648C99.1653 87.264 99.8266 87.072 100.573 87.072ZM109.831 87.104C110.684 87.104 111.404 87.3173 111.991 87.744C112.588 88.1707 113.004 88.7413 113.239 89.456V84.16H114.695V96H113.239V93.76C113.004 94.4747 112.588 95.0453 111.991 95.472C111.404 95.8987 110.684 96.112 109.831 96.112C109.052 96.112 108.359 95.9307 107.751 95.568C107.143 95.2053 106.663 94.688 106.311 94.016C105.969 93.3333 105.799 92.5333 105.799 91.616C105.799 90.6987 105.969 89.8987 106.311 89.216C106.663 88.5333 107.143 88.0107 107.751 87.648C108.359 87.2853 109.052 87.104 109.831 87.104ZM110.247 88.4C109.351 88.4 108.631 88.688 108.087 89.264C107.553 89.8293 107.287 90.6133 107.287 91.616C107.287 92.6187 107.553 93.408 108.087 93.984C108.631 94.5493 109.351 94.832 110.247 94.832C110.823 94.832 111.335 94.6987 111.783 94.432C112.241 94.1653 112.599 93.792 112.855 93.312C113.111 92.8213 113.239 92.256 113.239 91.616C113.239 90.976 113.111 90.4107 112.855 89.92C112.599 89.4293 112.241 89.056 111.783 88.8C111.335 88.5333 110.823 88.4 110.247 88.4ZM124.853 87.104C125.973 87.104 126.901 87.4027 127.637 88C128.373 88.5973 128.826 89.3973 128.997 90.4H127.461C127.354 89.7707 127.061 89.28 126.581 88.928C126.112 88.5653 125.525 88.384 124.821 88.384C124.309 88.384 123.84 88.5013 123.413 88.736C122.997 88.9707 122.661 89.3333 122.405 89.824C122.149 90.304 122.021 90.9013 122.021 91.616C122.021 92.3307 122.149 92.9333 122.405 93.424C122.661 93.904 122.997 94.2613 123.413 94.496C123.84 94.7307 124.309 94.848 124.821 94.848C125.525 94.848 126.112 94.6667 126.581 94.304C127.061 93.9413 127.354 93.4453 127.461 92.816H128.997C128.826 93.8293 128.373 94.6347 127.637 95.232C126.901 95.8187 125.973 96.112 124.853 96.112C124.01 96.112 123.264 95.9307 122.613 95.568C121.962 95.2053 121.45 94.688 121.077 94.016C120.714 93.3333 120.533 92.5333 120.533 91.616C120.533 90.6987 120.714 89.8987 121.077 89.216C121.45 88.5333 121.962 88.0107 122.613 87.648C123.264 87.2853 124.01 87.104 124.853 87.104ZM134.886 87.104C135.729 87.104 136.481 87.2853 137.142 87.648C137.814 88.0107 138.337 88.5333 138.71 89.216C139.094 89.8987 139.286 90.6987 139.286 91.616C139.286 92.5333 139.094 93.3333 138.71 94.016C138.337 94.688 137.814 95.2053 137.142 95.568C136.481 95.9307 135.729 96.112 134.886 96.112C134.044 96.112 133.286 95.9307 132.614 95.568C131.953 95.2053 131.43 94.688 131.046 94.016C130.662 93.3333 130.47 92.5333 130.47 91.616C130.47 90.6987 130.662 89.8987 131.046 89.216C131.43 88.5333 131.953 88.0107 132.614 87.648C133.286 87.2853 134.044 87.104 134.886 87.104ZM134.886 88.384C134.364 88.384 133.878 88.5013 133.43 88.736C132.993 88.9707 132.636 89.3333 132.358 89.824C132.092 90.304 131.958 90.9013 131.958 91.616C131.958 92.32 132.092 92.9173 132.358 93.408C132.636 93.888 132.993 94.2453 133.43 94.48C133.878 94.7147 134.364 94.832 134.886 94.832C135.409 94.832 135.889 94.7147 136.326 94.48C136.774 94.2453 137.132 93.888 137.398 93.408C137.676 92.9173 137.814 92.32 137.814 91.616C137.814 90.9013 137.676 90.304 137.398 89.824C137.132 89.3333 136.774 88.9707 136.326 88.736C135.889 88.5013 135.409 88.384 134.886 88.384ZM151.984 87.072C153.008 87.072 153.829 87.4027 154.448 88.064C155.077 88.7147 155.392 89.6587 155.392 90.896V96H153.936V91.024C153.936 90.16 153.722 89.4987 153.296 89.04C152.88 88.5813 152.304 88.352 151.568 88.352C150.8 88.352 150.181 88.608 149.712 89.12C149.253 89.6213 149.024 90.3627 149.024 91.344V96H147.568V91.024C147.568 90.16 147.354 89.4987 146.928 89.04C146.501 88.5813 145.925 88.352 145.2 88.352C144.421 88.352 143.797 88.608 143.328 89.12C142.869 89.6213 142.64 90.3627 142.64 91.344V96H141.184V87.216H142.64V89.216C142.853 88.5227 143.232 87.9947 143.776 87.632C144.33 87.2587 144.965 87.072 145.68 87.072C146.426 87.072 147.072 87.264 147.616 87.648C148.17 88.0213 148.565 88.576 148.8 89.312C149.045 88.5973 149.456 88.048 150.032 87.664C150.608 87.2693 151.258 87.072 151.984 87.072ZM165.732 91.12C165.732 91.4293 165.711 91.696 165.668 91.92H158.644C158.676 92.9227 158.959 93.6747 159.492 94.176C160.036 94.6773 160.698 94.928 161.476 94.928C162.18 94.928 162.767 94.752 163.236 94.4C163.716 94.0373 164.01 93.5573 164.116 92.96H165.668C165.562 93.568 165.322 94.112 164.948 94.592C164.586 95.072 164.111 95.4453 163.524 95.712C162.938 95.9787 162.276 96.112 161.54 96.112C160.698 96.112 159.951 95.9307 159.3 95.568C158.65 95.2053 158.138 94.688 157.764 94.016C157.402 93.3333 157.22 92.5333 157.22 91.616C157.22 90.6987 157.402 89.8987 157.764 89.216C158.138 88.5333 158.65 88.0107 159.3 87.648C159.951 87.2853 160.698 87.104 161.54 87.104C162.394 87.104 163.135 87.2853 163.764 87.648C164.404 88.0107 164.89 88.496 165.22 89.104C165.562 89.712 165.732 90.384 165.732 91.12ZM164.26 91.216C164.292 90.5653 164.186 90.0213 163.94 89.584C163.695 89.1467 163.359 88.8213 162.932 88.608C162.506 88.3947 162.042 88.288 161.54 88.288C160.74 88.288 160.068 88.5387 159.524 89.04C158.98 89.5307 158.687 90.256 158.644 91.216H164.26ZM170.389 87.104C171.381 87.104 172.175 87.3653 172.773 87.888C173.381 88.4 173.749 89.0933 173.877 89.968H172.485C172.421 89.4453 172.202 89.0187 171.829 88.688C171.466 88.3467 170.975 88.176 170.357 88.176C169.834 88.176 169.423 88.304 169.125 88.56C168.837 88.8053 168.693 89.1413 168.693 89.568C168.693 89.888 168.789 90.1493 168.981 90.352C169.183 90.544 169.429 90.6933 169.717 90.8C170.015 90.896 170.421 91.0027 170.933 91.12C171.583 91.2693 172.106 91.424 172.501 91.584C172.906 91.7333 173.247 91.9787 173.525 92.32C173.813 92.6613 173.957 93.12 173.957 93.696C173.957 94.4107 173.685 94.992 173.141 95.44C172.607 95.888 171.893 96.112 170.997 96.112C169.951 96.112 169.098 95.8613 168.437 95.36C167.775 94.8587 167.386 94.16 167.269 93.264H168.677C168.73 93.7973 168.959 94.2293 169.365 94.56C169.781 94.8907 170.325 95.056 170.997 95.056C171.498 95.056 171.887 94.928 172.165 94.672C172.453 94.416 172.597 94.08 172.597 93.664C172.597 93.3227 172.495 93.0507 172.293 92.848C172.09 92.6453 171.839 92.4907 171.541 92.384C171.242 92.2773 170.831 92.1653 170.309 92.048C169.658 91.8987 169.135 91.7493 168.741 91.6C168.357 91.4507 168.026 91.216 167.749 90.896C167.482 90.5653 167.349 90.1227 167.349 89.568C167.349 88.832 167.621 88.24 168.165 87.792C168.709 87.3333 169.45 87.104 170.389 87.104ZM179.6 84.64C179.6 84.3733 179.69 84.16 179.872 84C180.053 83.8293 180.293 83.744 180.592 83.744C180.89 83.744 181.13 83.8293 181.312 84C181.493 84.16 181.584 84.3733 181.584 84.64C181.584 84.9067 181.493 85.1253 181.312 85.296C181.13 85.456 180.89 85.536 180.592 85.536C180.293 85.536 180.053 85.456 179.872 85.296C179.69 85.1253 179.6 84.9067 179.6 84.64ZM181.312 87.216V96H179.856V87.216H181.312ZM188.276 87.072C189.3 87.072 190.127 87.4027 190.756 88.064C191.386 88.7147 191.7 89.6587 191.7 90.896V96H190.244V91.024C190.244 90.1493 190.02 89.4773 189.572 89.008C189.124 88.5387 188.516 88.304 187.748 88.304C186.948 88.304 186.308 88.5653 185.828 89.088C185.348 89.6 185.108 90.352 185.108 91.344V96H183.652V87.216H185.108V89.296C185.332 88.5813 185.727 88.032 186.292 87.648C186.868 87.264 187.53 87.072 188.276 87.072ZM202.735 87.104C203.513 87.104 204.207 87.2853 204.815 87.648C205.423 88.0107 205.897 88.5333 206.239 89.216C206.591 89.8987 206.767 90.6987 206.767 91.616C206.767 92.5333 206.591 93.3333 206.239 94.016C205.897 94.688 205.423 95.2053 204.815 95.568C204.207 95.9307 203.513 96.112 202.735 96.112C201.881 96.112 201.156 95.8987 200.559 95.472C199.972 95.0347 199.567 94.464 199.343 93.76V96H197.887V84.16H199.343V89.456C199.567 88.752 199.972 88.1867 200.559 87.76C201.156 87.3227 201.881 87.104 202.735 87.104ZM202.319 88.4C201.753 88.4 201.241 88.5333 200.783 88.8C200.324 89.056 199.967 89.4293 199.711 89.92C199.455 90.4107 199.327 90.976 199.327 91.616C199.327 92.256 199.455 92.8213 199.711 93.312C199.967 93.792 200.324 94.1653 200.783 94.432C201.241 94.6987 201.753 94.832 202.319 94.832C203.225 94.832 203.945 94.5493 204.479 93.984C205.023 93.408 205.295 92.6187 205.295 91.616C205.295 90.6133 205.023 89.8293 204.479 89.264C203.945 88.688 203.225 88.4 202.319 88.4ZM216.476 87.216V96H215.02V93.936C214.796 94.6507 214.396 95.2 213.82 95.584C213.255 95.9573 212.593 96.144 211.836 96.144C210.823 96.144 210.001 95.8187 209.372 95.168C208.743 94.5067 208.428 93.5627 208.428 92.336V87.216H209.884V92.192C209.884 93.0667 210.108 93.744 210.556 94.224C211.004 94.6933 211.612 94.928 212.38 94.928C213.18 94.928 213.82 94.672 214.3 94.16C214.78 93.6373 215.02 92.88 215.02 91.888V87.216H216.476ZM221.561 87.104C222.553 87.104 223.347 87.3653 223.945 87.888C224.553 88.4 224.921 89.0933 225.049 89.968H223.657C223.593 89.4453 223.374 89.0187 223.001 88.688C222.638 88.3467 222.147 88.176 221.529 88.176C221.006 88.176 220.595 88.304 220.297 88.56C220.009 88.8053 219.865 89.1413 219.865 89.568C219.865 89.888 219.961 90.1493 220.153 90.352C220.355 90.544 220.601 90.6933 220.889 90.8C221.187 90.896 221.593 91.0027 222.105 91.12C222.755 91.2693 223.278 91.424 223.673 91.584C224.078 91.7333 224.419 91.9787 224.697 92.32C224.985 92.6613 225.129 93.12 225.129 93.696C225.129 94.4107 224.857 94.992 224.313 95.44C223.779 95.888 223.065 96.112 222.169 96.112C221.123 96.112 220.27 95.8613 219.609 95.36C218.947 94.8587 218.558 94.16 218.441 93.264H219.849C219.902 93.7973 220.131 94.2293 220.537 94.56C220.953 94.8907 221.497 95.056 222.169 95.056C222.67 95.056 223.059 94.928 223.337 94.672C223.625 94.416 223.769 94.08 223.769 93.664C223.769 93.3227 223.667 93.0507 223.465 92.848C223.262 92.6453 223.011 92.4907 222.713 92.384C222.414 92.2773 222.003 92.1653 221.481 92.048C220.83 91.8987 220.307 91.7493 219.913 91.6C219.529 91.4507 219.198 91.216 218.921 90.896C218.654 90.5653 218.521 90.1227 218.521 89.568C218.521 88.832 218.793 88.24 219.337 87.792C219.881 87.3333 220.622 87.104 221.561 87.104ZM226.818 84.64C226.818 84.3733 226.909 84.16 227.09 84C227.272 83.8293 227.512 83.744 227.81 83.744C228.109 83.744 228.349 83.8293 228.53 84C228.712 84.16 228.802 84.3733 228.802 84.64C228.802 84.9067 228.712 85.1253 228.53 85.296C228.349 85.456 228.109 85.536 227.81 85.536C227.512 85.536 227.272 85.456 227.09 85.296C226.909 85.1253 226.818 84.9067 226.818 84.64ZM228.53 87.216V96H227.074V87.216H228.53ZM235.495 87.072C236.519 87.072 237.346 87.4027 237.975 88.064C238.604 88.7147 238.919 89.6587 238.919 90.896V96H237.463V91.024C237.463 90.1493 237.239 89.4773 236.791 89.008C236.343 88.5387 235.735 88.304 234.967 88.304C234.167 88.304 233.527 88.5653 233.047 89.088C232.567 89.6 232.327 90.352 232.327 91.344V96H230.871V87.216H232.327V89.296C232.551 88.5813 232.946 88.032 233.511 87.648C234.087 87.264 234.748 87.072 235.495 87.072ZM249.232 91.12C249.232 91.4293 249.211 91.696 249.168 91.92H242.144C242.176 92.9227 242.459 93.6747 242.992 94.176C243.536 94.6773 244.198 94.928 244.976 94.928C245.68 94.928 246.267 94.752 246.736 94.4C247.216 94.0373 247.51 93.5573 247.616 92.96H249.168C249.062 93.568 248.822 94.112 248.448 94.592C248.086 95.072 247.611 95.4453 247.024 95.712C246.438 95.9787 245.776 96.112 245.04 96.112C244.198 96.112 243.451 95.9307 242.8 95.568C242.15 95.2053 241.638 94.688 241.264 94.016C240.902 93.3333 240.72 92.5333 240.72 91.616C240.72 90.6987 240.902 89.8987 241.264 89.216C241.638 88.5333 242.15 88.0107 242.8 87.648C243.451 87.2853 244.198 87.104 245.04 87.104C245.894 87.104 246.635 87.2853 247.264 87.648C247.904 88.0107 248.39 88.496 248.72 89.104C249.062 89.712 249.232 90.384 249.232 91.12ZM247.76 91.216C247.792 90.5653 247.686 90.0213 247.44 89.584C247.195 89.1467 246.859 88.8213 246.432 88.608C246.006 88.3947 245.542 88.288 245.04 88.288C244.24 88.288 243.568 88.5387 243.024 89.04C242.48 89.5307 242.187 90.256 242.144 91.216H247.76ZM253.889 87.104C254.881 87.104 255.675 87.3653 256.273 87.888C256.881 88.4 257.249 89.0933 257.377 89.968H255.985C255.921 89.4453 255.702 89.0187 255.329 88.688C254.966 88.3467 254.475 88.176 253.857 88.176C253.334 88.176 252.923 88.304 252.625 88.56C252.337 88.8053 252.193 89.1413 252.193 89.568C252.193 89.888 252.289 90.1493 252.481 90.352C252.683 90.544 252.929 90.6933 253.217 90.8C253.515 90.896 253.921 91.0027 254.433 91.12C255.083 91.2693 255.606 91.424 256.001 91.584C256.406 91.7333 256.747 91.9787 257.025 92.32C257.313 92.6613 257.457 93.12 257.457 93.696C257.457 94.4107 257.185 94.992 256.641 95.44C256.107 95.888 255.393 96.112 254.497 96.112C253.451 96.112 252.598 95.8613 251.937 95.36C251.275 94.8587 250.886 94.16 250.769 93.264H252.177C252.23 93.7973 252.459 94.2293 252.865 94.56C253.281 94.8907 253.825 95.056 254.497 95.056C254.998 95.056 255.387 94.928 255.665 94.672C255.953 94.416 256.097 94.08 256.097 93.664C256.097 93.3227 255.995 93.0507 255.793 92.848C255.59 92.6453 255.339 92.4907 255.041 92.384C254.742 92.2773 254.331 92.1653 253.809 92.048C253.158 91.8987 252.635 91.7493 252.241 91.6C251.857 91.4507 251.526 91.216 251.249 90.896C250.982 90.5653 250.849 90.1227 250.849 89.568C250.849 88.832 251.121 88.24 251.665 87.792C252.209 87.3333 252.95 87.104 253.889 87.104ZM262.154 87.104C263.146 87.104 263.941 87.3653 264.538 87.888C265.146 88.4 265.514 89.0933 265.642 89.968H264.25C264.186 89.4453 263.968 89.0187 263.594 88.688C263.232 88.3467 262.741 88.176 262.122 88.176C261.6 88.176 261.189 88.304 260.89 88.56C260.602 88.8053 260.458 89.1413 260.458 89.568C260.458 89.888 260.554 90.1493 260.746 90.352C260.949 90.544 261.194 90.6933 261.482 90.8C261.781 90.896 262.186 91.0027 262.698 91.12C263.349 91.2693 263.872 91.424 264.266 91.584C264.672 91.7333 265.013 91.9787 265.29 92.32C265.578 92.6613 265.722 93.12 265.722 93.696C265.722 94.4107 265.45 94.992 264.906 95.44C264.373 95.888 263.658 96.112 262.762 96.112C261.717 96.112 260.864 95.8613 260.202 95.36C259.541 94.8587 259.152 94.16 259.034 93.264H260.442C260.496 93.7973 260.725 94.2293 261.13 94.56C261.546 94.8907 262.09 95.056 262.762 95.056C263.264 95.056 263.653 94.928 263.93 94.672C264.218 94.416 264.362 94.08 264.362 93.664C264.362 93.3227 264.261 93.0507 264.058 92.848C263.856 92.6453 263.605 92.4907 263.306 92.384C263.008 92.2773 262.597 92.1653 262.074 92.048C261.424 91.8987 260.901 91.7493 260.506 91.6C260.122 91.4507 259.792 91.216 259.514 90.896C259.248 90.5653 259.114 90.1227 259.114 89.568C259.114 88.832 259.386 88.24 259.93 87.792C260.474 87.3333 261.216 87.104 262.154 87.104Z" fill="#575455"/>
<circle cx="30" cy="30" r="30" fill="#F75C4E"/>
<path d="M40 20L29 31" stroke="white" stroke-width="2" stroke-linecap="round" stroke-linejoin="round"/>
<path d="M40 20L33 40L29 31L20 27L40 20Z" stroke="white" stroke-width="2" stroke-linecap="round" stroke-linejoin="round"/>
<path d="M94.88 7.88V10.12H90.98V22H88.16V10.12H84.28V7.88H94.88ZM99.2523 13.04C99.6657 12.3333 100.212 11.78 100.892 11.38C101.572 10.9667 102.332 10.76 103.172 10.76V13.78H102.352C100.286 13.78 99.2523 14.74 99.2523 16.66V22H96.4323V10.92H99.2523V13.04ZM109.073 10.78C110.006 10.78 110.806 11 111.473 11.44C112.14 11.88 112.613 12.4733 112.893 13.22V10.92H115.693V22H112.893V19.68C112.613 20.4267 112.14 21.0267 111.473 21.48C110.806 21.92 110.006 22.14 109.073 22.14C108.14 22.14 107.3 21.9133 106.553 21.46C105.806 21.0067 105.22 20.3533 104.793 19.5C104.38 18.6333 104.173 17.62 104.173 16.46C104.173 15.3 104.38 14.2933 104.793 13.44C105.22 12.5733 105.806 11.9133 106.553 11.46C107.3 11.0067 108.14 10.78 109.073 10.78ZM109.953 13.24C109.073 13.24 108.366 13.5267 107.833 14.1C107.3 14.6733 107.033 15.46 107.033 16.46C107.033 17.46 107.3 18.2467 107.833 18.82C108.366 19.38 109.073 19.66 109.953 19.66C110.806 19.66 111.506 19.3733 112.053 18.8C112.613 18.2133 112.893 17.4333 112.893 16.46C112.893 15.4733 112.613 14.6933 112.053 14.12C111.506 13.5333 110.806 13.24 109.953 13.24ZM123.229 10.78C124.655 10.78 125.842 11.1667 126.789 11.94C127.749 12.7133 128.349 13.7667 128.589 15.1H125.609C125.489 14.5133 125.215 14.0533 124.789 13.72C124.362 13.3733 123.822 13.2 123.169 13.2C122.422 13.2 121.795 13.48 121.289 14.04C120.795 14.5867 120.549 15.3933 120.549 16.46C120.549 17.5267 120.795 18.34 121.289 18.9C121.795 19.4467 122.422 19.72 123.169 19.72C123.822 19.72 124.362 19.5533 124.789 19.22C125.215 18.8733 125.489 18.4067 125.609 17.82H128.589C128.349 19.1533 127.749 20.2067 126.789 20.98C125.842 21.7533 124.655 22.14 123.229 22.14C122.149 22.14 121.189 21.9133 120.349 21.46C119.509 20.9933 118.855 20.3333 118.389 19.48C117.922 18.6267 117.689 17.62 117.689 16.46C117.689 15.3 117.922 14.2933 118.389 13.44C118.855 12.5733 119.509 11.9133 120.349 11.46C121.189 11.0067 122.149 10.78 123.229 10.78ZM137.073 22L133.413 17.16V22H130.593V7.2H133.413V15.52L137.053 10.92H140.393L135.733 16.44L140.513 22H137.073ZM149.057 19.84H153.797V22H146.237V7.88H149.057V19.84ZM165.895 16.04C165.895 16.32 165.862 16.64 165.795 17H157.675C157.715 17.9867 157.982 18.7133 158.475 19.18C158.969 19.6467 159.582 19.88 160.315 19.88C160.969 19.88 161.509 19.72 161.935 19.4C162.375 19.08 162.655 18.6467 162.775 18.1H165.755C165.609 18.8733 165.295 19.5667 164.815 20.18C164.335 20.7933 163.715 21.2733 162.955 21.62C162.209 21.9667 161.375 22.14 160.455 22.14C159.375 22.14 158.415 21.9133 157.575 21.46C156.735 20.9933 156.082 20.3333 155.615 19.48C155.149 18.6267 154.915 17.62 154.915 16.46C154.915 15.3 155.149 14.2933 155.615 13.44C156.082 12.5733 156.735 11.9133 157.575 11.46C158.415 11.0067 159.375 10.78 160.455 10.78C161.549 10.78 162.502 11.0067 163.315 11.46C164.142 11.9133 164.775 12.54 165.215 13.34C165.669 14.1267 165.895 15.0267 165.895 16.04ZM163.055 15.76C163.095 14.8533 162.855 14.1667 162.335 13.7C161.829 13.2333 161.202 13 160.455 13C159.695 13 159.055 13.2333 158.535 13.7C158.015 14.1667 157.729 14.8533 157.675 15.76H163.055ZM172.237 10.78C173.171 10.78 173.971 11 174.637 11.44C175.304 11.88 175.777 12.4733 176.057 13.22V10.92H178.857V22H176.057V19.68C175.777 20.4267 175.304 21.0267 174.637 21.48C173.971 21.92 173.171 22.14 172.237 22.14C171.304 22.14 170.464 21.9133 169.717 21.46C168.971 21.0067 168.384 20.3533 167.957 19.5C167.544 18.6333 167.337 17.62 167.337 16.46C167.337 15.3 167.544 14.2933 167.957 13.44C168.384 12.5733 168.971 11.9133 169.717 11.46C170.464 11.0067 171.304 10.78 172.237 10.78ZM173.117 13.24C172.237 13.24 171.531 13.5267 170.997 14.1C170.464 14.6733 170.197 15.46 170.197 16.46C170.197 17.46 170.464 18.2467 170.997 18.82C171.531 19.38 172.237 19.66 173.117 19.66C173.971 19.66 174.671 19.3733 175.217 18.8C175.777 18.2133 176.057 17.4333 176.057 16.46C176.057 15.4733 175.777 14.6933 175.217 14.12C174.671 13.5333 173.971 13.24 173.117 13.24ZM185.753 10.78C186.686 10.78 187.479 11 188.133 11.44C188.799 11.88 189.279 12.4733 189.573 13.22V7.2H192.373V22H189.573V19.68C189.279 20.4267 188.799 21.0267 188.133 21.48C187.479 21.92 186.686 22.14 185.753 22.14C184.819 22.14 183.979 21.9133 183.233 21.46C182.486 21.0067 181.899 20.3533 181.473 19.5C181.059 18.6333 180.853 17.62 180.853 16.46C180.853 15.3 181.059 14.2933 181.473 13.44C181.899 12.5733 182.486 11.9133 183.233 11.46C183.979 11.0067 184.819 10.78 185.753 10.78ZM186.633 13.24C185.753 13.24 185.046 13.5267 184.513 14.1C183.979 14.6733 183.713 15.46 183.713 16.46C183.713 17.46 183.979 18.2467 184.513 18.82C185.046 19.38 185.753 19.66 186.633 19.66C187.486 19.66 188.186 19.3733 188.733 18.8C189.293 18.2133 189.573 17.4333 189.573 16.46C189.573 15.4733 189.293 14.6933 188.733 14.12C188.186 13.5333 187.486 13.24 186.633 13.24ZM198.748 10.78C200.095 10.78 201.175 11.12 201.988 11.8C202.802 12.48 203.308 13.3867 203.508 14.52H200.868C200.762 13.9867 200.522 13.56 200.148 13.24C199.775 12.92 199.288 12.76 198.688 12.76C198.208 12.76 197.835 12.8733 197.568 13.1C197.302 13.3267 197.168 13.6333 197.168 14.02C197.168 14.3267 197.275 14.5733 197.488 14.76C197.702 14.9467 197.968 15.0933 198.288 15.2C198.608 15.3067 199.068 15.4333 199.668 15.58C200.508 15.7667 201.188 15.9667 201.708 16.18C202.242 16.38 202.695 16.7067 203.068 17.16C203.455 17.6 203.648 18.2 203.648 18.96C203.648 19.9067 203.275 20.6733 202.528 21.26C201.795 21.8467 200.802 22.14 199.548 22.14C198.108 22.14 196.955 21.82 196.088 21.18C195.222 20.5267 194.695 19.6 194.508 18.4H197.208C197.275 18.9467 197.515 19.38 197.928 19.7C198.342 20.0067 198.882 20.16 199.548 20.16C200.028 20.16 200.395 20.0467 200.648 19.82C200.902 19.58 201.028 19.2733 201.028 18.9C201.028 18.58 200.915 18.32 200.688 18.12C200.475 17.92 200.202 17.7667 199.868 17.66C199.548 17.5533 199.088 17.4267 198.488 17.28C197.662 17.0933 196.988 16.9067 196.468 16.72C195.962 16.52 195.522 16.2067 195.148 15.78C194.788 15.3533 194.608 14.7667 194.608 14.02C194.608 13.06 194.975 12.28 195.708 11.68C196.442 11.08 197.455 10.78 198.748 10.78Z" fill="#070F18"/>
</svg>
