<svg width="300" height="106" viewBox="0 0 300 106" fill="none" xmlns="http://www.w3.org/2000/svg">
<path d="M99.04 52.72L96.176 64H94.4L91.792 54.784L89.184 64H87.408L84.528 52.72H86.144L88.304 62.304L90.976 52.72H92.592L95.264 62.272L97.44 52.72H99.04ZM104.73 55.104C105.573 55.104 106.325 55.2853 106.986 55.648C107.658 56.0107 108.181 56.5333 108.554 57.216C108.938 57.8987 109.13 58.6987 109.13 59.616C109.13 60.5333 108.938 61.3333 108.554 62.016C108.181 62.688 107.658 63.2053 106.986 63.568C106.325 63.9307 105.573 64.112 104.73 64.112C103.887 64.112 103.13 63.9307 102.458 63.568C101.797 63.2053 101.274 62.688 100.89 62.016C100.506 61.3333 100.314 60.5333 100.314 59.616C100.314 58.6987 100.506 57.8987 100.89 57.216C101.274 56.5333 101.797 56.0107 102.458 55.648C103.13 55.2853 103.887 55.104 104.73 55.104ZM104.73 56.384C104.207 56.384 103.722 56.5013 103.274 56.736C102.837 56.9707 102.479 57.3333 102.202 57.824C101.935 58.304 101.802 58.9013 101.802 59.616C101.802 60.32 101.935 60.9173 102.202 61.408C102.479 61.888 102.837 62.2453 103.274 62.48C103.722 62.7147 104.207 62.832 104.73 62.832C105.253 62.832 105.733 62.7147 106.17 62.48C106.618 62.2453 106.975 61.888 107.242 61.408C107.519 60.9173 107.658 60.32 107.658 59.616C107.658 58.9013 107.519 58.304 107.242 57.824C106.975 57.3333 106.618 56.9707 106.17 56.736C105.733 56.5013 105.253 56.384 104.73 56.384ZM112.483 56.992C112.771 56.384 113.193 55.9147 113.747 55.584C114.302 55.2427 114.963 55.072 115.731 55.072V56.656H115.283C114.462 56.656 113.79 56.8693 113.267 57.296C112.745 57.712 112.483 58.4053 112.483 59.376V64H111.027V55.216H112.483V56.992ZM121.984 64L118.624 60.048V64H117.168V52.16H118.624V59.04L121.936 55.216H123.712L119.776 59.584L123.808 64H121.984ZM124.834 52.64C124.834 52.3733 124.925 52.16 125.106 52C125.287 51.8293 125.527 51.744 125.826 51.744C126.125 51.744 126.365 51.8293 126.546 52C126.727 52.16 126.818 52.3733 126.818 52.64C126.818 52.9067 126.727 53.1253 126.546 53.296C126.365 53.456 126.125 53.536 125.826 53.536C125.527 53.536 125.287 53.456 125.106 53.296C124.925 53.1253 124.834 52.9067 124.834 52.64ZM126.546 55.216V64H125.09V55.216H126.546ZM133.511 55.072C134.535 55.072 135.361 55.4027 135.991 56.064C136.62 56.7147 136.935 57.6587 136.935 58.896V64H135.479V59.024C135.479 58.1493 135.255 57.4773 134.807 57.008C134.359 56.5387 133.751 56.304 132.983 56.304C132.183 56.304 131.543 56.5653 131.063 57.088C130.583 57.6 130.343 58.352 130.343 59.344V64H128.887V55.216H130.343V57.296C130.567 56.5813 130.961 56.032 131.527 55.648C132.103 55.264 132.764 55.072 133.511 55.072ZM142.768 55.104C143.621 55.104 144.341 55.3173 144.928 55.744C145.525 56.1707 145.941 56.7413 146.176 57.456V55.216H147.632V64.144C147.632 64.9547 147.461 65.6747 147.12 66.304C146.779 66.9333 146.299 67.424 145.68 67.776C145.061 68.128 144.341 68.304 143.52 68.304C142.336 68.304 141.371 68.016 140.624 67.44C139.877 66.8747 139.403 66.1067 139.2 65.136H140.64C140.811 65.7227 141.131 66.1813 141.6 66.512C142.08 66.8533 142.693 67.024 143.44 67.024C144.229 67.024 144.88 66.768 145.392 66.256C145.915 65.7547 146.176 65.0507 146.176 64.144V61.76C145.941 62.4747 145.525 63.0453 144.928 63.472C144.341 63.8987 143.621 64.112 142.768 64.112C141.989 64.112 141.296 63.9307 140.688 63.568C140.08 63.2053 139.6 62.688 139.248 62.016C138.907 61.3333 138.736 60.5333 138.736 59.616C138.736 58.6987 138.907 57.8987 139.248 57.216C139.6 56.5333 140.08 56.0107 140.688 55.648C141.296 55.2853 141.989 55.104 142.768 55.104ZM143.184 56.4C142.288 56.4 141.568 56.688 141.024 57.264C140.491 57.8293 140.224 58.6133 140.224 59.616C140.224 60.6187 140.491 61.408 141.024 61.984C141.568 62.5493 142.288 62.832 143.184 62.832C143.76 62.832 144.272 62.6987 144.72 62.432C145.179 62.1653 145.536 61.792 145.792 61.312C146.048 60.8213 146.176 60.256 146.176 59.616C146.176 58.976 146.048 58.4107 145.792 57.92C145.536 57.4293 145.179 57.056 144.72 56.8C144.272 56.5333 143.76 56.4 143.184 56.4ZM158.094 62.72V64H157.006C156.11 64 155.438 63.7867 154.99 63.36C154.553 62.9333 154.334 62.2187 154.334 61.216V56.48H153.022V55.216H154.334V53.024H155.806V55.216H158.078V56.48H155.806V61.248C155.806 61.8133 155.908 62.2027 156.11 62.416C156.324 62.6187 156.686 62.72 157.198 62.72H158.094ZM163.855 55.104C164.698 55.104 165.45 55.2853 166.111 55.648C166.783 56.0107 167.306 56.5333 167.679 57.216C168.063 57.8987 168.255 58.6987 168.255 59.616C168.255 60.5333 168.063 61.3333 167.679 62.016C167.306 62.688 166.783 63.2053 166.111 63.568C165.45 63.9307 164.698 64.112 163.855 64.112C163.012 64.112 162.255 63.9307 161.583 63.568C160.922 63.2053 160.399 62.688 160.015 62.016C159.631 61.3333 159.439 60.5333 159.439 59.616C159.439 58.6987 159.631 57.8987 160.015 57.216C160.399 56.5333 160.922 56.0107 161.583 55.648C162.255 55.2853 163.012 55.104 163.855 55.104ZM163.855 56.384C163.332 56.384 162.847 56.5013 162.399 56.736C161.962 56.9707 161.604 57.3333 161.327 57.824C161.06 58.304 160.927 58.9013 160.927 59.616C160.927 60.32 161.06 60.9173 161.327 61.408C161.604 61.888 161.962 62.2453 162.399 62.48C162.847 62.7147 163.332 62.832 163.855 62.832C164.378 62.832 164.858 62.7147 165.295 62.48C165.743 62.2453 166.1 61.888 166.367 61.408C166.644 60.9173 166.783 60.32 166.783 59.616C166.783 58.9013 166.644 58.304 166.367 57.824C166.1 57.3333 165.743 56.9707 165.295 56.736C164.858 56.5013 164.378 56.384 163.855 56.384ZM173.752 55.104C174.606 55.104 175.326 55.3173 175.912 55.744C176.51 56.1707 176.926 56.7413 177.16 57.456V55.216H178.616V64.144C178.616 64.9547 178.446 65.6747 178.104 66.304C177.763 66.9333 177.283 67.424 176.664 67.776C176.046 68.128 175.326 68.304 174.504 68.304C173.32 68.304 172.355 68.016 171.608 67.44C170.862 66.8747 170.387 66.1067 170.184 65.136H171.624C171.795 65.7227 172.115 66.1813 172.584 66.512C173.064 66.8533 173.678 67.024 174.424 67.024C175.214 67.024 175.864 66.768 176.376 66.256C176.899 65.7547 177.16 65.0507 177.16 64.144V61.76C176.926 62.4747 176.51 63.0453 175.912 63.472C175.326 63.8987 174.606 64.112 173.752 64.112C172.974 64.112 172.28 63.9307 171.672 63.568C171.064 63.2053 170.584 62.688 170.232 62.016C169.891 61.3333 169.72 60.5333 169.72 59.616C169.72 58.6987 169.891 57.8987 170.232 57.216C170.584 56.5333 171.064 56.0107 171.672 55.648C172.28 55.2853 172.974 55.104 173.752 55.104ZM174.168 56.4C173.272 56.4 172.552 56.688 172.008 57.264C171.475 57.8293 171.208 58.6133 171.208 59.616C171.208 60.6187 171.475 61.408 172.008 61.984C172.552 62.5493 173.272 62.832 174.168 62.832C174.744 62.832 175.256 62.6987 175.704 62.432C176.163 62.1653 176.52 61.792 176.776 61.312C177.032 60.8213 177.16 60.256 177.16 59.616C177.16 58.976 177.032 58.4107 176.776 57.92C176.52 57.4293 176.163 57.056 175.704 56.8C175.256 56.5333 174.744 56.4 174.168 56.4ZM189.014 59.12C189.014 59.4293 188.992 59.696 188.95 59.92H181.926C181.958 60.9227 182.24 61.6747 182.774 62.176C183.318 62.6773 183.979 62.928 184.758 62.928C185.462 62.928 186.048 62.752 186.518 62.4C186.998 62.0373 187.291 61.5573 187.398 60.96H188.95C188.843 61.568 188.603 62.112 188.23 62.592C187.867 63.072 187.392 63.4453 186.806 63.712C186.219 63.9787 185.558 64.112 184.822 64.112C183.979 64.112 183.232 63.9307 182.582 63.568C181.931 63.2053 181.419 62.688 181.046 62.016C180.683 61.3333 180.502 60.5333 180.502 59.616C180.502 58.6987 180.683 57.8987 181.046 57.216C181.419 56.5333 181.931 56.0107 182.582 55.648C183.232 55.2853 183.979 55.104 184.822 55.104C185.675 55.104 186.416 55.2853 187.046 55.648C187.686 56.0107 188.171 56.496 188.502 57.104C188.843 57.712 189.014 58.384 189.014 59.12ZM187.542 59.216C187.574 58.5653 187.467 58.0213 187.222 57.584C186.976 57.1467 186.64 56.8213 186.214 56.608C185.787 56.3947 185.323 56.288 184.822 56.288C184.022 56.288 183.35 56.5387 182.806 57.04C182.262 57.5307 181.968 58.256 181.926 59.216H187.542ZM195.11 62.72V64H194.022C193.126 64 192.454 63.7867 192.006 63.36C191.569 62.9333 191.35 62.2187 191.35 61.216V56.48H190.038V55.216H191.35V53.024H192.822V55.216H195.094V56.48H192.822V61.248C192.822 61.8133 192.923 62.2027 193.126 62.416C193.339 62.6187 193.702 62.72 194.214 62.72H195.11ZM201.511 55.072C202.535 55.072 203.361 55.4027 203.991 56.064C204.62 56.7147 204.935 57.6587 204.935 58.896V64H203.479V59.024C203.479 58.1493 203.255 57.4773 202.807 57.008C202.359 56.5387 201.751 56.304 200.983 56.304C200.183 56.304 199.543 56.5653 199.063 57.088C198.583 57.6 198.343 58.352 198.343 59.344V64H196.887V52.16H198.343V57.296C198.567 56.5813 198.961 56.032 199.527 55.648C200.103 55.264 200.764 55.072 201.511 55.072ZM215.248 59.12C215.248 59.4293 215.227 59.696 215.184 59.92H208.16C208.192 60.9227 208.475 61.6747 209.008 62.176C209.552 62.6773 210.213 62.928 210.992 62.928C211.696 62.928 212.283 62.752 212.752 62.4C213.232 62.0373 213.525 61.5573 213.632 60.96H215.184C215.077 61.568 214.837 62.112 214.464 62.592C214.101 63.072 213.627 63.4453 213.04 63.712C212.453 63.9787 211.792 64.112 211.056 64.112C210.213 64.112 209.467 63.9307 208.816 63.568C208.165 63.2053 207.653 62.688 207.28 62.016C206.917 61.3333 206.736 60.5333 206.736 59.616C206.736 58.6987 206.917 57.8987 207.28 57.216C207.653 56.5333 208.165 56.0107 208.816 55.648C209.467 55.2853 210.213 55.104 211.056 55.104C211.909 55.104 212.651 55.2853 213.28 55.648C213.92 56.0107 214.405 56.496 214.736 57.104C215.077 57.712 215.248 58.384 215.248 59.12ZM213.776 59.216C213.808 58.5653 213.701 58.0213 213.456 57.584C213.211 57.1467 212.875 56.8213 212.448 56.608C212.021 56.3947 211.557 56.288 211.056 56.288C210.256 56.288 209.584 56.5387 209.04 57.04C208.496 57.5307 208.203 58.256 208.16 59.216H213.776ZM218.608 56.992C218.896 56.384 219.318 55.9147 219.872 55.584C220.427 55.2427 221.088 55.072 221.856 55.072V56.656H221.408C220.587 56.656 219.915 56.8693 219.392 57.296C218.87 57.712 218.608 58.4053 218.608 59.376V64H217.152V55.216H218.608V56.992ZM239.31 55.216L236.782 64H235.214L232.798 56.848L230.366 64H228.782L226.286 55.216H227.758L229.63 62.608L232.062 55.216H233.582L236.03 62.592L237.918 55.216H239.31ZM240.412 52.64C240.412 52.3733 240.503 52.16 240.684 52C240.865 51.8293 241.105 51.744 241.404 51.744C241.703 51.744 241.943 51.8293 242.124 52C242.305 52.16 242.396 52.3733 242.396 52.64C242.396 52.9067 242.305 53.1253 242.124 53.296C241.943 53.456 241.703 53.536 241.404 53.536C241.105 53.536 240.865 53.456 240.684 53.296C240.503 53.1253 240.412 52.9067 240.412 52.64ZM242.124 55.216V64H240.668V55.216H242.124ZM248.657 62.72V64H247.569C246.673 64 246.001 63.7867 245.553 63.36C245.116 62.9333 244.897 62.2187 244.897 61.216V56.48H243.585V55.216H244.897V53.024H246.369V55.216H248.641V56.48H246.369V61.248C246.369 61.8133 246.47 62.2027 246.673 62.416C246.886 62.6187 247.249 62.72 247.761 62.72H248.657ZM255.058 55.072C256.082 55.072 256.908 55.4027 257.538 56.064C258.167 56.7147 258.482 57.6587 258.482 58.896V64H257.026V59.024C257.026 58.1493 256.802 57.4773 256.354 57.008C255.906 56.5387 255.298 56.304 254.53 56.304C253.73 56.304 253.09 56.5653 252.61 57.088C252.13 57.6 251.89 58.352 251.89 59.344V64H250.434V52.16H251.89V57.296C252.114 56.5813 252.508 56.032 253.074 55.648C253.65 55.264 254.311 55.072 255.058 55.072ZM265.276 55.216L268.124 62.128L270.764 55.216H272.38L267.164 68.16H265.516L267.34 63.856L263.644 55.216H265.276ZM277.699 55.104C278.542 55.104 279.294 55.2853 279.955 55.648C280.627 56.0107 281.15 56.5333 281.523 57.216C281.907 57.8987 282.099 58.6987 282.099 59.616C282.099 60.5333 281.907 61.3333 281.523 62.016C281.15 62.688 280.627 63.2053 279.955 63.568C279.294 63.9307 278.542 64.112 277.699 64.112C276.856 64.112 276.099 63.9307 275.427 63.568C274.766 63.2053 274.243 62.688 273.859 62.016C273.475 61.3333 273.283 60.5333 273.283 59.616C273.283 58.6987 273.475 57.8987 273.859 57.216C274.243 56.5333 274.766 56.0107 275.427 55.648C276.099 55.2853 276.856 55.104 277.699 55.104ZM277.699 56.384C277.176 56.384 276.691 56.5013 276.243 56.736C275.806 56.9707 275.448 57.3333 275.171 57.824C274.904 58.304 274.771 58.9013 274.771 59.616C274.771 60.32 274.904 60.9173 275.171 61.408C275.448 61.888 275.806 62.2453 276.243 62.48C276.691 62.7147 277.176 62.832 277.699 62.832C278.222 62.832 278.702 62.7147 279.139 62.48C279.587 62.2453 279.944 61.888 280.211 61.408C280.488 60.9173 280.627 60.32 280.627 59.616C280.627 58.9013 280.488 58.304 280.211 57.824C279.944 57.3333 279.587 56.9707 279.139 56.736C278.702 56.5013 278.222 56.384 277.699 56.384ZM291.804 55.216V64H290.348V61.936C290.124 62.6507 289.724 63.2 289.148 63.584C288.583 63.9573 287.921 64.144 287.164 64.144C286.151 64.144 285.329 63.8187 284.7 63.168C284.071 62.5067 283.756 61.5627 283.756 60.336V55.216H285.212V60.192C285.212 61.0667 285.436 61.744 285.884 62.224C286.332 62.6933 286.94 62.928 287.708 62.928C288.508 62.928 289.148 62.672 289.628 62.16C290.108 61.6373 290.348 60.88 290.348 59.888V55.216H291.804ZM295.593 56.992C295.881 56.384 296.302 55.9147 296.857 55.584C297.411 55.2427 298.073 55.072 298.841 55.072V56.656H298.393C297.571 56.656 296.899 56.8693 296.377 57.296C295.854 57.712 295.593 58.4053 295.593 59.376V64H294.137V55.216H295.593V56.992ZM89.36 94.72V96H88.272C87.376 96 86.704 95.7867 86.256 95.36C85.8187 94.9333 85.6 94.2187 85.6 93.216V88.48H84.288V87.216H85.6V85.024H87.072V87.216H89.344V88.48H87.072V93.248C87.072 93.8133 87.1733 94.2027 87.376 94.416C87.5893 94.6187 87.952 94.72 88.464 94.72H89.36ZM99.2168 91.12C99.2168 91.4293 99.1954 91.696 99.1528 91.92H92.1288C92.1608 92.9227 92.4434 93.6747 92.9768 94.176C93.5208 94.6773 94.1821 94.928 94.9608 94.928C95.6648 94.928 96.2514 94.752 96.7208 94.4C97.2008 94.0373 97.4941 93.5573 97.6008 92.96H99.1528C99.0461 93.568 98.8061 94.112 98.4328 94.592C98.0701 95.072 97.5954 95.4453 97.0088 95.712C96.4221 95.9787 95.7608 96.112 95.0248 96.112C94.1821 96.112 93.4354 95.9307 92.7848 95.568C92.1341 95.2053 91.6221 94.688 91.2488 94.016C90.8861 93.3333 90.7048 92.5333 90.7048 91.616C90.7048 90.6987 90.8861 89.8987 91.2488 89.216C91.6221 88.5333 92.1341 88.0107 92.7848 87.648C93.4354 87.2853 94.1821 87.104 95.0248 87.104C95.8781 87.104 96.6194 87.2853 97.2488 87.648C97.8888 88.0107 98.3741 88.496 98.7048 89.104C99.0461 89.712 99.2168 90.384 99.2168 91.12ZM97.7448 91.216C97.7768 90.5653 97.6701 90.0213 97.4248 89.584C97.1794 89.1467 96.8434 88.8213 96.4168 88.608C95.9901 88.3947 95.5261 88.288 95.0248 88.288C94.2248 88.288 93.5528 88.5387 93.0088 89.04C92.4648 89.5307 92.1714 90.256 92.1288 91.216H97.7448ZM104.721 87.104C105.574 87.104 106.294 87.3173 106.881 87.744C107.478 88.1707 107.894 88.7413 108.129 89.456V87.216H109.585V96H108.129V93.76C107.894 94.4747 107.478 95.0453 106.881 95.472C106.294 95.8987 105.574 96.112 104.721 96.112C103.942 96.112 103.249 95.9307 102.641 95.568C102.033 95.2053 101.553 94.688 101.201 94.016C100.86 93.3333 100.689 92.5333 100.689 91.616C100.689 90.6987 100.86 89.8987 101.201 89.216C101.553 88.5333 102.033 88.0107 102.641 87.648C103.249 87.2853 103.942 87.104 104.721 87.104ZM105.137 88.4C104.241 88.4 103.521 88.688 102.977 89.264C102.444 89.8293 102.177 90.6133 102.177 91.616C102.177 92.6187 102.444 93.408 102.977 93.984C103.521 94.5493 104.241 94.832 105.137 94.832C105.713 94.832 106.225 94.6987 106.673 94.432C107.132 94.1653 107.489 93.792 107.745 93.312C108.001 92.8213 108.129 92.256 108.129 91.616C108.129 90.976 108.001 90.4107 107.745 89.92C107.489 89.4293 107.132 89.056 106.673 88.8C106.225 88.5333 105.713 88.4 105.137 88.4ZM122.702 87.072C123.726 87.072 124.548 87.4027 125.166 88.064C125.796 88.7147 126.11 89.6587 126.11 90.896V96H124.654V91.024C124.654 90.16 124.441 89.4987 124.014 89.04C123.598 88.5813 123.022 88.352 122.286 88.352C121.518 88.352 120.9 88.608 120.43 89.12C119.972 89.6213 119.742 90.3627 119.742 91.344V96H118.286V91.024C118.286 90.16 118.073 89.4987 117.646 89.04C117.22 88.5813 116.644 88.352 115.918 88.352C115.14 88.352 114.516 88.608 114.046 89.12C113.588 89.6213 113.358 90.3627 113.358 91.344V96H111.902V87.216H113.358V89.216C113.572 88.5227 113.95 87.9947 114.494 87.632C115.049 87.2587 115.684 87.072 116.398 87.072C117.145 87.072 117.79 87.264 118.334 87.648C118.889 88.0213 119.284 88.576 119.518 89.312C119.764 88.5973 120.174 88.048 120.75 87.664C121.326 87.2693 121.977 87.072 122.702 87.072ZM136.516 94.72V96H135.428C134.532 96 133.86 95.7867 133.412 95.36C132.975 94.9333 132.756 94.2187 132.756 93.216V88.48H131.444V87.216H132.756V85.024H134.228V87.216H136.5V88.48H134.228V93.248C134.228 93.8133 134.33 94.2027 134.532 94.416C134.746 94.6187 135.108 94.72 135.62 94.72H136.516ZM142.277 87.104C143.12 87.104 143.872 87.2853 144.533 87.648C145.205 88.0107 145.728 88.5333 146.101 89.216C146.485 89.8987 146.677 90.6987 146.677 91.616C146.677 92.5333 146.485 93.3333 146.101 94.016C145.728 94.688 145.205 95.2053 144.533 95.568C143.872 95.9307 143.12 96.112 142.277 96.112C141.434 96.112 140.677 95.9307 140.005 95.568C139.344 95.2053 138.821 94.688 138.437 94.016C138.053 93.3333 137.861 92.5333 137.861 91.616C137.861 90.6987 138.053 89.8987 138.437 89.216C138.821 88.5333 139.344 88.0107 140.005 87.648C140.677 87.2853 141.434 87.104 142.277 87.104ZM142.277 88.384C141.754 88.384 141.269 88.5013 140.821 88.736C140.384 88.9707 140.026 89.3333 139.749 89.824C139.482 90.304 139.349 90.9013 139.349 91.616C139.349 92.32 139.482 92.9173 139.749 93.408C140.026 93.888 140.384 94.2453 140.821 94.48C141.269 94.7147 141.754 94.832 142.277 94.832C142.8 94.832 143.28 94.7147 143.717 94.48C144.165 94.2453 144.522 93.888 144.789 93.408C145.066 92.9173 145.205 92.32 145.205 91.616C145.205 90.9013 145.066 90.304 144.789 89.824C144.522 89.3333 144.165 88.9707 143.717 88.736C143.28 88.5013 142.8 88.384 142.277 88.384ZM163.327 87.072C164.351 87.072 165.173 87.4027 165.791 88.064C166.421 88.7147 166.735 89.6587 166.735 90.896V96H165.279V91.024C165.279 90.16 165.066 89.4987 164.639 89.04C164.223 88.5813 163.647 88.352 162.911 88.352C162.143 88.352 161.525 88.608 161.055 89.12C160.597 89.6213 160.367 90.3627 160.367 91.344V96H158.911V91.024C158.911 90.16 158.698 89.4987 158.271 89.04C157.845 88.5813 157.269 88.352 156.543 88.352C155.765 88.352 155.141 88.608 154.671 89.12C154.213 89.6213 153.983 90.3627 153.983 91.344V96H152.527V87.216H153.983V89.216C154.197 88.5227 154.575 87.9947 155.119 87.632C155.674 87.2587 156.309 87.072 157.023 87.072C157.77 87.072 158.415 87.264 158.959 87.648C159.514 88.0213 159.909 88.576 160.143 89.312C160.389 88.5973 160.799 88.048 161.375 87.664C161.951 87.2693 162.602 87.072 163.327 87.072ZM172.596 87.104C173.449 87.104 174.169 87.3173 174.756 87.744C175.353 88.1707 175.769 88.7413 176.004 89.456V87.216H177.46V96H176.004V93.76C175.769 94.4747 175.353 95.0453 174.756 95.472C174.169 95.8987 173.449 96.112 172.596 96.112C171.817 96.112 171.124 95.9307 170.516 95.568C169.908 95.2053 169.428 94.688 169.076 94.016C168.735 93.3333 168.564 92.5333 168.564 91.616C168.564 90.6987 168.735 89.8987 169.076 89.216C169.428 88.5333 169.908 88.0107 170.516 87.648C171.124 87.2853 171.817 87.104 172.596 87.104ZM173.012 88.4C172.116 88.4 171.396 88.688 170.852 89.264C170.319 89.8293 170.052 90.6133 170.052 91.616C170.052 92.6187 170.319 93.408 170.852 93.984C171.396 94.5493 172.116 94.832 173.012 94.832C173.588 94.832 174.1 94.6987 174.548 94.432C175.007 94.1653 175.364 93.792 175.62 93.312C175.876 92.8213 176.004 92.256 176.004 91.616C176.004 90.976 175.876 90.4107 175.62 89.92C175.364 89.4293 175.007 89.056 174.548 88.8C174.1 88.5333 173.588 88.4 173.012 88.4ZM184.593 96L181.233 92.048V96H179.777V84.16H181.233V91.04L184.545 87.216H186.321L182.385 91.584L186.417 96H184.593ZM195.779 91.12C195.779 91.4293 195.758 91.696 195.715 91.92H188.691C188.723 92.9227 189.006 93.6747 189.539 94.176C190.083 94.6773 190.745 94.928 191.523 94.928C192.227 94.928 192.814 94.752 193.283 94.4C193.763 94.0373 194.057 93.5573 194.163 92.96H195.715C195.609 93.568 195.369 94.112 194.995 94.592C194.633 95.072 194.158 95.4453 193.571 95.712C192.985 95.9787 192.323 96.112 191.587 96.112C190.745 96.112 189.998 95.9307 189.347 95.568C188.697 95.2053 188.185 94.688 187.811 94.016C187.449 93.3333 187.267 92.5333 187.267 91.616C187.267 90.6987 187.449 89.8987 187.811 89.216C188.185 88.5333 188.697 88.0107 189.347 87.648C189.998 87.2853 190.745 87.104 191.587 87.104C192.441 87.104 193.182 87.2853 193.811 87.648C194.451 88.0107 194.937 88.496 195.267 89.104C195.609 89.712 195.779 90.384 195.779 91.12ZM194.307 91.216C194.339 90.5653 194.233 90.0213 193.987 89.584C193.742 89.1467 193.406 88.8213 192.979 88.608C192.553 88.3947 192.089 88.288 191.587 88.288C190.787 88.288 190.115 88.5387 189.571 89.04C189.027 89.5307 188.734 90.256 188.691 91.216H194.307ZM205.237 87.104C206.09 87.104 206.81 87.3173 207.397 87.744C207.994 88.1707 208.41 88.7413 208.645 89.456V84.16H210.101V96H208.645V93.76C208.41 94.4747 207.994 95.0453 207.397 95.472C206.81 95.8987 206.09 96.112 205.237 96.112C204.458 96.112 203.765 95.9307 203.157 95.568C202.549 95.2053 202.069 94.688 201.717 94.016C201.375 93.3333 201.205 92.5333 201.205 91.616C201.205 90.6987 201.375 89.8987 201.717 89.216C202.069 88.5333 202.549 88.0107 203.157 87.648C203.765 87.2853 204.458 87.104 205.237 87.104ZM205.653 88.4C204.757 88.4 204.037 88.688 203.493 89.264C202.959 89.8293 202.693 90.6133 202.693 91.616C202.693 92.6187 202.959 93.408 203.493 93.984C204.037 94.5493 204.757 94.832 205.653 94.832C206.229 94.832 206.741 94.6987 207.189 94.432C207.647 94.1653 208.005 93.792 208.261 93.312C208.517 92.8213 208.645 92.256 208.645 91.616C208.645 90.976 208.517 90.4107 208.261 89.92C208.005 89.4293 207.647 89.056 207.189 88.8C206.741 88.5333 206.229 88.4 205.653 88.4ZM220.498 91.12C220.498 91.4293 220.477 91.696 220.434 91.92H213.41C213.442 92.9227 213.725 93.6747 214.258 94.176C214.802 94.6773 215.463 94.928 216.242 94.928C216.946 94.928 217.533 94.752 218.002 94.4C218.482 94.0373 218.775 93.5573 218.882 92.96H220.434C220.327 93.568 220.087 94.112 219.714 94.592C219.351 95.072 218.877 95.4453 218.29 95.712C217.703 95.9787 217.042 96.112 216.306 96.112C215.463 96.112 214.717 95.9307 214.066 95.568C213.415 95.2053 212.903 94.688 212.53 94.016C212.167 93.3333 211.986 92.5333 211.986 91.616C211.986 90.6987 212.167 89.8987 212.53 89.216C212.903 88.5333 213.415 88.0107 214.066 87.648C214.717 87.2853 215.463 87.104 216.306 87.104C217.159 87.104 217.901 87.2853 218.53 87.648C219.17 88.0107 219.655 88.496 219.986 89.104C220.327 89.712 220.498 90.384 220.498 91.12ZM219.026 91.216C219.058 90.5653 218.951 90.0213 218.706 89.584C218.461 89.1467 218.125 88.8213 217.698 88.608C217.271 88.3947 216.807 88.288 216.306 88.288C215.506 88.288 214.834 88.5387 214.29 89.04C213.746 89.5307 213.453 90.256 213.41 91.216H219.026ZM226.29 87.104C227.41 87.104 228.338 87.4027 229.074 88C229.81 88.5973 230.264 89.3973 230.434 90.4H228.898C228.792 89.7707 228.498 89.28 228.018 88.928C227.549 88.5653 226.962 88.384 226.258 88.384C225.746 88.384 225.277 88.5013 224.85 88.736C224.434 88.9707 224.098 89.3333 223.842 89.824C223.586 90.304 223.458 90.9013 223.458 91.616C223.458 92.3307 223.586 92.9333 223.842 93.424C224.098 93.904 224.434 94.2613 224.85 94.496C225.277 94.7307 225.746 94.848 226.258 94.848C226.962 94.848 227.549 94.6667 228.018 94.304C228.498 93.9413 228.792 93.4453 228.898 92.816H230.434C230.264 93.8293 229.81 94.6347 229.074 95.232C228.338 95.8187 227.41 96.112 226.29 96.112C225.448 96.112 224.701 95.9307 224.05 95.568C223.4 95.2053 222.888 94.688 222.514 94.016C222.152 93.3333 221.97 92.5333 221.97 91.616C221.97 90.6987 222.152 89.8987 222.514 89.216C222.888 88.5333 223.4 88.0107 224.05 87.648C224.701 87.2853 225.448 87.104 226.29 87.104ZM232.084 84.64C232.084 84.3733 232.175 84.16 232.356 84C232.537 83.8293 232.777 83.744 233.076 83.744C233.375 83.744 233.615 83.8293 233.796 84C233.977 84.16 234.068 84.3733 234.068 84.64C234.068 84.9067 233.977 85.1253 233.796 85.296C233.615 85.456 233.375 85.536 233.076 85.536C232.777 85.536 232.537 85.456 232.356 85.296C232.175 85.1253 232.084 84.9067 232.084 84.64ZM233.796 87.216V96H232.34V87.216H233.796ZM238.889 87.104C239.881 87.104 240.675 87.3653 241.273 87.888C241.881 88.4 242.249 89.0933 242.377 89.968H240.985C240.921 89.4453 240.702 89.0187 240.329 88.688C239.966 88.3467 239.475 88.176 238.857 88.176C238.334 88.176 237.923 88.304 237.625 88.56C237.337 88.8053 237.193 89.1413 237.193 89.568C237.193 89.888 237.289 90.1493 237.481 90.352C237.683 90.544 237.929 90.6933 238.217 90.8C238.515 90.896 238.921 91.0027 239.433 91.12C240.083 91.2693 240.606 91.424 241.001 91.584C241.406 91.7333 241.747 91.9787 242.025 92.32C242.313 92.6613 242.457 93.12 242.457 93.696C242.457 94.4107 242.185 94.992 241.641 95.44C241.107 95.888 240.393 96.112 239.497 96.112C238.451 96.112 237.598 95.8613 236.937 95.36C236.275 94.8587 235.886 94.16 235.769 93.264H237.177C237.23 93.7973 237.459 94.2293 237.865 94.56C238.281 94.8907 238.825 95.056 239.497 95.056C239.998 95.056 240.387 94.928 240.665 94.672C240.953 94.416 241.097 94.08 241.097 93.664C241.097 93.3227 240.995 93.0507 240.793 92.848C240.59 92.6453 240.339 92.4907 240.041 92.384C239.742 92.2773 239.331 92.1653 238.809 92.048C238.158 91.8987 237.635 91.7493 237.241 91.6C236.857 91.4507 236.526 91.216 236.249 90.896C235.982 90.5653 235.849 90.1227 235.849 89.568C235.849 88.832 236.121 88.24 236.665 87.792C237.209 87.3333 237.95 87.104 238.889 87.104ZM244.146 84.64C244.146 84.3733 244.237 84.16 244.418 84C244.6 83.8293 244.84 83.744 245.138 83.744C245.437 83.744 245.677 83.8293 245.858 84C246.04 84.16 246.13 84.3733 246.13 84.64C246.13 84.9067 246.04 85.1253 245.858 85.296C245.677 85.456 245.437 85.536 245.138 85.536C244.84 85.536 244.6 85.456 244.418 85.296C244.237 85.1253 244.146 84.9067 244.146 84.64ZM245.858 87.216V96H244.402V87.216H245.858ZM252.183 87.104C253.026 87.104 253.778 87.2853 254.439 87.648C255.111 88.0107 255.634 88.5333 256.007 89.216C256.391 89.8987 256.583 90.6987 256.583 91.616C256.583 92.5333 256.391 93.3333 256.007 94.016C255.634 94.688 255.111 95.2053 254.439 95.568C253.778 95.9307 253.026 96.112 252.183 96.112C251.341 96.112 250.583 95.9307 249.911 95.568C249.25 95.2053 248.727 94.688 248.343 94.016C247.959 93.3333 247.767 92.5333 247.767 91.616C247.767 90.6987 247.959 89.8987 248.343 89.216C248.727 88.5333 249.25 88.0107 249.911 87.648C250.583 87.2853 251.341 87.104 252.183 87.104ZM252.183 88.384C251.661 88.384 251.175 88.5013 250.727 88.736C250.29 88.9707 249.933 89.3333 249.655 89.824C249.389 90.304 249.255 90.9013 249.255 91.616C249.255 92.32 249.389 92.9173 249.655 93.408C249.933 93.888 250.29 94.2453 250.727 94.48C251.175 94.7147 251.661 94.832 252.183 94.832C252.706 94.832 253.186 94.7147 253.623 94.48C254.071 94.2453 254.429 93.888 254.695 93.408C254.973 92.9173 255.111 92.32 255.111 91.616C255.111 90.9013 254.973 90.304 254.695 89.824C254.429 89.3333 254.071 88.9707 253.623 88.736C253.186 88.5013 252.706 88.384 252.183 88.384ZM263.105 87.072C264.129 87.072 264.955 87.4027 265.585 88.064C266.214 88.7147 266.529 89.6587 266.529 90.896V96H265.073V91.024C265.073 90.1493 264.849 89.4773 264.401 89.008C263.953 88.5387 263.345 88.304 262.577 88.304C261.777 88.304 261.137 88.5653 260.657 89.088C260.177 89.6 259.937 90.352 259.937 91.344V96H258.481V87.216H259.937V89.296C260.161 88.5813 260.555 88.032 261.121 87.648C261.697 87.264 262.358 87.072 263.105 87.072ZM271.514 87.104C272.506 87.104 273.3 87.3653 273.898 87.888C274.506 88.4 274.874 89.0933 275.002 89.968H273.61C273.546 89.4453 273.327 89.0187 272.954 88.688C272.591 88.3467 272.1 88.176 271.482 88.176C270.959 88.176 270.548 88.304 270.25 88.56C269.962 88.8053 269.818 89.1413 269.818 89.568C269.818 89.888 269.914 90.1493 270.106 90.352C270.308 90.544 270.554 90.6933 270.842 90.8C271.14 90.896 271.546 91.0027 272.058 91.12C272.708 91.2693 273.231 91.424 273.626 91.584C274.031 91.7333 274.372 91.9787 274.65 92.32C274.938 92.6613 275.082 93.12 275.082 93.696C275.082 94.4107 274.81 94.992 274.266 95.44C273.732 95.888 273.018 96.112 272.122 96.112C271.076 96.112 270.223 95.8613 269.562 95.36C268.9 94.8587 268.511 94.16 268.394 93.264H269.802C269.855 93.7973 270.084 94.2293 270.49 94.56C270.906 94.8907 271.45 95.056 272.122 95.056C272.623 95.056 273.012 94.928 273.29 94.672C273.578 94.416 273.722 94.08 273.722 93.664C273.722 93.3227 273.62 93.0507 273.418 92.848C273.215 92.6453 272.964 92.4907 272.666 92.384C272.367 92.2773 271.956 92.1653 271.434 92.048C270.783 91.8987 270.26 91.7493 269.866 91.6C269.482 91.4507 269.151 91.216 268.874 90.896C268.607 90.5653 268.474 90.1227 268.474 89.568C268.474 88.832 268.746 88.24 269.29 87.792C269.834 87.3333 270.575 87.104 271.514 87.104Z" fill="#575455"/>
<circle cx="30" cy="30" r="30" fill="#1F7CFF"/>
<path d="M38 25H22C20.8954 25 20 25.8954 20 27V37C20 38.1046 20.8954 39 22 39H38C39.1046 39 40 38.1046 40 37V27C40 25.8954 39.1046 25 38 25Z" stroke="white" stroke-width="2" stroke-linecap="round" stroke-linejoin="round"/>
<path d="M34 39V23C34 22.4696 33.7893 21.9609 33.4142 21.5858C33.0391 21.2107 32.5304 21 32 21H28C27.4696 21 26.9609 21.2107 26.5858 21.5858C26.2107 21.9609 26 22.4696 26 23V39" stroke="white" stroke-width="2" stroke-linecap="round" stroke-linejoin="round"/>
<path d="M94.98 18.14C94.98 18.86 94.8 19.5267 94.44 20.14C94.08 20.74 93.5467 21.2267 92.84 21.6C92.1333 21.96 91.2733 22.14 90.26 22.14C89.26 22.14 88.3667 21.9733 87.58 21.64C86.7933 21.2933 86.16 20.8 85.68 20.16C85.2133 19.52 84.9467 18.7733 84.88 17.92H87.88C87.9467 18.4933 88.1733 18.9733 88.56 19.36C88.96 19.7333 89.4867 19.92 90.14 19.92C90.7267 19.92 91.1733 19.7667 91.48 19.46C91.8 19.14 91.96 18.7333 91.96 18.24C91.96 17.8 91.8333 17.44 91.58 17.16C91.3267 16.8667 91.0067 16.6333 90.62 16.46C90.2333 16.2867 89.7 16.0867 89.02 15.86C88.14 15.5667 87.42 15.28 86.86 15C86.3 14.7067 85.82 14.2867 85.42 13.74C85.0333 13.1933 84.84 12.48 84.84 11.6C84.84 10.3867 85.2733 9.43333 86.14 8.74C87.02 8.03333 88.18 7.68 89.62 7.68C91.1133 7.68 92.3 8.04 93.18 8.76C94.0733 9.48 94.58 10.44 94.7 11.64H91.66C91.58 11.1333 91.3667 10.72 91.02 10.4C90.6733 10.0667 90.2 9.9 89.6 9.9C89.08 9.9 88.66 10.04 88.34 10.32C88.02 10.5867 87.86 10.98 87.86 11.5C87.86 11.9133 87.98 12.26 88.22 12.54C88.4733 12.8067 88.7867 13.0267 89.16 13.2C89.5467 13.3733 90.0667 13.5667 90.72 13.78C91.6267 14.1 92.36 14.4 92.92 14.68C93.4933 14.96 93.98 15.38 94.38 15.94C94.78 16.5 94.98 17.2333 94.98 18.14ZM103.657 10.76C104.937 10.76 105.957 11.18 106.717 12.02C107.477 12.86 107.857 14.04 107.857 15.56V22H105.057V15.88C105.057 15 104.831 14.32 104.377 13.84C103.924 13.3467 103.304 13.1 102.517 13.1C101.717 13.1 101.077 13.36 100.597 13.88C100.117 14.4 99.8773 15.1467 99.8773 16.12V22H97.0573V7.2H99.8773V13.14C100.171 12.3933 100.651 11.8133 101.317 11.4C101.997 10.9733 102.777 10.76 103.657 10.76ZM114.679 10.78C115.612 10.78 116.412 11 117.079 11.44C117.745 11.88 118.219 12.4733 118.499 13.22V10.92H121.299V22H118.499V19.68C118.219 20.4267 117.745 21.0267 117.079 21.48C116.412 21.92 115.612 22.14 114.679 22.14C113.745 22.14 112.905 21.9133 112.159 21.46C111.412 21.0067 110.825 20.3533 110.399 19.5C109.985 18.6333 109.779 17.62 109.779 16.46C109.779 15.3 109.985 14.2933 110.399 13.44C110.825 12.5733 111.412 11.9133 112.159 11.46C112.905 11.0067 113.745 10.78 114.679 10.78ZM115.559 13.24C114.679 13.24 113.972 13.5267 113.439 14.1C112.905 14.6733 112.639 15.46 112.639 16.46C112.639 17.46 112.905 18.2467 113.439 18.82C113.972 19.38 114.679 19.66 115.559 19.66C116.412 19.66 117.112 19.3733 117.659 18.8C118.219 18.2133 118.499 17.4333 118.499 16.46C118.499 15.4733 118.219 14.6933 117.659 14.12C117.112 13.5333 116.412 13.24 115.559 13.24ZM126.674 13.04C127.088 12.3333 127.634 11.78 128.314 11.38C128.994 10.9667 129.754 10.76 130.594 10.76V13.78H129.774C127.708 13.78 126.674 14.74 126.674 16.66V22H123.854V10.92H126.674V13.04ZM142.575 16.04C142.575 16.32 142.542 16.64 142.475 17H134.355C134.395 17.9867 134.662 18.7133 135.155 19.18C135.648 19.6467 136.262 19.88 136.995 19.88C137.648 19.88 138.188 19.72 138.615 19.4C139.055 19.08 139.335 18.6467 139.455 18.1H142.435C142.288 18.8733 141.975 19.5667 141.495 20.18C141.015 20.7933 140.395 21.2733 139.635 21.62C138.888 21.9667 138.055 22.14 137.135 22.14C136.055 22.14 135.095 21.9133 134.255 21.46C133.415 20.9933 132.762 20.3333 132.295 19.48C131.828 18.6267 131.595 17.62 131.595 16.46C131.595 15.3 131.828 14.2933 132.295 13.44C132.762 12.5733 133.415 11.9133 134.255 11.46C135.095 11.0067 136.055 10.78 137.135 10.78C138.228 10.78 139.182 11.0067 139.995 11.46C140.822 11.9133 141.455 12.54 141.895 13.34C142.348 14.1267 142.575 15.0267 142.575 16.04ZM139.735 15.76C139.775 14.8533 139.535 14.1667 139.015 13.7C138.508 13.2333 137.882 13 137.135 13C136.375 13 135.735 13.2333 135.215 13.7C134.695 14.1667 134.408 14.8533 134.355 15.76H139.735ZM151.752 7.88V22H148.932V7.88H151.752ZM160.903 10.76C162.183 10.76 163.203 11.18 163.963 12.02C164.723 12.86 165.103 14.04 165.103 15.56V22H162.303V15.88C162.303 15 162.077 14.32 161.623 13.84C161.17 13.3467 160.55 13.1 159.763 13.1C158.963 13.1 158.323 13.36 157.843 13.88C157.363 14.4 157.123 15.1467 157.123 16.12V22H154.303V10.92H157.123V13.14C157.417 12.3933 157.897 11.8133 158.563 11.4C159.243 10.9733 160.023 10.76 160.903 10.76ZM171.405 10.78C172.751 10.78 173.831 11.12 174.645 11.8C175.458 12.48 175.965 13.3867 176.165 14.52H173.525C173.418 13.9867 173.178 13.56 172.805 13.24C172.431 12.92 171.945 12.76 171.345 12.76C170.865 12.76 170.491 12.8733 170.225 13.1C169.958 13.3267 169.825 13.6333 169.825 14.02C169.825 14.3267 169.931 14.5733 170.145 14.76C170.358 14.9467 170.625 15.0933 170.945 15.2C171.265 15.3067 171.725 15.4333 172.325 15.58C173.165 15.7667 173.845 15.9667 174.365 16.18C174.898 16.38 175.351 16.7067 175.725 17.16C176.111 17.6 176.305 18.2 176.305 18.96C176.305 19.9067 175.931 20.6733 175.185 21.26C174.451 21.8467 173.458 22.14 172.205 22.14C170.765 22.14 169.611 21.82 168.745 21.18C167.878 20.5267 167.351 19.6 167.165 18.4H169.865C169.931 18.9467 170.171 19.38 170.585 19.7C170.998 20.0067 171.538 20.16 172.205 20.16C172.685 20.16 173.051 20.0467 173.305 19.82C173.558 19.58 173.685 19.2733 173.685 18.9C173.685 18.58 173.571 18.32 173.345 18.12C173.131 17.92 172.858 17.7667 172.525 17.66C172.205 17.5533 171.745 17.4267 171.145 17.28C170.318 17.0933 169.645 16.9067 169.125 16.72C168.618 16.52 168.178 16.2067 167.805 15.78C167.445 15.3533 167.265 14.7667 167.265 14.02C167.265 13.06 167.631 12.28 168.365 11.68C169.098 11.08 170.111 10.78 171.405 10.78ZM178.085 7.74C178.085 7.28667 178.245 6.92 178.565 6.64C178.885 6.34667 179.305 6.2 179.825 6.2C180.345 6.2 180.765 6.34667 181.085 6.64C181.405 6.92 181.565 7.28667 181.565 7.74C181.565 8.18 181.405 8.54667 181.085 8.84C180.765 9.12 180.345 9.26 179.825 9.26C179.305 9.26 178.885 9.12 178.565 8.84C178.245 8.54667 178.085 8.18 178.085 7.74ZM181.225 10.92V22H178.405V10.92H181.225ZM188.116 10.78C189.049 10.78 189.849 11 190.516 11.44C191.183 11.88 191.656 12.4733 191.936 13.22V10.92H194.736V22.04C194.736 23.0667 194.529 23.9867 194.116 24.8C193.716 25.6267 193.109 26.2733 192.296 26.74C191.496 27.2067 190.523 27.44 189.376 27.44C187.776 27.44 186.483 27.06 185.496 26.3C184.509 25.54 183.909 24.5067 183.696 23.2H186.476C186.636 23.76 186.943 24.1933 187.396 24.5C187.863 24.82 188.456 24.98 189.176 24.98C190.003 24.98 190.669 24.7333 191.176 24.24C191.683 23.76 191.936 23.0267 191.936 22.04V19.68C191.656 20.4267 191.183 21.0267 190.516 21.48C189.849 21.92 189.049 22.14 188.116 22.14C187.183 22.14 186.343 21.9133 185.596 21.46C184.849 21.0067 184.263 20.3533 183.836 19.5C183.423 18.6333 183.216 17.62 183.216 16.46C183.216 15.3 183.423 14.2933 183.836 13.44C184.263 12.5733 184.849 11.9133 185.596 11.46C186.343 11.0067 187.183 10.78 188.116 10.78ZM188.996 13.24C188.116 13.24 187.409 13.5267 186.876 14.1C186.343 14.6733 186.076 15.46 186.076 16.46C186.076 17.46 186.343 18.2467 186.876 18.82C187.409 19.38 188.116 19.66 188.996 19.66C189.849 19.66 190.549 19.3733 191.096 18.8C191.656 18.2133 191.936 17.4333 191.936 16.46C191.936 15.4733 191.656 14.6933 191.096 14.12C190.549 13.5333 189.849 13.24 188.996 13.24ZM203.892 10.76C205.172 10.76 206.192 11.18 206.952 12.02C207.712 12.86 208.092 14.04 208.092 15.56V22H205.292V15.88C205.292 15 205.065 14.32 204.612 13.84C204.158 13.3467 203.538 13.1 202.752 13.1C201.952 13.1 201.312 13.36 200.832 13.88C200.352 14.4 200.112 15.1467 200.112 16.12V22H197.292V7.2H200.112V13.14C200.405 12.3933 200.885 11.8133 201.552 11.4C202.232 10.9733 203.012 10.76 203.892 10.76ZM216.493 19.58V22H215.013C213.773 22 212.82 21.7 212.153 21.1C211.5 20.5 211.173 19.5 211.173 18.1V13.3H209.633V10.92H211.173V8.18H213.993V10.92H216.473V13.3H213.993V18.14C213.993 18.6733 214.1 19.0467 214.313 19.26C214.526 19.4733 214.886 19.58 215.393 19.58H216.493ZM222.342 10.78C223.689 10.78 224.769 11.12 225.582 11.8C226.396 12.48 226.902 13.3867 227.102 14.52H224.462C224.356 13.9867 224.116 13.56 223.742 13.24C223.369 12.92 222.882 12.76 222.282 12.76C221.802 12.76 221.429 12.8733 221.162 13.1C220.896 13.3267 220.762 13.6333 220.762 14.02C220.762 14.3267 220.869 14.5733 221.082 14.76C221.296 14.9467 221.562 15.0933 221.882 15.2C222.202 15.3067 222.662 15.4333 223.262 15.58C224.102 15.7667 224.782 15.9667 225.302 16.18C225.836 16.38 226.289 16.7067 226.662 17.16C227.049 17.6 227.242 18.2 227.242 18.96C227.242 19.9067 226.869 20.6733 226.122 21.26C225.389 21.8467 224.396 22.14 223.142 22.14C221.702 22.14 220.549 21.82 219.682 21.18C218.816 20.5267 218.289 19.6 218.102 18.4H220.802C220.869 18.9467 221.109 19.38 221.522 19.7C221.936 20.0067 222.476 20.16 223.142 20.16C223.622 20.16 223.989 20.0467 224.242 19.82C224.496 19.58 224.622 19.2733 224.622 18.9C224.622 18.58 224.509 18.32 224.282 18.12C224.069 17.92 223.796 17.7667 223.462 17.66C223.142 17.5533 222.682 17.4267 222.082 17.28C221.256 17.0933 220.582 16.9067 220.062 16.72C219.556 16.52 219.116 16.2067 218.742 15.78C218.382 15.3533 218.202 14.7667 218.202 14.02C218.202 13.06 218.569 12.28 219.302 11.68C220.036 11.08 221.049 10.78 222.342 10.78Z" fill="#070F18"/>
</svg>
