<svg width="276" height="106" viewBox="0 0 276 106" fill="none" xmlns="http://www.w3.org/2000/svg">
<path d="M90.336 52.576C91.3813 52.576 92.32 52.8213 93.152 53.312C93.9947 53.8027 94.656 54.4907 95.136 55.376C95.616 56.2507 95.856 57.2427 95.856 58.352C95.856 59.4613 95.616 60.4587 95.136 61.344C94.656 62.2187 93.9947 62.9013 93.152 63.392C92.32 63.8827 91.3813 64.128 90.336 64.128C89.2907 64.128 88.3413 63.8827 87.488 63.392C86.6453 62.9013 85.984 62.2187 85.504 61.344C85.024 60.4587 84.784 59.4613 84.784 58.352C84.784 57.2427 85.024 56.2507 85.504 55.376C85.984 54.4907 86.6453 53.8027 87.488 53.312C88.3413 52.8213 89.2907 52.576 90.336 52.576ZM90.336 53.936C89.5573 53.936 88.8587 54.1173 88.24 54.48C87.632 54.832 87.152 55.344 86.8 56.016C86.4587 56.6773 86.288 57.456 86.288 58.352C86.288 59.2373 86.4587 60.016 86.8 60.688C87.152 61.36 87.632 61.8773 88.24 62.24C88.8587 62.592 89.5573 62.768 90.336 62.768C91.104 62.768 91.792 62.5867 92.4 62.224C93.0187 61.8613 93.4987 61.3493 93.84 60.688C94.192 60.016 94.368 59.2373 94.368 58.352C94.368 57.456 94.192 56.6773 93.84 56.016C93.4987 55.344 93.0187 54.832 92.4 54.48C91.792 54.1173 91.104 53.936 90.336 53.936ZM99.2803 56.992C99.5683 56.384 99.9896 55.9147 100.544 55.584C101.099 55.2427 101.76 55.072 102.528 55.072V56.656H102.08C101.259 56.656 100.587 56.8693 100.064 57.296C99.5416 57.712 99.2803 58.4053 99.2803 59.376V64H97.8243V55.216H99.2803V56.992ZM107.565 55.104C108.418 55.104 109.138 55.3173 109.725 55.744C110.322 56.1707 110.738 56.7413 110.973 57.456V55.216H112.429V64.144C112.429 64.9547 112.258 65.6747 111.917 66.304C111.576 66.9333 111.096 67.424 110.477 67.776C109.858 68.128 109.138 68.304 108.317 68.304C107.133 68.304 106.168 68.016 105.421 67.44C104.674 66.8747 104.2 66.1067 103.997 65.136H105.437C105.608 65.7227 105.928 66.1813 106.397 66.512C106.877 66.8533 107.49 67.024 108.237 67.024C109.026 67.024 109.677 66.768 110.189 66.256C110.712 65.7547 110.973 65.0507 110.973 64.144V61.76C110.738 62.4747 110.322 63.0453 109.725 63.472C109.138 63.8987 108.418 64.112 107.565 64.112C106.786 64.112 106.093 63.9307 105.485 63.568C104.877 63.2053 104.397 62.688 104.045 62.016C103.704 61.3333 103.533 60.5333 103.533 59.616C103.533 58.6987 103.704 57.8987 104.045 57.216C104.397 56.5333 104.877 56.0107 105.485 55.648C106.093 55.2853 106.786 55.104 107.565 55.104ZM107.981 56.4C107.085 56.4 106.365 56.688 105.821 57.264C105.288 57.8293 105.021 58.6133 105.021 59.616C105.021 60.6187 105.288 61.408 105.821 61.984C106.365 62.5493 107.085 62.832 107.981 62.832C108.557 62.832 109.069 62.6987 109.517 62.432C109.976 62.1653 110.333 61.792 110.589 61.312C110.845 60.8213 110.973 60.256 110.973 59.616C110.973 58.976 110.845 58.4107 110.589 57.92C110.333 57.4293 109.976 57.056 109.517 56.8C109.069 56.5333 108.557 56.4 107.981 56.4ZM118.346 55.104C119.199 55.104 119.919 55.3173 120.506 55.744C121.103 56.1707 121.519 56.7413 121.754 57.456V55.216H123.21V64H121.754V61.76C121.519 62.4747 121.103 63.0453 120.506 63.472C119.919 63.8987 119.199 64.112 118.346 64.112C117.567 64.112 116.874 63.9307 116.266 63.568C115.658 63.2053 115.178 62.688 114.826 62.016C114.485 61.3333 114.314 60.5333 114.314 59.616C114.314 58.6987 114.485 57.8987 114.826 57.216C115.178 56.5333 115.658 56.0107 116.266 55.648C116.874 55.2853 117.567 55.104 118.346 55.104ZM118.762 56.4C117.866 56.4 117.146 56.688 116.602 57.264C116.069 57.8293 115.802 58.6133 115.802 59.616C115.802 60.6187 116.069 61.408 116.602 61.984C117.146 62.5493 117.866 62.832 118.762 62.832C119.338 62.832 119.85 62.6987 120.298 62.432C120.757 62.1653 121.114 61.792 121.37 61.312C121.626 60.8213 121.754 60.256 121.754 59.616C121.754 58.976 121.626 58.4107 121.37 57.92C121.114 57.4293 120.757 57.056 120.298 56.8C119.85 56.5333 119.338 56.4 118.762 56.4ZM130.151 55.072C131.175 55.072 132.002 55.4027 132.631 56.064C133.261 56.7147 133.575 57.6587 133.575 58.896V64H132.119V59.024C132.119 58.1493 131.895 57.4773 131.447 57.008C130.999 56.5387 130.391 56.304 129.623 56.304C128.823 56.304 128.183 56.5653 127.703 57.088C127.223 57.6 126.983 58.352 126.983 59.344V64H125.527V55.216H126.983V57.296C127.207 56.5813 127.602 56.032 128.167 55.648C128.743 55.264 129.405 55.072 130.151 55.072ZM135.553 52.64C135.553 52.3733 135.643 52.16 135.825 52C136.006 51.8293 136.246 51.744 136.545 51.744C136.843 51.744 137.083 51.8293 137.265 52C137.446 52.16 137.537 52.3733 137.537 52.64C137.537 52.9067 137.446 53.1253 137.265 53.296C137.083 53.456 136.843 53.536 136.545 53.536C136.246 53.536 136.006 53.456 135.825 53.296C135.643 53.1253 135.553 52.9067 135.553 52.64ZM137.265 55.216V64H135.809V55.216H137.265ZM140.454 62.768H145.158V64H138.854V62.832L143.334 56.448H138.982V55.216H144.998V56.4L140.454 62.768ZM154.826 59.12C154.826 59.4293 154.805 59.696 154.762 59.92H147.738C147.77 60.9227 148.053 61.6747 148.586 62.176C149.13 62.6773 149.791 62.928 150.57 62.928C151.274 62.928 151.861 62.752 152.33 62.4C152.81 62.0373 153.103 61.5573 153.21 60.96H154.762C154.655 61.568 154.415 62.112 154.042 62.592C153.679 63.072 153.205 63.4453 152.618 63.712C152.031 63.9787 151.37 64.112 150.634 64.112C149.791 64.112 149.045 63.9307 148.394 63.568C147.743 63.2053 147.231 62.688 146.858 62.016C146.495 61.3333 146.314 60.5333 146.314 59.616C146.314 58.6987 146.495 57.8987 146.858 57.216C147.231 56.5333 147.743 56.0107 148.394 55.648C149.045 55.2853 149.791 55.104 150.634 55.104C151.487 55.104 152.229 55.2853 152.858 55.648C153.498 56.0107 153.983 56.496 154.314 57.104C154.655 57.712 154.826 58.384 154.826 59.12ZM153.354 59.216C153.386 58.5653 153.279 58.0213 153.034 57.584C152.789 57.1467 152.453 56.8213 152.026 56.608C151.599 56.3947 151.135 56.288 150.634 56.288C149.834 56.288 149.162 56.5387 148.618 57.04C148.074 57.5307 147.781 58.256 147.738 59.216H153.354ZM164.876 62.72V64H163.788C162.892 64 162.22 63.7867 161.772 63.36C161.334 62.9333 161.116 62.2187 161.116 61.216V56.48H159.804V55.216H161.116V53.024H162.588V55.216H164.86V56.48H162.588V61.248C162.588 61.8133 162.689 62.2027 162.892 62.416C163.105 62.6187 163.468 62.72 163.98 62.72H164.876ZM171.276 55.072C172.3 55.072 173.127 55.4027 173.756 56.064C174.386 56.7147 174.7 57.6587 174.7 58.896V64H173.244V59.024C173.244 58.1493 173.02 57.4773 172.572 57.008C172.124 56.5387 171.516 56.304 170.748 56.304C169.948 56.304 169.308 56.5653 168.828 57.088C168.348 57.6 168.108 58.352 168.108 59.344V64H166.652V52.16H168.108V57.296C168.332 56.5813 168.727 56.032 169.292 55.648C169.868 55.264 170.53 55.072 171.276 55.072ZM185.014 59.12C185.014 59.4293 184.992 59.696 184.95 59.92H177.926C177.958 60.9227 178.24 61.6747 178.774 62.176C179.318 62.6773 179.979 62.928 180.758 62.928C181.462 62.928 182.048 62.752 182.518 62.4C182.998 62.0373 183.291 61.5573 183.398 60.96H184.95C184.843 61.568 184.603 62.112 184.23 62.592C183.867 63.072 183.392 63.4453 182.806 63.712C182.219 63.9787 181.558 64.112 180.822 64.112C179.979 64.112 179.232 63.9307 178.582 63.568C177.931 63.2053 177.419 62.688 177.046 62.016C176.683 61.3333 176.502 60.5333 176.502 59.616C176.502 58.6987 176.683 57.8987 177.046 57.216C177.419 56.5333 177.931 56.0107 178.582 55.648C179.232 55.2853 179.979 55.104 180.822 55.104C181.675 55.104 182.416 55.2853 183.046 55.648C183.686 56.0107 184.171 56.496 184.502 57.104C184.843 57.712 185.014 58.384 185.014 59.12ZM183.542 59.216C183.574 58.5653 183.467 58.0213 183.222 57.584C182.976 57.1467 182.64 56.8213 182.214 56.608C181.787 56.3947 181.323 56.288 180.822 56.288C180.022 56.288 179.35 56.5387 178.806 57.04C178.262 57.5307 177.968 58.256 177.926 59.216H183.542ZM192.327 56.992C192.615 56.384 193.036 55.9147 193.591 55.584C194.146 55.2427 194.807 55.072 195.575 55.072V56.656H195.127C194.306 56.656 193.634 56.8693 193.111 57.296C192.588 57.712 192.327 58.4053 192.327 59.376V64H190.871V55.216H192.327V56.992ZM205.092 59.12C205.092 59.4293 205.07 59.696 205.028 59.92H198.004C198.036 60.9227 198.318 61.6747 198.852 62.176C199.396 62.6773 200.057 62.928 200.836 62.928C201.54 62.928 202.126 62.752 202.596 62.4C203.076 62.0373 203.369 61.5573 203.476 60.96H205.028C204.921 61.568 204.681 62.112 204.308 62.592C203.945 63.072 203.47 63.4453 202.884 63.712C202.297 63.9787 201.636 64.112 200.9 64.112C200.057 64.112 199.31 63.9307 198.66 63.568C198.009 63.2053 197.497 62.688 197.124 62.016C196.761 61.3333 196.58 60.5333 196.58 59.616C196.58 58.6987 196.761 57.8987 197.124 57.216C197.497 56.5333 198.009 56.0107 198.66 55.648C199.31 55.2853 200.057 55.104 200.9 55.104C201.753 55.104 202.494 55.2853 203.124 55.648C203.764 56.0107 204.249 56.496 204.58 57.104C204.921 57.712 205.092 58.384 205.092 59.12ZM203.62 59.216C203.652 58.5653 203.545 58.0213 203.3 57.584C203.054 57.1467 202.718 56.8213 202.292 56.608C201.865 56.3947 201.401 56.288 200.9 56.288C200.1 56.288 199.428 56.5387 198.884 57.04C198.34 57.5307 198.046 58.256 198.004 59.216H203.62ZM211.844 55.104C212.623 55.104 213.316 55.2853 213.924 55.648C214.532 56.0107 215.007 56.5333 215.348 57.216C215.7 57.8987 215.876 58.6987 215.876 59.616C215.876 60.5333 215.7 61.3333 215.348 62.016C215.007 62.688 214.532 63.2053 213.924 63.568C213.316 63.9307 212.623 64.112 211.844 64.112C210.991 64.112 210.265 63.8987 209.668 63.472C209.081 63.0347 208.676 62.464 208.452 61.76V68.16H206.996V55.216H208.452V57.456C208.676 56.752 209.081 56.1867 209.668 55.76C210.265 55.3227 210.991 55.104 211.844 55.104ZM211.428 56.4C210.863 56.4 210.351 56.5333 209.892 56.8C209.433 57.056 209.076 57.4293 208.82 57.92C208.564 58.4107 208.436 58.976 208.436 59.616C208.436 60.256 208.564 60.8213 208.82 61.312C209.076 61.792 209.433 62.1653 209.892 62.432C210.351 62.6987 210.863 62.832 211.428 62.832C212.335 62.832 213.055 62.5493 213.588 61.984C214.132 61.408 214.404 60.6187 214.404 59.616C214.404 58.6133 214.132 57.8293 213.588 57.264C213.055 56.688 212.335 56.4 211.428 56.4ZM221.761 55.104C222.604 55.104 223.356 55.2853 224.017 55.648C224.689 56.0107 225.212 56.5333 225.585 57.216C225.969 57.8987 226.161 58.6987 226.161 59.616C226.161 60.5333 225.969 61.3333 225.585 62.016C225.212 62.688 224.689 63.2053 224.017 63.568C223.356 63.9307 222.604 64.112 221.761 64.112C220.919 64.112 220.161 63.9307 219.489 63.568C218.828 63.2053 218.305 62.688 217.921 62.016C217.537 61.3333 217.345 60.5333 217.345 59.616C217.345 58.6987 217.537 57.8987 217.921 57.216C218.305 56.5333 218.828 56.0107 219.489 55.648C220.161 55.2853 220.919 55.104 221.761 55.104ZM221.761 56.384C221.239 56.384 220.753 56.5013 220.305 56.736C219.868 56.9707 219.511 57.3333 219.233 57.824C218.967 58.304 218.833 58.9013 218.833 59.616C218.833 60.32 218.967 60.9173 219.233 61.408C219.511 61.888 219.868 62.2453 220.305 62.48C220.753 62.7147 221.239 62.832 221.761 62.832C222.284 62.832 222.764 62.7147 223.201 62.48C223.649 62.2453 224.007 61.888 224.273 61.408C224.551 60.9173 224.689 60.32 224.689 59.616C224.689 58.9013 224.551 58.304 224.273 57.824C224.007 57.3333 223.649 56.9707 223.201 56.736C222.764 56.5013 222.284 56.384 221.761 56.384ZM229.515 56.992C229.803 56.384 230.224 55.9147 230.779 55.584C231.333 55.2427 231.995 55.072 232.763 55.072V56.656H232.315C231.493 56.656 230.821 56.8693 230.299 57.296C229.776 57.712 229.515 58.4053 229.515 59.376V64H228.059V55.216H229.515V56.992ZM238.391 62.72V64H237.303C236.407 64 235.735 63.7867 235.287 63.36C234.85 62.9333 234.631 62.2187 234.631 61.216V56.48H233.319V55.216H234.631V53.024H236.103V55.216H238.375V56.48H236.103V61.248C236.103 61.8133 236.205 62.2027 236.407 62.416C236.621 62.6187 236.983 62.72 237.495 62.72H238.391ZM248.313 62.72V64H247.225C246.329 64 245.657 63.7867 245.209 63.36C244.772 62.9333 244.553 62.2187 244.553 61.216V56.48H243.241V55.216H244.553V53.024H246.025V55.216H248.297V56.48H246.025V61.248C246.025 61.8133 246.126 62.2027 246.329 62.416C246.542 62.6187 246.905 62.72 247.417 62.72H248.313ZM254.714 55.072C255.738 55.072 256.565 55.4027 257.194 56.064C257.823 56.7147 258.138 57.6587 258.138 58.896V64H256.682V59.024C256.682 58.1493 256.458 57.4773 256.01 57.008C255.562 56.5387 254.954 56.304 254.186 56.304C253.386 56.304 252.746 56.5653 252.266 57.088C251.786 57.6 251.546 58.352 251.546 59.344V64H250.09V52.16H251.546V57.296C251.77 56.5813 252.165 56.032 252.73 55.648C253.306 55.264 253.967 55.072 254.714 55.072ZM263.971 55.104C264.824 55.104 265.544 55.3173 266.131 55.744C266.728 56.1707 267.144 56.7413 267.379 57.456V55.216H268.835V64H267.379V61.76C267.144 62.4747 266.728 63.0453 266.131 63.472C265.544 63.8987 264.824 64.112 263.971 64.112C263.192 64.112 262.499 63.9307 261.891 63.568C261.283 63.2053 260.803 62.688 260.451 62.016C260.11 61.3333 259.939 60.5333 259.939 59.616C259.939 58.6987 260.11 57.8987 260.451 57.216C260.803 56.5333 261.283 56.0107 261.891 55.648C262.499 55.2853 263.192 55.104 263.971 55.104ZM264.387 56.4C263.491 56.4 262.771 56.688 262.227 57.264C261.694 57.8293 261.427 58.6133 261.427 59.616C261.427 60.6187 261.694 61.408 262.227 61.984C262.771 62.5493 263.491 62.832 264.387 62.832C264.963 62.832 265.475 62.6987 265.923 62.432C266.382 62.1653 266.739 61.792 266.995 61.312C267.251 60.8213 267.379 60.256 267.379 59.616C267.379 58.976 267.251 58.4107 266.995 57.92C266.739 57.4293 266.382 57.056 265.923 56.8C265.475 56.5333 264.963 56.4 264.387 56.4ZM275.344 62.72V64H274.256C273.36 64 272.688 63.7867 272.24 63.36C271.803 62.9333 271.584 62.2187 271.584 61.216V56.48H270.272V55.216H271.584V53.024H273.056V55.216H275.328V56.48H273.056V61.248C273.056 61.8133 273.158 62.2027 273.36 62.416C273.574 62.6187 273.936 62.72 274.448 62.72H275.344ZM93.248 91.12C93.248 91.4293 93.2267 91.696 93.184 91.92H86.16C86.192 92.9227 86.4747 93.6747 87.008 94.176C87.552 94.6773 88.2133 94.928 88.992 94.928C89.696 94.928 90.2827 94.752 90.752 94.4C91.232 94.0373 91.5253 93.5573 91.632 92.96H93.184C93.0773 93.568 92.8373 94.112 92.464 94.592C92.1013 95.072 91.6267 95.4453 91.04 95.712C90.4533 95.9787 89.792 96.112 89.056 96.112C88.2133 96.112 87.4667 95.9307 86.816 95.568C86.1653 95.2053 85.6533 94.688 85.28 94.016C84.9173 93.3333 84.736 92.5333 84.736 91.616C84.736 90.6987 84.9173 89.8987 85.28 89.216C85.6533 88.5333 86.1653 88.0107 86.816 87.648C87.4667 87.2853 88.2133 87.104 89.056 87.104C89.9093 87.104 90.6507 87.2853 91.28 87.648C91.92 88.0107 92.4053 88.496 92.736 89.104C93.0773 89.712 93.248 90.384 93.248 91.12ZM91.776 91.216C91.808 90.5653 91.7013 90.0213 91.456 89.584C91.2107 89.1467 90.8747 88.8213 90.448 88.608C90.0213 88.3947 89.5573 88.288 89.056 88.288C88.256 88.288 87.584 88.5387 87.04 89.04C86.496 89.5307 86.2027 90.256 86.16 91.216H91.776ZM98.7524 87.104C99.6057 87.104 100.326 87.3173 100.912 87.744C101.51 88.1707 101.926 88.7413 102.16 89.456V87.216H103.616V96H102.16V93.76C101.926 94.4747 101.51 95.0453 100.912 95.472C100.326 95.8987 99.6057 96.112 98.7524 96.112C97.9737 96.112 97.2804 95.9307 96.6724 95.568C96.0644 95.2053 95.5844 94.688 95.2324 94.016C94.891 93.3333 94.7204 92.5333 94.7204 91.616C94.7204 90.6987 94.891 89.8987 95.2324 89.216C95.5844 88.5333 96.0644 88.0107 96.6724 87.648C97.2804 87.2853 97.9737 87.104 98.7524 87.104ZM99.1684 88.4C98.2724 88.4 97.5524 88.688 97.0084 89.264C96.475 89.8293 96.2084 90.6133 96.2084 91.616C96.2084 92.6187 96.475 93.408 97.0084 93.984C97.5524 94.5493 98.2724 94.832 99.1684 94.832C99.7444 94.832 100.256 94.6987 100.704 94.432C101.163 94.1653 101.52 93.792 101.776 93.312C102.032 92.8213 102.16 92.256 102.16 91.616C102.16 90.976 102.032 90.4107 101.776 89.92C101.52 89.4293 101.163 89.056 100.704 88.8C100.256 88.5333 99.7444 88.4 99.1684 88.4ZM108.686 87.104C109.678 87.104 110.472 87.3653 111.07 87.888C111.678 88.4 112.046 89.0933 112.174 89.968H110.782C110.718 89.4453 110.499 89.0187 110.126 88.688C109.763 88.3467 109.272 88.176 108.654 88.176C108.131 88.176 107.72 88.304 107.422 88.56C107.134 88.8053 106.99 89.1413 106.99 89.568C106.99 89.888 107.086 90.1493 107.278 90.352C107.48 90.544 107.726 90.6933 108.014 90.8C108.312 90.896 108.718 91.0027 109.23 91.12C109.88 91.2693 110.403 91.424 110.798 91.584C111.203 91.7333 111.544 91.9787 111.822 92.32C112.11 92.6613 112.254 93.12 112.254 93.696C112.254 94.4107 111.982 94.992 111.438 95.44C110.904 95.888 110.19 96.112 109.294 96.112C108.248 96.112 107.395 95.8613 106.734 95.36C106.072 94.8587 105.683 94.16 105.566 93.264H106.974C107.027 93.7973 107.256 94.2293 107.662 94.56C108.078 94.8907 108.622 95.056 109.294 95.056C109.795 95.056 110.184 94.928 110.462 94.672C110.75 94.416 110.894 94.08 110.894 93.664C110.894 93.3227 110.792 93.0507 110.59 92.848C110.387 92.6453 110.136 92.4907 109.838 92.384C109.539 92.2773 109.128 92.1653 108.606 92.048C107.955 91.8987 107.432 91.7493 107.038 91.6C106.654 91.4507 106.323 91.216 106.046 90.896C105.779 90.5653 105.646 90.1227 105.646 89.568C105.646 88.832 105.918 88.24 106.462 87.792C107.006 87.3333 107.747 87.104 108.686 87.104ZM114.807 87.216L117.655 94.128L120.295 87.216H121.911L116.695 100.16H115.047L116.871 95.856L113.175 87.216H114.807ZM131.391 94.72V96H130.303C129.407 96 128.735 95.7867 128.287 95.36C127.85 94.9333 127.631 94.2187 127.631 93.216V88.48H126.319V87.216H127.631V85.024H129.103V87.216H131.375V88.48H129.103V93.248C129.103 93.8133 129.205 94.2027 129.407 94.416C129.621 94.6187 129.983 94.72 130.495 94.72H131.391ZM137.152 87.104C137.995 87.104 138.747 87.2853 139.408 87.648C140.08 88.0107 140.603 88.5333 140.976 89.216C141.36 89.8987 141.552 90.6987 141.552 91.616C141.552 92.5333 141.36 93.3333 140.976 94.016C140.603 94.688 140.08 95.2053 139.408 95.568C138.747 95.9307 137.995 96.112 137.152 96.112C136.309 96.112 135.552 95.9307 134.88 95.568C134.219 95.2053 133.696 94.688 133.312 94.016C132.928 93.3333 132.736 92.5333 132.736 91.616C132.736 90.6987 132.928 89.8987 133.312 89.216C133.696 88.5333 134.219 88.0107 134.88 87.648C135.552 87.2853 136.309 87.104 137.152 87.104ZM137.152 88.384C136.629 88.384 136.144 88.5013 135.696 88.736C135.259 88.9707 134.901 89.3333 134.624 89.824C134.357 90.304 134.224 90.9013 134.224 91.616C134.224 92.32 134.357 92.9173 134.624 93.408C134.901 93.888 135.259 94.2453 135.696 94.48C136.144 94.7147 136.629 94.832 137.152 94.832C137.675 94.832 138.155 94.7147 138.592 94.48C139.04 94.2453 139.397 93.888 139.664 93.408C139.941 92.9173 140.08 92.32 140.08 91.616C140.08 90.9013 139.941 90.304 139.664 89.824C139.397 89.3333 139.04 88.9707 138.592 88.736C138.155 88.5013 137.675 88.384 137.152 88.384ZM152.25 87.104C153.029 87.104 153.722 87.2853 154.33 87.648C154.938 88.0107 155.413 88.5333 155.754 89.216C156.106 89.8987 156.282 90.6987 156.282 91.616C156.282 92.5333 156.106 93.3333 155.754 94.016C155.413 94.688 154.938 95.2053 154.33 95.568C153.722 95.9307 153.029 96.112 152.25 96.112C151.397 96.112 150.672 95.8987 150.074 95.472C149.488 95.0347 149.082 94.464 148.858 93.76V96H147.402V84.16H148.858V89.456C149.082 88.752 149.488 88.1867 150.074 87.76C150.672 87.3227 151.397 87.104 152.25 87.104ZM151.834 88.4C151.269 88.4 150.757 88.5333 150.298 88.8C149.84 89.056 149.482 89.4293 149.226 89.92C148.97 90.4107 148.842 90.976 148.842 91.616C148.842 92.256 148.97 92.8213 149.226 93.312C149.482 93.792 149.84 94.1653 150.298 94.432C150.757 94.6987 151.269 94.832 151.834 94.832C152.741 94.832 153.461 94.5493 153.994 93.984C154.538 93.408 154.81 92.6187 154.81 91.616C154.81 90.6133 154.538 89.8293 153.994 89.264C153.461 88.688 152.741 88.4 151.834 88.4ZM166.264 91.12C166.264 91.4293 166.242 91.696 166.2 91.92H159.176C159.208 92.9227 159.49 93.6747 160.024 94.176C160.568 94.6773 161.229 94.928 162.008 94.928C162.712 94.928 163.298 94.752 163.768 94.4C164.248 94.0373 164.541 93.5573 164.648 92.96H166.2C166.093 93.568 165.853 94.112 165.48 94.592C165.117 95.072 164.642 95.4453 164.056 95.712C163.469 95.9787 162.808 96.112 162.072 96.112C161.229 96.112 160.482 95.9307 159.832 95.568C159.181 95.2053 158.669 94.688 158.296 94.016C157.933 93.3333 157.752 92.5333 157.752 91.616C157.752 90.6987 157.933 89.8987 158.296 89.216C158.669 88.5333 159.181 88.0107 159.832 87.648C160.482 87.2853 161.229 87.104 162.072 87.104C162.925 87.104 163.666 87.2853 164.296 87.648C164.936 88.0107 165.421 88.496 165.752 89.104C166.093 89.712 166.264 90.384 166.264 91.12ZM164.792 91.216C164.824 90.5653 164.717 90.0213 164.472 89.584C164.226 89.1467 163.89 88.8213 163.464 88.608C163.037 88.3947 162.573 88.288 162.072 88.288C161.272 88.288 160.6 88.5387 160.056 89.04C159.512 89.5307 159.218 90.256 159.176 91.216H164.792ZM179.929 87.216V96H178.473V93.936C178.249 94.6507 177.849 95.2 177.273 95.584C176.708 95.9573 176.046 96.144 175.289 96.144C174.276 96.144 173.454 95.8187 172.825 95.168C172.196 94.5067 171.881 93.5627 171.881 92.336V87.216H173.337V92.192C173.337 93.0667 173.561 93.744 174.009 94.224C174.457 94.6933 175.065 94.928 175.833 94.928C176.633 94.928 177.273 94.672 177.753 94.16C178.233 93.6373 178.473 92.88 178.473 91.888V87.216H179.929ZM186.886 87.072C187.91 87.072 188.736 87.4027 189.366 88.064C189.995 88.7147 190.31 89.6587 190.31 90.896V96H188.854V91.024C188.854 90.1493 188.63 89.4773 188.182 89.008C187.734 88.5387 187.126 88.304 186.358 88.304C185.558 88.304 184.918 88.5653 184.438 89.088C183.958 89.6 183.718 90.352 183.718 91.344V96H182.262V87.216H183.718V89.296C183.942 88.5813 184.336 88.032 184.902 87.648C185.478 87.264 186.139 87.072 186.886 87.072ZM196.143 87.104C196.996 87.104 197.716 87.3173 198.303 87.744C198.9 88.1707 199.316 88.7413 199.551 89.456V84.16H201.007V96H199.551V93.76C199.316 94.4747 198.9 95.0453 198.303 95.472C197.716 95.8987 196.996 96.112 196.143 96.112C195.364 96.112 194.671 95.9307 194.063 95.568C193.455 95.2053 192.975 94.688 192.623 94.016C192.282 93.3333 192.111 92.5333 192.111 91.616C192.111 90.6987 192.282 89.8987 192.623 89.216C192.975 88.5333 193.455 88.0107 194.063 87.648C194.671 87.2853 195.364 87.104 196.143 87.104ZM196.559 88.4C195.663 88.4 194.943 88.688 194.399 89.264C193.866 89.8293 193.599 90.6133 193.599 91.616C193.599 92.6187 193.866 93.408 194.399 93.984C194.943 94.5493 195.663 94.832 196.559 94.832C197.135 94.832 197.647 94.6987 198.095 94.432C198.554 94.1653 198.911 93.792 199.167 93.312C199.423 92.8213 199.551 92.256 199.551 91.616C199.551 90.976 199.423 90.4107 199.167 89.92C198.911 89.4293 198.554 89.056 198.095 88.8C197.647 88.5333 197.135 88.4 196.559 88.4ZM211.404 91.12C211.404 91.4293 211.383 91.696 211.34 91.92H204.316C204.348 92.9227 204.631 93.6747 205.164 94.176C205.708 94.6773 206.37 94.928 207.148 94.928C207.852 94.928 208.439 94.752 208.908 94.4C209.388 94.0373 209.682 93.5573 209.788 92.96H211.34C211.234 93.568 210.994 94.112 210.62 94.592C210.258 95.072 209.783 95.4453 209.196 95.712C208.61 95.9787 207.948 96.112 207.212 96.112C206.37 96.112 205.623 95.9307 204.972 95.568C204.322 95.2053 203.81 94.688 203.436 94.016C203.074 93.3333 202.892 92.5333 202.892 91.616C202.892 90.6987 203.074 89.8987 203.436 89.216C203.81 88.5333 204.322 88.0107 204.972 87.648C205.623 87.2853 206.37 87.104 207.212 87.104C208.066 87.104 208.807 87.2853 209.436 87.648C210.076 88.0107 210.562 88.496 210.892 89.104C211.234 89.712 211.404 90.384 211.404 91.12ZM209.932 91.216C209.964 90.5653 209.858 90.0213 209.612 89.584C209.367 89.1467 209.031 88.8213 208.604 88.608C208.178 88.3947 207.714 88.288 207.212 88.288C206.412 88.288 205.74 88.5387 205.196 89.04C204.652 89.5307 204.359 90.256 204.316 91.216H209.932ZM214.765 88.992C215.053 88.384 215.474 87.9147 216.029 87.584C216.583 87.2427 217.245 87.072 218.013 87.072V88.656H217.565C216.743 88.656 216.071 88.8693 215.549 89.296C215.026 89.712 214.765 90.4053 214.765 91.376V96H213.309V87.216H214.765V88.992ZM222.201 87.104C223.193 87.104 223.988 87.3653 224.585 87.888C225.193 88.4 225.561 89.0933 225.689 89.968H224.297C224.233 89.4453 224.015 89.0187 223.641 88.688C223.279 88.3467 222.788 88.176 222.169 88.176C221.647 88.176 221.236 88.304 220.937 88.56C220.649 88.8053 220.505 89.1413 220.505 89.568C220.505 89.888 220.601 90.1493 220.793 90.352C220.996 90.544 221.241 90.6933 221.529 90.8C221.828 90.896 222.233 91.0027 222.745 91.12C223.396 91.2693 223.919 91.424 224.313 91.584C224.719 91.7333 225.06 91.9787 225.337 92.32C225.625 92.6613 225.769 93.12 225.769 93.696C225.769 94.4107 225.497 94.992 224.953 95.44C224.42 95.888 223.705 96.112 222.809 96.112C221.764 96.112 220.911 95.8613 220.249 95.36C219.588 94.8587 219.199 94.16 219.081 93.264H220.489C220.543 93.7973 220.772 94.2293 221.177 94.56C221.593 94.8907 222.137 95.056 222.809 95.056C223.311 95.056 223.7 94.928 223.977 94.672C224.265 94.416 224.409 94.08 224.409 93.664C224.409 93.3227 224.308 93.0507 224.105 92.848C223.903 92.6453 223.652 92.4907 223.353 92.384C223.055 92.2773 222.644 92.1653 222.121 92.048C221.471 91.8987 220.948 91.7493 220.553 91.6C220.169 91.4507 219.839 91.216 219.561 90.896C219.295 90.5653 219.161 90.1227 219.161 89.568C219.161 88.832 219.433 88.24 219.977 87.792C220.521 87.3333 221.263 87.104 222.201 87.104ZM231.907 94.72V96H230.819C229.923 96 229.251 95.7867 228.803 95.36C228.366 94.9333 228.147 94.2187 228.147 93.216V88.48H226.835V87.216H228.147V85.024H229.619V87.216H231.891V88.48H229.619V93.248C229.619 93.8133 229.72 94.2027 229.923 94.416C230.136 94.6187 230.499 94.72 231.011 94.72H231.907ZM237.284 87.104C238.137 87.104 238.857 87.3173 239.444 87.744C240.041 88.1707 240.457 88.7413 240.692 89.456V87.216H242.148V96H240.692V93.76C240.457 94.4747 240.041 95.0453 239.444 95.472C238.857 95.8987 238.137 96.112 237.284 96.112C236.505 96.112 235.812 95.9307 235.204 95.568C234.596 95.2053 234.116 94.688 233.764 94.016C233.422 93.3333 233.252 92.5333 233.252 91.616C233.252 90.6987 233.422 89.8987 233.764 89.216C234.116 88.5333 234.596 88.0107 235.204 87.648C235.812 87.2853 236.505 87.104 237.284 87.104ZM237.7 88.4C236.804 88.4 236.084 88.688 235.54 89.264C235.006 89.8293 234.74 90.6133 234.74 91.616C234.74 92.6187 235.006 93.408 235.54 93.984C236.084 94.5493 236.804 94.832 237.7 94.832C238.276 94.832 238.788 94.6987 239.236 94.432C239.694 94.1653 240.052 93.792 240.308 93.312C240.564 92.8213 240.692 92.256 240.692 91.616C240.692 90.976 240.564 90.4107 240.308 89.92C240.052 89.4293 239.694 89.056 239.236 88.8C238.788 88.5333 238.276 88.4 237.7 88.4ZM249.089 87.072C250.113 87.072 250.94 87.4027 251.569 88.064C252.198 88.7147 252.513 89.6587 252.513 90.896V96H251.057V91.024C251.057 90.1493 250.833 89.4773 250.385 89.008C249.937 88.5387 249.329 88.304 248.561 88.304C247.761 88.304 247.121 88.5653 246.641 89.088C246.161 89.6 245.921 90.352 245.921 91.344V96H244.465V87.216H245.921V89.296C246.145 88.5813 246.54 88.032 247.105 87.648C247.681 87.264 248.342 87.072 249.089 87.072ZM258.346 87.104C259.199 87.104 259.919 87.3173 260.506 87.744C261.103 88.1707 261.519 88.7413 261.754 89.456V84.16H263.21V96H261.754V93.76C261.519 94.4747 261.103 95.0453 260.506 95.472C259.919 95.8987 259.199 96.112 258.346 96.112C257.567 96.112 256.874 95.9307 256.266 95.568C255.658 95.2053 255.178 94.688 254.826 94.016C254.485 93.3333 254.314 92.5333 254.314 91.616C254.314 90.6987 254.485 89.8987 254.826 89.216C255.178 88.5333 255.658 88.0107 256.266 87.648C256.874 87.2853 257.567 87.104 258.346 87.104ZM258.762 88.4C257.866 88.4 257.146 88.688 256.602 89.264C256.069 89.8293 255.802 90.6133 255.802 91.616C255.802 92.6187 256.069 93.408 256.602 93.984C257.146 94.5493 257.866 94.832 258.762 94.832C259.338 94.832 259.85 94.6987 260.298 94.432C260.757 94.1653 261.114 93.792 261.37 93.312C261.626 92.8213 261.754 92.256 261.754 91.616C261.754 90.976 261.626 90.4107 261.37 89.92C261.114 89.4293 260.757 89.056 260.298 88.8C259.85 88.5333 259.338 88.4 258.762 88.4Z" fill="#575455"/>
<circle cx="30" cy="30" r="30" fill="#FF1FB3"/>
<path d="M37 21H23C21.8954 21 21 21.8954 21 23V37C21 38.1046 21.8954 39 23 39H37C38.1046 39 39 38.1046 39 37V23C39 21.8954 38.1046 21 37 21Z" stroke="white" stroke-width="2" stroke-linecap="round" stroke-linejoin="round"/>
<path d="M35 25H32V30H35V25Z" stroke="white" stroke-width="2" stroke-linecap="round" stroke-linejoin="round"/>
<path d="M28 25H25V34H28V25Z" stroke="white" stroke-width="2" stroke-linecap="round" stroke-linejoin="round"/>
<path d="M90.76 14.82L96.74 22H93.32L88.1 15.54V22H85.28V7.88H88.1V14.22L93.34 7.88H96.74L90.76 14.82ZM102.647 10.78C103.581 10.78 104.381 11 105.047 11.44C105.714 11.88 106.187 12.4733 106.467 13.22V10.92H109.267V22H106.467V19.68C106.187 20.4267 105.714 21.0267 105.047 21.48C104.381 21.92 103.581 22.14 102.647 22.14C101.714 22.14 100.874 21.9133 100.127 21.46C99.3807 21.0067 98.794 20.3533 98.3673 19.5C97.954 18.6333 97.7473 17.62 97.7473 16.46C97.7473 15.3 97.954 14.2933 98.3673 13.44C98.794 12.5733 99.3807 11.9133 100.127 11.46C100.874 11.0067 101.714 10.78 102.647 10.78ZM103.527 13.24C102.647 13.24 101.941 13.5267 101.407 14.1C100.874 14.6733 100.607 15.46 100.607 16.46C100.607 17.46 100.874 18.2467 101.407 18.82C101.941 19.38 102.647 19.66 103.527 19.66C104.381 19.66 105.081 19.3733 105.627 18.8C106.187 18.2133 106.467 17.4333 106.467 16.46C106.467 15.4733 106.187 14.6933 105.627 14.12C105.081 13.5333 104.381 13.24 103.527 13.24ZM118.423 10.76C119.703 10.76 120.723 11.18 121.483 12.02C122.243 12.86 122.623 14.04 122.623 15.56V22H119.823V15.88C119.823 15 119.596 14.32 119.143 13.84C118.69 13.3467 118.07 13.1 117.283 13.1C116.483 13.1 115.843 13.36 115.363 13.88C114.883 14.4 114.643 15.1467 114.643 16.12V22H111.823V10.92H114.643V13.14C114.936 12.3933 115.416 11.8133 116.083 11.4C116.763 10.9733 117.543 10.76 118.423 10.76ZM131.724 10.78C132.658 10.78 133.498 11.0067 134.244 11.46C134.991 11.9133 135.571 12.5733 135.984 13.44C136.411 14.2933 136.624 15.3 136.624 16.46C136.624 17.62 136.411 18.6333 135.984 19.5C135.571 20.3533 134.991 21.0067 134.244 21.46C133.498 21.9133 132.658 22.14 131.724 22.14C130.791 22.14 129.991 21.92 129.324 21.48C128.671 21.0267 128.204 20.4267 127.924 19.68V22H125.104V7.2H127.924V13.22C128.204 12.4733 128.671 11.88 129.324 11.44C129.991 11 130.791 10.78 131.724 10.78ZM130.844 13.24C129.991 13.24 129.284 13.5333 128.724 14.12C128.178 14.6933 127.904 15.4733 127.904 16.46C127.904 17.4333 128.178 18.2133 128.724 18.8C129.284 19.3733 129.991 19.66 130.844 19.66C131.724 19.66 132.431 19.38 132.964 18.82C133.498 18.2467 133.764 17.46 133.764 16.46C133.764 15.46 133.498 14.6733 132.964 14.1C132.431 13.5267 131.724 13.24 130.844 13.24ZM142.96 10.78C143.893 10.78 144.693 11 145.36 11.44C146.027 11.88 146.5 12.4733 146.78 13.22V10.92H149.58V22H146.78V19.68C146.5 20.4267 146.027 21.0267 145.36 21.48C144.693 21.92 143.893 22.14 142.96 22.14C142.027 22.14 141.187 21.9133 140.44 21.46C139.693 21.0067 139.107 20.3533 138.68 19.5C138.267 18.6333 138.06 17.62 138.06 16.46C138.06 15.3 138.267 14.2933 138.68 13.44C139.107 12.5733 139.693 11.9133 140.44 11.46C141.187 11.0067 142.027 10.78 142.96 10.78ZM143.84 13.24C142.96 13.24 142.253 13.5267 141.72 14.1C141.187 14.6733 140.92 15.46 140.92 16.46C140.92 17.46 141.187 18.2467 141.72 18.82C142.253 19.38 142.96 19.66 143.84 19.66C144.693 19.66 145.393 19.3733 145.94 18.8C146.5 18.2133 146.78 17.4333 146.78 16.46C146.78 15.4733 146.5 14.6933 145.94 14.12C145.393 13.5333 144.693 13.24 143.84 13.24ZM158.735 10.76C160.015 10.76 161.035 11.18 161.795 12.02C162.555 12.86 162.935 14.04 162.935 15.56V22H160.135V15.88C160.135 15 159.909 14.32 159.455 13.84C159.002 13.3467 158.382 13.1 157.595 13.1C156.795 13.1 156.155 13.36 155.675 13.88C155.195 14.4 154.955 15.1467 154.955 16.12V22H152.135V10.92H154.955V13.14C155.249 12.3933 155.729 11.8133 156.395 11.4C157.075 10.9733 157.855 10.76 158.735 10.76ZM184.992 8.04V22H182.192V12.26L178.612 22H176.172L172.592 12.3V22H169.772V8.04H173.192L177.432 18.54L181.592 8.04H184.992ZM192.666 10.78C193.746 10.78 194.712 11.0067 195.566 11.46C196.432 11.9133 197.112 12.5733 197.606 13.44C198.099 14.2933 198.346 15.3 198.346 16.46C198.346 17.62 198.099 18.6267 197.606 19.48C197.112 20.3333 196.432 20.9933 195.566 21.46C194.712 21.9133 193.746 22.14 192.666 22.14C191.586 22.14 190.612 21.9133 189.746 21.46C188.892 20.9933 188.219 20.3333 187.726 19.48C187.232 18.6267 186.986 17.62 186.986 16.46C186.986 15.3 187.232 14.2933 187.726 13.44C188.219 12.5733 188.892 11.9133 189.746 11.46C190.612 11.0067 191.586 10.78 192.666 10.78ZM192.666 13.22C191.879 13.22 191.212 13.5 190.666 14.06C190.119 14.6067 189.846 15.4067 189.846 16.46C189.846 17.5133 190.119 18.32 190.666 18.88C191.212 19.4267 191.879 19.7 192.666 19.7C193.452 19.7 194.119 19.4267 194.666 18.88C195.212 18.32 195.486 17.5133 195.486 16.46C195.486 15.4067 195.212 14.6067 194.666 14.06C194.119 13.5 193.452 13.22 192.666 13.22ZM204.679 10.78C205.612 10.78 206.405 11 207.059 11.44C207.725 11.88 208.205 12.4733 208.499 13.22V7.2H211.299V22H208.499V19.68C208.205 20.4267 207.725 21.0267 207.059 21.48C206.405 21.92 205.612 22.14 204.679 22.14C203.745 22.14 202.905 21.9133 202.159 21.46C201.412 21.0067 200.825 20.3533 200.399 19.5C199.985 18.6333 199.779 17.62 199.779 16.46C199.779 15.3 199.985 14.2933 200.399 13.44C200.825 12.5733 201.412 11.9133 202.159 11.46C202.905 11.0067 203.745 10.78 204.679 10.78ZM205.559 13.24C204.679 13.24 203.972 13.5267 203.439 14.1C202.905 14.6733 202.639 15.46 202.639 16.46C202.639 17.46 202.905 18.2467 203.439 18.82C203.972 19.38 204.679 19.66 205.559 19.66C206.412 19.66 207.112 19.3733 207.659 18.8C208.219 18.2133 208.499 17.4333 208.499 16.46C208.499 15.4733 208.219 14.6933 207.659 14.12C207.112 13.5333 206.412 13.24 205.559 13.24ZM224.274 16.04C224.274 16.32 224.241 16.64 224.174 17H216.054C216.094 17.9867 216.361 18.7133 216.854 19.18C217.348 19.6467 217.961 19.88 218.694 19.88C219.348 19.88 219.888 19.72 220.314 19.4C220.754 19.08 221.034 18.6467 221.154 18.1H224.134C223.988 18.8733 223.674 19.5667 223.194 20.18C222.714 20.7933 222.094 21.2733 221.334 21.62C220.588 21.9667 219.754 22.14 218.834 22.14C217.754 22.14 216.794 21.9133 215.954 21.46C215.114 20.9933 214.461 20.3333 213.994 19.48C213.528 18.6267 213.294 17.62 213.294 16.46C213.294 15.3 213.528 14.2933 213.994 13.44C214.461 12.5733 215.114 11.9133 215.954 11.46C216.794 11.0067 217.754 10.78 218.834 10.78C219.928 10.78 220.881 11.0067 221.694 11.46C222.521 11.9133 223.154 12.54 223.594 13.34C224.048 14.1267 224.274 15.0267 224.274 16.04ZM221.434 15.76C221.474 14.8533 221.234 14.1667 220.714 13.7C220.208 13.2333 219.581 13 218.834 13C218.074 13 217.434 13.2333 216.914 13.7C216.394 14.1667 216.108 14.8533 216.054 15.76H221.434Z" fill="#070F18"/>
</svg>
