<svg width="309" height="106" viewBox="0 0 309 106" fill="none" xmlns="http://www.w3.org/2000/svg">
<path d="M99.04 52.72L96.176 64H94.4L91.792 54.784L89.184 64H87.408L84.528 52.72H86.144L88.304 62.304L90.976 52.72H92.592L95.264 62.272L97.44 52.72H99.04ZM104.73 55.104C105.573 55.104 106.325 55.2853 106.986 55.648C107.658 56.0107 108.181 56.5333 108.554 57.216C108.938 57.8987 109.13 58.6987 109.13 59.616C109.13 60.5333 108.938 61.3333 108.554 62.016C108.181 62.688 107.658 63.2053 106.986 63.568C106.325 63.9307 105.573 64.112 104.73 64.112C103.887 64.112 103.13 63.9307 102.458 63.568C101.797 63.2053 101.274 62.688 100.89 62.016C100.506 61.3333 100.314 60.5333 100.314 59.616C100.314 58.6987 100.506 57.8987 100.89 57.216C101.274 56.5333 101.797 56.0107 102.458 55.648C103.13 55.2853 103.887 55.104 104.73 55.104ZM104.73 56.384C104.207 56.384 103.722 56.5013 103.274 56.736C102.837 56.9707 102.479 57.3333 102.202 57.824C101.935 58.304 101.802 58.9013 101.802 59.616C101.802 60.32 101.935 60.9173 102.202 61.408C102.479 61.888 102.837 62.2453 103.274 62.48C103.722 62.7147 104.207 62.832 104.73 62.832C105.253 62.832 105.733 62.7147 106.17 62.48C106.618 62.2453 106.975 61.888 107.242 61.408C107.519 60.9173 107.658 60.32 107.658 59.616C107.658 58.9013 107.519 58.304 107.242 57.824C106.975 57.3333 106.618 56.9707 106.17 56.736C105.733 56.5013 105.253 56.384 104.73 56.384ZM112.483 56.992C112.771 56.384 113.193 55.9147 113.747 55.584C114.302 55.2427 114.963 55.072 115.731 55.072V56.656H115.283C114.462 56.656 113.79 56.8693 113.267 57.296C112.745 57.712 112.483 58.4053 112.483 59.376V64H111.027V55.216H112.483V56.992ZM121.984 64L118.624 60.048V64H117.168V52.16H118.624V59.04L121.936 55.216H123.712L119.776 59.584L123.808 64H121.984ZM124.834 52.64C124.834 52.3733 124.925 52.16 125.106 52C125.287 51.8293 125.527 51.744 125.826 51.744C126.125 51.744 126.365 51.8293 126.546 52C126.727 52.16 126.818 52.3733 126.818 52.64C126.818 52.9067 126.727 53.1253 126.546 53.296C126.365 53.456 126.125 53.536 125.826 53.536C125.527 53.536 125.287 53.456 125.106 53.296C124.925 53.1253 124.834 52.9067 124.834 52.64ZM126.546 55.216V64H125.09V55.216H126.546ZM133.511 55.072C134.535 55.072 135.361 55.4027 135.991 56.064C136.62 56.7147 136.935 57.6587 136.935 58.896V64H135.479V59.024C135.479 58.1493 135.255 57.4773 134.807 57.008C134.359 56.5387 133.751 56.304 132.983 56.304C132.183 56.304 131.543 56.5653 131.063 57.088C130.583 57.6 130.343 58.352 130.343 59.344V64H128.887V55.216H130.343V57.296C130.567 56.5813 130.961 56.032 131.527 55.648C132.103 55.264 132.764 55.072 133.511 55.072ZM142.768 55.104C143.621 55.104 144.341 55.3173 144.928 55.744C145.525 56.1707 145.941 56.7413 146.176 57.456V55.216H147.632V64.144C147.632 64.9547 147.461 65.6747 147.12 66.304C146.779 66.9333 146.299 67.424 145.68 67.776C145.061 68.128 144.341 68.304 143.52 68.304C142.336 68.304 141.371 68.016 140.624 67.44C139.877 66.8747 139.403 66.1067 139.2 65.136H140.64C140.811 65.7227 141.131 66.1813 141.6 66.512C142.08 66.8533 142.693 67.024 143.44 67.024C144.229 67.024 144.88 66.768 145.392 66.256C145.915 65.7547 146.176 65.0507 146.176 64.144V61.76C145.941 62.4747 145.525 63.0453 144.928 63.472C144.341 63.8987 143.621 64.112 142.768 64.112C141.989 64.112 141.296 63.9307 140.688 63.568C140.08 63.2053 139.6 62.688 139.248 62.016C138.907 61.3333 138.736 60.5333 138.736 59.616C138.736 58.6987 138.907 57.8987 139.248 57.216C139.6 56.5333 140.08 56.0107 140.688 55.648C141.296 55.2853 141.989 55.104 142.768 55.104ZM143.184 56.4C142.288 56.4 141.568 56.688 141.024 57.264C140.491 57.8293 140.224 58.6133 140.224 59.616C140.224 60.6187 140.491 61.408 141.024 61.984C141.568 62.5493 142.288 62.832 143.184 62.832C143.76 62.832 144.272 62.6987 144.72 62.432C145.179 62.1653 145.536 61.792 145.792 61.312C146.048 60.8213 146.176 60.256 146.176 59.616C146.176 58.976 146.048 58.4107 145.792 57.92C145.536 57.4293 145.179 57.056 144.72 56.8C144.272 56.5333 143.76 56.4 143.184 56.4ZM158.094 62.72V64H157.006C156.11 64 155.438 63.7867 154.99 63.36C154.553 62.9333 154.334 62.2187 154.334 61.216V56.48H153.022V55.216H154.334V53.024H155.806V55.216H158.078V56.48H155.806V61.248C155.806 61.8133 155.908 62.2027 156.11 62.416C156.324 62.6187 156.686 62.72 157.198 62.72H158.094ZM163.855 55.104C164.698 55.104 165.45 55.2853 166.111 55.648C166.783 56.0107 167.306 56.5333 167.679 57.216C168.063 57.8987 168.255 58.6987 168.255 59.616C168.255 60.5333 168.063 61.3333 167.679 62.016C167.306 62.688 166.783 63.2053 166.111 63.568C165.45 63.9307 164.698 64.112 163.855 64.112C163.012 64.112 162.255 63.9307 161.583 63.568C160.922 63.2053 160.399 62.688 160.015 62.016C159.631 61.3333 159.439 60.5333 159.439 59.616C159.439 58.6987 159.631 57.8987 160.015 57.216C160.399 56.5333 160.922 56.0107 161.583 55.648C162.255 55.2853 163.012 55.104 163.855 55.104ZM163.855 56.384C163.332 56.384 162.847 56.5013 162.399 56.736C161.962 56.9707 161.604 57.3333 161.327 57.824C161.06 58.304 160.927 58.9013 160.927 59.616C160.927 60.32 161.06 60.9173 161.327 61.408C161.604 61.888 161.962 62.2453 162.399 62.48C162.847 62.7147 163.332 62.832 163.855 62.832C164.378 62.832 164.858 62.7147 165.295 62.48C165.743 62.2453 166.1 61.888 166.367 61.408C166.644 60.9173 166.783 60.32 166.783 59.616C166.783 58.9013 166.644 58.304 166.367 57.824C166.1 57.3333 165.743 56.9707 165.295 56.736C164.858 56.5013 164.378 56.384 163.855 56.384ZM173.752 55.104C174.606 55.104 175.326 55.3173 175.912 55.744C176.51 56.1707 176.926 56.7413 177.16 57.456V55.216H178.616V64.144C178.616 64.9547 178.446 65.6747 178.104 66.304C177.763 66.9333 177.283 67.424 176.664 67.776C176.046 68.128 175.326 68.304 174.504 68.304C173.32 68.304 172.355 68.016 171.608 67.44C170.862 66.8747 170.387 66.1067 170.184 65.136H171.624C171.795 65.7227 172.115 66.1813 172.584 66.512C173.064 66.8533 173.678 67.024 174.424 67.024C175.214 67.024 175.864 66.768 176.376 66.256C176.899 65.7547 177.16 65.0507 177.16 64.144V61.76C176.926 62.4747 176.51 63.0453 175.912 63.472C175.326 63.8987 174.606 64.112 173.752 64.112C172.974 64.112 172.28 63.9307 171.672 63.568C171.064 63.2053 170.584 62.688 170.232 62.016C169.891 61.3333 169.72 60.5333 169.72 59.616C169.72 58.6987 169.891 57.8987 170.232 57.216C170.584 56.5333 171.064 56.0107 171.672 55.648C172.28 55.2853 172.974 55.104 173.752 55.104ZM174.168 56.4C173.272 56.4 172.552 56.688 172.008 57.264C171.475 57.8293 171.208 58.6133 171.208 59.616C171.208 60.6187 171.475 61.408 172.008 61.984C172.552 62.5493 173.272 62.832 174.168 62.832C174.744 62.832 175.256 62.6987 175.704 62.432C176.163 62.1653 176.52 61.792 176.776 61.312C177.032 60.8213 177.16 60.256 177.16 59.616C177.16 58.976 177.032 58.4107 176.776 57.92C176.52 57.4293 176.163 57.056 175.704 56.8C175.256 56.5333 174.744 56.4 174.168 56.4ZM189.014 59.12C189.014 59.4293 188.992 59.696 188.95 59.92H181.926C181.958 60.9227 182.24 61.6747 182.774 62.176C183.318 62.6773 183.979 62.928 184.758 62.928C185.462 62.928 186.048 62.752 186.518 62.4C186.998 62.0373 187.291 61.5573 187.398 60.96H188.95C188.843 61.568 188.603 62.112 188.23 62.592C187.867 63.072 187.392 63.4453 186.806 63.712C186.219 63.9787 185.558 64.112 184.822 64.112C183.979 64.112 183.232 63.9307 182.582 63.568C181.931 63.2053 181.419 62.688 181.046 62.016C180.683 61.3333 180.502 60.5333 180.502 59.616C180.502 58.6987 180.683 57.8987 181.046 57.216C181.419 56.5333 181.931 56.0107 182.582 55.648C183.232 55.2853 183.979 55.104 184.822 55.104C185.675 55.104 186.416 55.2853 187.046 55.648C187.686 56.0107 188.171 56.496 188.502 57.104C188.843 57.712 189.014 58.384 189.014 59.12ZM187.542 59.216C187.574 58.5653 187.467 58.0213 187.222 57.584C186.976 57.1467 186.64 56.8213 186.214 56.608C185.787 56.3947 185.323 56.288 184.822 56.288C184.022 56.288 183.35 56.5387 182.806 57.04C182.262 57.5307 181.968 58.256 181.926 59.216H187.542ZM195.11 62.72V64H194.022C193.126 64 192.454 63.7867 192.006 63.36C191.569 62.9333 191.35 62.2187 191.35 61.216V56.48H190.038V55.216H191.35V53.024H192.822V55.216H195.094V56.48H192.822V61.248C192.822 61.8133 192.923 62.2027 193.126 62.416C193.339 62.6187 193.702 62.72 194.214 62.72H195.11ZM201.511 55.072C202.535 55.072 203.361 55.4027 203.991 56.064C204.62 56.7147 204.935 57.6587 204.935 58.896V64H203.479V59.024C203.479 58.1493 203.255 57.4773 202.807 57.008C202.359 56.5387 201.751 56.304 200.983 56.304C200.183 56.304 199.543 56.5653 199.063 57.088C198.583 57.6 198.343 58.352 198.343 59.344V64H196.887V52.16H198.343V57.296C198.567 56.5813 198.961 56.032 199.527 55.648C200.103 55.264 200.764 55.072 201.511 55.072ZM215.248 59.12C215.248 59.4293 215.227 59.696 215.184 59.92H208.16C208.192 60.9227 208.475 61.6747 209.008 62.176C209.552 62.6773 210.213 62.928 210.992 62.928C211.696 62.928 212.283 62.752 212.752 62.4C213.232 62.0373 213.525 61.5573 213.632 60.96H215.184C215.077 61.568 214.837 62.112 214.464 62.592C214.101 63.072 213.627 63.4453 213.04 63.712C212.453 63.9787 211.792 64.112 211.056 64.112C210.213 64.112 209.467 63.9307 208.816 63.568C208.165 63.2053 207.653 62.688 207.28 62.016C206.917 61.3333 206.736 60.5333 206.736 59.616C206.736 58.6987 206.917 57.8987 207.28 57.216C207.653 56.5333 208.165 56.0107 208.816 55.648C209.467 55.2853 210.213 55.104 211.056 55.104C211.909 55.104 212.651 55.2853 213.28 55.648C213.92 56.0107 214.405 56.496 214.736 57.104C215.077 57.712 215.248 58.384 215.248 59.12ZM213.776 59.216C213.808 58.5653 213.701 58.0213 213.456 57.584C213.211 57.1467 212.875 56.8213 212.448 56.608C212.021 56.3947 211.557 56.288 211.056 56.288C210.256 56.288 209.584 56.5387 209.04 57.04C208.496 57.5307 208.203 58.256 208.16 59.216H213.776ZM218.608 56.992C218.896 56.384 219.318 55.9147 219.872 55.584C220.427 55.2427 221.088 55.072 221.856 55.072V56.656H221.408C220.587 56.656 219.915 56.8693 219.392 57.296C218.87 57.712 218.608 58.4053 218.608 59.376V64H217.152V55.216H218.608V56.992ZM239.31 55.216L236.782 64H235.214L232.798 56.848L230.366 64H228.782L226.286 55.216H227.758L229.63 62.608L232.062 55.216H233.582L236.03 62.592L237.918 55.216H239.31ZM244.652 55.104C245.495 55.104 246.247 55.2853 246.908 55.648C247.58 56.0107 248.103 56.5333 248.476 57.216C248.86 57.8987 249.052 58.6987 249.052 59.616C249.052 60.5333 248.86 61.3333 248.476 62.016C248.103 62.688 247.58 63.2053 246.908 63.568C246.247 63.9307 245.495 64.112 244.652 64.112C243.809 64.112 243.052 63.9307 242.38 63.568C241.719 63.2053 241.196 62.688 240.812 62.016C240.428 61.3333 240.236 60.5333 240.236 59.616C240.236 58.6987 240.428 57.8987 240.812 57.216C241.196 56.5333 241.719 56.0107 242.38 55.648C243.052 55.2853 243.809 55.104 244.652 55.104ZM244.652 56.384C244.129 56.384 243.644 56.5013 243.196 56.736C242.759 56.9707 242.401 57.3333 242.124 57.824C241.857 58.304 241.724 58.9013 241.724 59.616C241.724 60.32 241.857 60.9173 242.124 61.408C242.401 61.888 242.759 62.2453 243.196 62.48C243.644 62.7147 244.129 62.832 244.652 62.832C245.175 62.832 245.655 62.7147 246.092 62.48C246.54 62.2453 246.897 61.888 247.164 61.408C247.441 60.9173 247.58 60.32 247.58 59.616C247.58 58.9013 247.441 58.304 247.164 57.824C246.897 57.3333 246.54 56.9707 246.092 56.736C245.655 56.5013 245.175 56.384 244.652 56.384ZM252.405 56.992C252.693 56.384 253.115 55.9147 253.669 55.584C254.224 55.2427 254.885 55.072 255.653 55.072V56.656H255.205C254.384 56.656 253.712 56.8693 253.189 57.296C252.667 57.712 252.405 58.4053 252.405 59.376V64H250.949V55.216H252.405V56.992ZM258.546 52.16V64H257.09V52.16H258.546ZM264.487 55.104C265.34 55.104 266.06 55.3173 266.647 55.744C267.244 56.1707 267.66 56.7413 267.895 57.456V52.16H269.351V64H267.895V61.76C267.66 62.4747 267.244 63.0453 266.647 63.472C266.06 63.8987 265.34 64.112 264.487 64.112C263.708 64.112 263.015 63.9307 262.407 63.568C261.799 63.2053 261.319 62.688 260.967 62.016C260.625 61.3333 260.455 60.5333 260.455 59.616C260.455 58.6987 260.625 57.8987 260.967 57.216C261.319 56.5333 261.799 56.0107 262.407 55.648C263.015 55.2853 263.708 55.104 264.487 55.104ZM264.903 56.4C264.007 56.4 263.287 56.688 262.743 57.264C262.209 57.8293 261.943 58.6133 261.943 59.616C261.943 60.6187 262.209 61.408 262.743 61.984C263.287 62.5493 264.007 62.832 264.903 62.832C265.479 62.832 265.991 62.6987 266.439 62.432C266.897 62.1653 267.255 61.792 267.511 61.312C267.767 60.8213 267.895 60.256 267.895 59.616C267.895 58.976 267.767 58.4107 267.511 57.92C267.255 57.4293 266.897 57.056 266.439 56.8C265.991 56.5333 265.479 56.4 264.903 56.4ZM283.732 55.216L281.204 64H279.636L277.22 56.848L274.788 64H273.204L270.708 55.216H272.18L274.052 62.608L276.484 55.216H278.004L280.452 62.592L282.34 55.216H283.732ZM284.834 52.64C284.834 52.3733 284.925 52.16 285.106 52C285.287 51.8293 285.527 51.744 285.826 51.744C286.125 51.744 286.365 51.8293 286.546 52C286.727 52.16 286.818 52.3733 286.818 52.64C286.818 52.9067 286.727 53.1253 286.546 53.296C286.365 53.456 286.125 53.536 285.826 53.536C285.527 53.536 285.287 53.456 285.106 53.296C284.925 53.1253 284.834 52.9067 284.834 52.64ZM286.546 55.216V64H285.09V55.216H286.546ZM292.487 55.104C293.34 55.104 294.06 55.3173 294.647 55.744C295.244 56.1707 295.66 56.7413 295.895 57.456V52.16H297.351V64H295.895V61.76C295.66 62.4747 295.244 63.0453 294.647 63.472C294.06 63.8987 293.34 64.112 292.487 64.112C291.708 64.112 291.015 63.9307 290.407 63.568C289.799 63.2053 289.319 62.688 288.967 62.016C288.625 61.3333 288.455 60.5333 288.455 59.616C288.455 58.6987 288.625 57.8987 288.967 57.216C289.319 56.5333 289.799 56.0107 290.407 55.648C291.015 55.2853 291.708 55.104 292.487 55.104ZM292.903 56.4C292.007 56.4 291.287 56.688 290.743 57.264C290.209 57.8293 289.943 58.6133 289.943 59.616C289.943 60.6187 290.209 61.408 290.743 61.984C291.287 62.5493 292.007 62.832 292.903 62.832C293.479 62.832 293.991 62.6987 294.439 62.432C294.897 62.1653 295.255 61.792 295.511 61.312C295.767 60.8213 295.895 60.256 295.895 59.616C295.895 58.976 295.767 58.4107 295.511 57.92C295.255 57.4293 294.897 57.056 294.439 56.8C293.991 56.5333 293.479 56.4 292.903 56.4ZM307.748 59.12C307.748 59.4293 307.727 59.696 307.684 59.92H300.66C300.692 60.9227 300.975 61.6747 301.508 62.176C302.052 62.6773 302.713 62.928 303.492 62.928C304.196 62.928 304.783 62.752 305.252 62.4C305.732 62.0373 306.025 61.5573 306.132 60.96H307.684C307.577 61.568 307.337 62.112 306.964 62.592C306.601 63.072 306.127 63.4453 305.54 63.712C304.953 63.9787 304.292 64.112 303.556 64.112C302.713 64.112 301.967 63.9307 301.316 63.568C300.665 63.2053 300.153 62.688 299.78 62.016C299.417 61.3333 299.236 60.5333 299.236 59.616C299.236 58.6987 299.417 57.8987 299.78 57.216C300.153 56.5333 300.665 56.0107 301.316 55.648C301.967 55.2853 302.713 55.104 303.556 55.104C304.409 55.104 305.151 55.2853 305.78 55.648C306.42 56.0107 306.905 56.496 307.236 57.104C307.577 57.712 307.748 58.384 307.748 59.12ZM306.276 59.216C306.308 58.5653 306.201 58.0213 305.956 57.584C305.711 57.1467 305.375 56.8213 304.948 56.608C304.521 56.3947 304.057 56.288 303.556 56.288C302.756 56.288 302.084 56.5387 301.54 57.04C300.996 57.5307 300.703 58.256 300.66 59.216H306.276ZM90.016 87.104C90.7947 87.104 91.488 87.2853 92.096 87.648C92.704 88.0107 93.1787 88.5333 93.52 89.216C93.872 89.8987 94.048 90.6987 94.048 91.616C94.048 92.5333 93.872 93.3333 93.52 94.016C93.1787 94.688 92.704 95.2053 92.096 95.568C91.488 95.9307 90.7947 96.112 90.016 96.112C89.1627 96.112 88.4373 95.8987 87.84 95.472C87.2533 95.0347 86.848 94.464 86.624 93.76V100.16H85.168V87.216H86.624V89.456C86.848 88.752 87.2533 88.1867 87.84 87.76C88.4373 87.3227 89.1627 87.104 90.016 87.104ZM89.6 88.4C89.0347 88.4 88.5227 88.5333 88.064 88.8C87.6053 89.056 87.248 89.4293 86.992 89.92C86.736 90.4107 86.608 90.976 86.608 91.616C86.608 92.256 86.736 92.8213 86.992 93.312C87.248 93.792 87.6053 94.1653 88.064 94.432C88.5227 94.6987 89.0347 94.832 89.6 94.832C90.5067 94.832 91.2267 94.5493 91.76 93.984C92.304 93.408 92.576 92.6187 92.576 91.616C92.576 90.6133 92.304 89.8293 91.76 89.264C91.2267 88.688 90.5067 88.4 89.6 88.4ZM104.029 91.12C104.029 91.4293 104.008 91.696 103.965 91.92H96.9413C96.9733 92.9227 97.2559 93.6747 97.7893 94.176C98.3333 94.6773 98.9946 94.928 99.7733 94.928C100.477 94.928 101.064 94.752 101.533 94.4C102.013 94.0373 102.307 93.5573 102.413 92.96H103.965C103.859 93.568 103.619 94.112 103.245 94.592C102.883 95.072 102.408 95.4453 101.821 95.712C101.235 95.9787 100.573 96.112 99.8373 96.112C98.9946 96.112 98.2479 95.9307 97.5973 95.568C96.9466 95.2053 96.4346 94.688 96.0613 94.016C95.6986 93.3333 95.5173 92.5333 95.5173 91.616C95.5173 90.6987 95.6986 89.8987 96.0613 89.216C96.4346 88.5333 96.9466 88.0107 97.5973 87.648C98.2479 87.2853 98.9946 87.104 99.8373 87.104C100.691 87.104 101.432 87.2853 102.061 87.648C102.701 88.0107 103.187 88.496 103.517 89.104C103.859 89.712 104.029 90.384 104.029 91.12ZM102.557 91.216C102.589 90.5653 102.483 90.0213 102.237 89.584C101.992 89.1467 101.656 88.8213 101.229 88.608C100.803 88.3947 100.339 88.288 99.8373 88.288C99.0373 88.288 98.3653 88.5387 97.8213 89.04C97.2773 89.5307 96.9839 90.256 96.9413 91.216H102.557ZM109.918 87.104C110.76 87.104 111.512 87.2853 112.174 87.648C112.846 88.0107 113.368 88.5333 113.742 89.216C114.126 89.8987 114.318 90.6987 114.318 91.616C114.318 92.5333 114.126 93.3333 113.742 94.016C113.368 94.688 112.846 95.2053 112.174 95.568C111.512 95.9307 110.76 96.112 109.918 96.112C109.075 96.112 108.318 95.9307 107.646 95.568C106.984 95.2053 106.462 94.688 106.078 94.016C105.694 93.3333 105.502 92.5333 105.502 91.616C105.502 90.6987 105.694 89.8987 106.078 89.216C106.462 88.5333 106.984 88.0107 107.646 87.648C108.318 87.2853 109.075 87.104 109.918 87.104ZM109.918 88.384C109.395 88.384 108.91 88.5013 108.462 88.736C108.024 88.9707 107.667 89.3333 107.39 89.824C107.123 90.304 106.99 90.9013 106.99 91.616C106.99 92.32 107.123 92.9173 107.39 93.408C107.667 93.888 108.024 94.2453 108.462 94.48C108.91 94.7147 109.395 94.832 109.918 94.832C110.44 94.832 110.92 94.7147 111.358 94.48C111.806 94.2453 112.163 93.888 112.43 93.408C112.707 92.9173 112.846 92.32 112.846 91.616C112.846 90.9013 112.707 90.304 112.43 89.824C112.163 89.3333 111.806 88.9707 111.358 88.736C110.92 88.5013 110.44 88.384 109.918 88.384ZM121.063 87.104C121.842 87.104 122.535 87.2853 123.143 87.648C123.751 88.0107 124.226 88.5333 124.567 89.216C124.919 89.8987 125.095 90.6987 125.095 91.616C125.095 92.5333 124.919 93.3333 124.567 94.016C124.226 94.688 123.751 95.2053 123.143 95.568C122.535 95.9307 121.842 96.112 121.063 96.112C120.21 96.112 119.484 95.8987 118.887 95.472C118.3 95.0347 117.895 94.464 117.671 93.76V100.16H116.215V87.216H117.671V89.456C117.895 88.752 118.3 88.1867 118.887 87.76C119.484 87.3227 120.21 87.104 121.063 87.104ZM120.647 88.4C120.082 88.4 119.57 88.5333 119.111 88.8C118.652 89.056 118.295 89.4293 118.039 89.92C117.783 90.4107 117.655 90.976 117.655 91.616C117.655 92.256 117.783 92.8213 118.039 93.312C118.295 93.792 118.652 94.1653 119.111 94.432C119.57 94.6987 120.082 94.832 120.647 94.832C121.554 94.832 122.274 94.5493 122.807 93.984C123.351 93.408 123.623 92.6187 123.623 91.616C123.623 90.6133 123.351 89.8293 122.807 89.264C122.274 88.688 121.554 88.4 120.647 88.4ZM128.452 84.16V96H126.996V84.16H128.452ZM138.873 91.12C138.873 91.4293 138.852 91.696 138.809 91.92H131.785C131.817 92.9227 132.1 93.6747 132.633 94.176C133.177 94.6773 133.838 94.928 134.617 94.928C135.321 94.928 135.908 94.752 136.377 94.4C136.857 94.0373 137.15 93.5573 137.257 92.96H138.809C138.702 93.568 138.462 94.112 138.089 94.592C137.726 95.072 137.252 95.4453 136.665 95.712C136.078 95.9787 135.417 96.112 134.681 96.112C133.838 96.112 133.092 95.9307 132.441 95.568C131.79 95.2053 131.278 94.688 130.905 94.016C130.542 93.3333 130.361 92.5333 130.361 91.616C130.361 90.6987 130.542 89.8987 130.905 89.216C131.278 88.5333 131.79 88.0107 132.441 87.648C133.092 87.2853 133.838 87.104 134.681 87.104C135.534 87.104 136.276 87.2853 136.905 87.648C137.545 88.0107 138.03 88.496 138.361 89.104C138.702 89.712 138.873 90.384 138.873 91.12ZM137.401 91.216C137.433 90.5653 137.326 90.0213 137.081 89.584C136.836 89.1467 136.5 88.8213 136.073 88.608C135.646 88.3947 135.182 88.288 134.681 88.288C133.881 88.288 133.209 88.5387 132.665 89.04C132.121 89.5307 131.828 90.256 131.785 91.216H137.401ZM148.619 85.136C147.84 85.1253 147.296 85.2587 146.987 85.536C146.688 85.8133 146.539 86.2933 146.539 86.976V87.216H148.619V88.496H146.539V96H145.083V88.496H143.819V87.216H145.083V86.864C145.083 84.7627 146.261 83.76 148.619 83.856V85.136ZM151.655 88.992C151.943 88.384 152.365 87.9147 152.919 87.584C153.474 87.2427 154.135 87.072 154.903 87.072V88.656H154.455C153.634 88.656 152.962 88.8693 152.439 89.296C151.917 89.712 151.655 90.4053 151.655 91.376V96H150.199V87.216H151.655V88.992ZM160.324 87.104C161.167 87.104 161.919 87.2853 162.58 87.648C163.252 88.0107 163.775 88.5333 164.148 89.216C164.532 89.8987 164.724 90.6987 164.724 91.616C164.724 92.5333 164.532 93.3333 164.148 94.016C163.775 94.688 163.252 95.2053 162.58 95.568C161.919 95.9307 161.167 96.112 160.324 96.112C159.481 96.112 158.724 95.9307 158.052 95.568C157.391 95.2053 156.868 94.688 156.484 94.016C156.1 93.3333 155.908 92.5333 155.908 91.616C155.908 90.6987 156.1 89.8987 156.484 89.216C156.868 88.5333 157.391 88.0107 158.052 87.648C158.724 87.2853 159.481 87.104 160.324 87.104ZM160.324 88.384C159.801 88.384 159.316 88.5013 158.868 88.736C158.431 88.9707 158.073 89.3333 157.796 89.824C157.529 90.304 157.396 90.9013 157.396 91.616C157.396 92.32 157.529 92.9173 157.796 93.408C158.073 93.888 158.431 94.2453 158.868 94.48C159.316 94.7147 159.801 94.832 160.324 94.832C160.847 94.832 161.327 94.7147 161.764 94.48C162.212 94.2453 162.569 93.888 162.836 93.408C163.113 92.9173 163.252 92.32 163.252 91.616C163.252 90.9013 163.113 90.304 162.836 89.824C162.569 89.3333 162.212 88.9707 161.764 88.736C161.327 88.5013 160.847 88.384 160.324 88.384ZM177.421 87.072C178.445 87.072 179.266 87.4027 179.885 88.064C180.514 88.7147 180.829 89.6587 180.829 90.896V96H179.373V91.024C179.373 90.16 179.16 89.4987 178.733 89.04C178.317 88.5813 177.741 88.352 177.005 88.352C176.237 88.352 175.618 88.608 175.149 89.12C174.69 89.6213 174.461 90.3627 174.461 91.344V96H173.005V91.024C173.005 90.16 172.792 89.4987 172.365 89.04C171.938 88.5813 171.362 88.352 170.637 88.352C169.858 88.352 169.234 88.608 168.765 89.12C168.306 89.6213 168.077 90.3627 168.077 91.344V96H166.621V87.216H168.077V89.216C168.29 88.5227 168.669 87.9947 169.213 87.632C169.768 87.2587 170.402 87.072 171.117 87.072C171.864 87.072 172.509 87.264 173.053 87.648C173.608 88.0213 174.002 88.576 174.237 89.312C174.482 88.5973 174.893 88.048 175.469 87.664C176.045 87.2693 176.696 87.072 177.421 87.072ZM190.643 87.104C191.496 87.104 192.216 87.3173 192.803 87.744C193.4 88.1707 193.816 88.7413 194.051 89.456V87.216H195.507V96H194.051V93.76C193.816 94.4747 193.4 95.0453 192.803 95.472C192.216 95.8987 191.496 96.112 190.643 96.112C189.864 96.112 189.171 95.9307 188.563 95.568C187.955 95.2053 187.475 94.688 187.123 94.016C186.782 93.3333 186.611 92.5333 186.611 91.616C186.611 90.6987 186.782 89.8987 187.123 89.216C187.475 88.5333 187.955 88.0107 188.563 87.648C189.171 87.2853 189.864 87.104 190.643 87.104ZM191.059 88.4C190.163 88.4 189.443 88.688 188.899 89.264C188.366 89.8293 188.099 90.6133 188.099 91.616C188.099 92.6187 188.366 93.408 188.899 93.984C189.443 94.5493 190.163 94.832 191.059 94.832C191.635 94.832 192.147 94.6987 192.595 94.432C193.054 94.1653 193.411 93.792 193.667 93.312C193.923 92.8213 194.051 92.256 194.051 91.616C194.051 90.976 193.923 90.4107 193.667 89.92C193.411 89.4293 193.054 89.056 192.595 88.8C192.147 88.5333 191.635 88.4 191.059 88.4ZM202.448 87.072C203.472 87.072 204.299 87.4027 204.928 88.064C205.558 88.7147 205.872 89.6587 205.872 90.896V96H204.416V91.024C204.416 90.1493 204.192 89.4773 203.744 89.008C203.296 88.5387 202.688 88.304 201.92 88.304C201.12 88.304 200.48 88.5653 200 89.088C199.52 89.6 199.28 90.352 199.28 91.344V96H197.824V87.216H199.28V89.296C199.504 88.5813 199.899 88.032 200.464 87.648C201.04 87.264 201.702 87.072 202.448 87.072ZM208.714 87.216L211.562 94.128L214.202 87.216H215.818L210.602 100.16H208.954L210.778 95.856L207.082 87.216H208.714ZM229.216 87.216L226.688 96H225.12L222.704 88.848L220.272 96H218.688L216.192 87.216H217.664L219.536 94.608L221.968 87.216H223.488L225.936 94.592L227.824 87.216H229.216ZM235.198 87.072C236.222 87.072 237.049 87.4027 237.678 88.064C238.308 88.7147 238.622 89.6587 238.622 90.896V96H237.166V91.024C237.166 90.1493 236.942 89.4773 236.494 89.008C236.046 88.5387 235.438 88.304 234.67 88.304C233.87 88.304 233.23 88.5653 232.75 89.088C232.27 89.6 232.03 90.352 232.03 91.344V96H230.574V84.16H232.03V89.296C232.254 88.5813 232.649 88.032 233.214 87.648C233.79 87.264 234.452 87.072 235.198 87.072ZM248.936 91.12C248.936 91.4293 248.914 91.696 248.872 91.92H241.848C241.88 92.9227 242.162 93.6747 242.696 94.176C243.24 94.6773 243.901 94.928 244.68 94.928C245.384 94.928 245.97 94.752 246.44 94.4C246.92 94.0373 247.213 93.5573 247.32 92.96H248.872C248.765 93.568 248.525 94.112 248.152 94.592C247.789 95.072 247.314 95.4453 246.728 95.712C246.141 95.9787 245.48 96.112 244.744 96.112C243.901 96.112 243.154 95.9307 242.504 95.568C241.853 95.2053 241.341 94.688 240.968 94.016C240.605 93.3333 240.424 92.5333 240.424 91.616C240.424 90.6987 240.605 89.8987 240.968 89.216C241.341 88.5333 241.853 88.0107 242.504 87.648C243.154 87.2853 243.901 87.104 244.744 87.104C245.597 87.104 246.338 87.2853 246.968 87.648C247.608 88.0107 248.093 88.496 248.424 89.104C248.765 89.712 248.936 90.384 248.936 91.12ZM247.464 91.216C247.496 90.5653 247.389 90.0213 247.144 89.584C246.898 89.1467 246.562 88.8213 246.136 88.608C245.709 88.3947 245.245 88.288 244.744 88.288C243.944 88.288 243.272 88.5387 242.728 89.04C242.184 89.5307 241.89 90.256 241.848 91.216H247.464ZM252.296 88.992C252.584 88.384 253.005 87.9147 253.56 87.584C254.115 87.2427 254.776 87.072 255.544 87.072V88.656H255.096C254.275 88.656 253.603 88.8693 253.08 89.296C252.557 89.712 252.296 90.4053 252.296 91.376V96H250.84V87.216H252.296V88.992ZM265.061 91.12C265.061 91.4293 265.039 91.696 264.997 91.92H257.973C258.005 92.9227 258.287 93.6747 258.821 94.176C259.365 94.6773 260.026 94.928 260.805 94.928C261.509 94.928 262.095 94.752 262.565 94.4C263.045 94.0373 263.338 93.5573 263.445 92.96H264.997C264.89 93.568 264.65 94.112 264.277 94.592C263.914 95.072 263.439 95.4453 262.853 95.712C262.266 95.9787 261.605 96.112 260.869 96.112C260.026 96.112 259.279 95.9307 258.629 95.568C257.978 95.2053 257.466 94.688 257.093 94.016C256.73 93.3333 256.549 92.5333 256.549 91.616C256.549 90.6987 256.73 89.8987 257.093 89.216C257.466 88.5333 257.978 88.0107 258.629 87.648C259.279 87.2853 260.026 87.104 260.869 87.104C261.722 87.104 262.463 87.2853 263.093 87.648C263.733 88.0107 264.218 88.496 264.549 89.104C264.89 89.712 265.061 90.384 265.061 91.12ZM263.589 91.216C263.621 90.5653 263.514 90.0213 263.269 89.584C263.023 89.1467 262.687 88.8213 262.261 88.608C261.834 88.3947 261.37 88.288 260.869 88.288C260.069 88.288 259.397 88.5387 258.853 89.04C258.309 89.5307 258.015 90.256 257.973 91.216H263.589Z" fill="#575455"/>
<circle cx="30" cy="30" r="30" fill="#F7954E"/>
<path d="M30 40C35.5228 40 40 35.5228 40 30C40 24.4772 35.5228 20 30 20C24.4772 20 20 24.4772 20 30C20 35.5228 24.4772 40 30 40Z" stroke="white" stroke-width="2" stroke-linecap="round" stroke-linejoin="round"/>
<path d="M20 30H40" stroke="white" stroke-width="2" stroke-linecap="round" stroke-linejoin="round"/>
<path d="M30 20C32.5013 22.7384 33.9228 26.292 34 30C33.9228 33.708 32.5013 37.2616 30 40C27.4987 37.2616 26.0772 33.708 26 30C26.0772 26.292 27.4987 22.7384 30 20V20Z" stroke="white" stroke-width="2" stroke-linecap="round" stroke-linejoin="round"/>
<path d="M84.24 10.52V7.88H89.32V22H86.36V10.52H84.24ZM91.9616 11.1C91.9616 10.42 92.1482 9.78667 92.5216 9.2C92.9082 8.61333 93.4749 8.14 94.2216 7.78C94.9816 7.42 95.8949 7.24 96.9616 7.24C98.0282 7.24 98.9349 7.42 99.6816 7.78C100.442 8.14 101.008 8.61333 101.382 9.2C101.768 9.78667 101.962 10.42 101.962 11.1C101.962 11.8733 101.775 12.5333 101.402 13.08C101.028 13.6133 100.468 14.0133 99.7216 14.28C100.562 14.6 101.202 15.0667 101.642 15.68C102.095 16.28 102.322 17.0133 102.322 17.88C102.322 18.8133 102.088 19.62 101.622 20.3C101.155 20.9667 100.515 21.4733 99.7016 21.82C98.9016 22.1667 97.9882 22.34 96.9616 22.34C95.9349 22.34 95.0149 22.1667 94.2016 21.82C93.4016 21.4733 92.7682 20.9667 92.3016 20.3C91.8482 19.62 91.6216 18.8133 91.6216 17.88C91.6216 17.0133 91.8416 16.28 92.2816 15.68C92.7349 15.0667 93.3816 14.6 94.2216 14.28C93.4749 14.0133 92.9082 13.6067 92.5216 13.06C92.1482 12.5133 91.9616 11.86 91.9616 11.1ZM94.7416 11.56C94.7416 12.2 94.9416 12.6933 95.3416 13.04C95.7416 13.3867 96.2816 13.56 96.9616 13.56C97.6549 13.56 98.2016 13.3867 98.6016 13.04C99.0016 12.6933 99.2016 12.2 99.2016 11.56C99.2016 10.92 98.9949 10.4267 98.5816 10.08C98.1816 9.72 97.6416 9.54 96.9616 9.54C96.2949 9.54 95.7549 9.72 95.3416 10.08C94.9416 10.4267 94.7416 10.92 94.7416 11.56ZM94.3616 17.72C94.3616 18.4267 94.5949 18.9867 95.0616 19.4C95.5282 19.8133 96.1616 20.02 96.9616 20.02C97.7616 20.02 98.3949 19.8133 98.8616 19.4C99.3416 18.9867 99.5816 18.4267 99.5816 17.72C99.5816 17 99.3349 16.4533 98.8416 16.08C98.3616 15.6933 97.7349 15.5 96.9616 15.5C96.2016 15.5 95.5749 15.6933 95.0816 16.08C94.6016 16.4533 94.3616 17 94.3616 17.72ZM107.256 17.8C107.469 19.1867 108.189 19.88 109.416 19.88C110.349 19.88 111.023 19.4733 111.436 18.66C111.849 17.8333 112.029 16.5467 111.976 14.8C111.763 15.44 111.343 15.9533 110.716 16.34C110.103 16.7133 109.383 16.9 108.556 16.9C107.196 16.9 106.123 16.4933 105.336 15.68C104.563 14.8533 104.176 13.6867 104.176 12.18C104.176 11.26 104.363 10.44 104.736 9.72C105.109 8.98667 105.663 8.41333 106.396 8C107.143 7.58667 108.043 7.38 109.096 7.38C111.149 7.38 112.563 8.00667 113.336 9.26C114.109 10.5 114.496 12.2267 114.496 14.44C114.496 16.96 114.103 18.8733 113.316 20.18C112.543 21.4867 111.243 22.14 109.416 22.14C108.443 22.14 107.603 21.9467 106.896 21.56C106.203 21.1733 105.663 20.6533 105.276 20C104.903 19.3333 104.683 18.6 104.616 17.8H107.256ZM111.736 12.38C111.736 11.6333 111.516 11.02 111.076 10.54C110.649 10.0467 110.016 9.8 109.176 9.8C108.456 9.8 107.883 10.0133 107.456 10.44C107.029 10.8667 106.816 11.46 106.816 12.22C106.816 13.02 107.029 13.64 107.456 14.08C107.896 14.5067 108.483 14.72 109.216 14.72C109.896 14.72 110.483 14.52 110.976 14.12C111.483 13.7067 111.736 13.1267 111.736 12.38ZM127.422 7.74C129.182 7.74 130.642 8.19333 131.802 9.1C132.962 10.0067 133.728 11.24 134.102 12.8H131.142C130.835 12.04 130.355 11.44 129.702 11C129.062 10.56 128.288 10.34 127.382 10.34C126.635 10.34 125.962 10.5267 125.362 10.9C124.762 11.2733 124.295 11.8067 123.962 12.5C123.628 13.1933 123.462 14.0067 123.462 14.94C123.462 15.86 123.628 16.6667 123.962 17.36C124.295 18.0533 124.762 18.5867 125.362 18.96C125.962 19.3333 126.635 19.52 127.382 19.52C128.288 19.52 129.062 19.3 129.702 18.86C130.355 18.42 130.835 17.82 131.142 17.06H134.102C133.728 18.62 132.962 19.8533 131.802 20.76C130.642 21.6667 129.182 22.12 127.422 22.12C126.075 22.12 124.882 21.82 123.842 21.22C122.815 20.6067 122.015 19.7533 121.442 18.66C120.882 17.5667 120.602 16.3267 120.602 14.94C120.602 13.54 120.882 12.2933 121.442 11.2C122.015 10.1067 122.815 9.26 123.842 8.66C124.868 8.04667 126.062 7.74 127.422 7.74ZM141.338 10.78C142.418 10.78 143.384 11.0067 144.238 11.46C145.104 11.9133 145.784 12.5733 146.278 13.44C146.771 14.2933 147.018 15.3 147.018 16.46C147.018 17.62 146.771 18.6267 146.278 19.48C145.784 20.3333 145.104 20.9933 144.238 21.46C143.384 21.9133 142.418 22.14 141.338 22.14C140.258 22.14 139.284 21.9133 138.418 21.46C137.564 20.9933 136.891 20.3333 136.398 19.48C135.904 18.6267 135.658 17.62 135.658 16.46C135.658 15.3 135.904 14.2933 136.398 13.44C136.891 12.5733 137.564 11.9133 138.418 11.46C139.284 11.0067 140.258 10.78 141.338 10.78ZM141.338 13.22C140.551 13.22 139.884 13.5 139.338 14.06C138.791 14.6067 138.518 15.4067 138.518 16.46C138.518 17.5133 138.791 18.32 139.338 18.88C139.884 19.4267 140.551 19.7 141.338 19.7C142.124 19.7 142.791 19.4267 143.338 18.88C143.884 18.32 144.158 17.5133 144.158 16.46C144.158 15.4067 143.884 14.6067 143.338 14.06C142.791 13.5 142.124 13.22 141.338 13.22ZM159.61 10.92V22H156.79V19.76C156.497 20.5067 156.01 21.0933 155.33 21.52C154.664 21.9333 153.89 22.14 153.01 22.14C151.73 22.14 150.71 21.72 149.95 20.88C149.19 20.04 148.81 18.8667 148.81 17.36V10.92H151.61V17.04C151.61 17.92 151.837 18.6067 152.29 19.1C152.744 19.58 153.357 19.82 154.13 19.82C154.944 19.82 155.59 19.56 156.07 19.04C156.55 18.52 156.79 17.7733 156.79 16.8V10.92H159.61ZM168.775 10.76C170.055 10.76 171.075 11.18 171.835 12.02C172.595 12.86 172.975 14.04 172.975 15.56V22H170.175V15.88C170.175 15 169.948 14.32 169.495 13.84C169.041 13.3467 168.421 13.1 167.635 13.1C166.835 13.1 166.195 13.36 165.715 13.88C165.235 14.4 164.995 15.1467 164.995 16.12V22H162.175V10.92H164.995V13.14C165.288 12.3933 165.768 11.8133 166.435 11.4C167.115 10.9733 167.895 10.76 168.775 10.76ZM181.376 19.58V22H179.896C178.656 22 177.702 21.7 177.036 21.1C176.382 20.5 176.056 19.5 176.056 18.1V13.3H174.516V10.92H176.056V8.18H178.876V10.92H181.356V13.3H178.876V18.14C178.876 18.6733 178.982 19.0467 179.196 19.26C179.409 19.4733 179.769 19.58 180.276 19.58H181.376ZM186.225 13.04C186.638 12.3333 187.185 11.78 187.865 11.38C188.545 10.9667 189.305 10.76 190.145 10.76V13.78H189.325C187.258 13.78 186.225 14.74 186.225 16.66V22H183.405V10.92H186.225V13.04ZM193.606 10.92L196.626 18.44L199.426 10.92H202.526L195.746 27.28H192.626L195.126 21.68L190.466 10.92H193.606Z" fill="#070F18"/>
</svg>
