<svg width="307" height="106" viewBox="0 0 307 106" fill="none" xmlns="http://www.w3.org/2000/svg">
<path d="M96.464 52.912V64H95.008V55.152L91.472 64H90.176L86.624 55.184V64H85.168V52.912H86.912L90.848 62.224L94.72 52.912H96.464ZM102.777 55.104C103.62 55.104 104.372 55.2853 105.033 55.648C105.705 56.0107 106.228 56.5333 106.601 57.216C106.985 57.8987 107.177 58.6987 107.177 59.616C107.177 60.5333 106.985 61.3333 106.601 62.016C106.228 62.688 105.705 63.2053 105.033 63.568C104.372 63.9307 103.62 64.112 102.777 64.112C101.934 64.112 101.177 63.9307 100.505 63.568C99.8437 63.2053 99.321 62.688 98.937 62.016C98.553 61.3333 98.361 60.5333 98.361 59.616C98.361 58.6987 98.553 57.8987 98.937 57.216C99.321 56.5333 99.8437 56.0107 100.505 55.648C101.177 55.2853 101.934 55.104 102.777 55.104ZM102.777 56.384C102.254 56.384 101.769 56.5013 101.321 56.736C100.884 56.9707 100.526 57.3333 100.249 57.824C99.9823 58.304 99.849 58.9013 99.849 59.616C99.849 60.32 99.9823 60.9173 100.249 61.408C100.526 61.888 100.884 62.2453 101.321 62.48C101.769 62.7147 102.254 62.832 102.777 62.832C103.3 62.832 103.78 62.7147 104.217 62.48C104.665 62.2453 105.022 61.888 105.289 61.408C105.566 60.9173 105.705 60.32 105.705 59.616C105.705 58.9013 105.566 58.304 105.289 57.824C105.022 57.3333 104.665 56.9707 104.217 56.736C103.78 56.5013 103.3 56.384 102.777 56.384ZM113.266 62.72V64H112.178C111.282 64 110.61 63.7867 110.162 63.36C109.725 62.9333 109.506 62.2187 109.506 61.216V56.48H108.194V55.216H109.506V53.024H110.978V55.216H113.25V56.48H110.978V61.248C110.978 61.8133 111.08 62.2027 111.282 62.416C111.496 62.6187 111.858 62.72 112.37 62.72H113.266ZM114.787 52.64C114.787 52.3733 114.878 52.16 115.059 52C115.24 51.8293 115.48 51.744 115.779 51.744C116.078 51.744 116.318 51.8293 116.499 52C116.68 52.16 116.771 52.3733 116.771 52.64C116.771 52.9067 116.68 53.1253 116.499 53.296C116.318 53.456 116.078 53.536 115.779 53.536C115.48 53.536 115.24 53.456 115.059 53.296C114.878 53.1253 114.787 52.9067 114.787 52.64ZM116.499 55.216V64H115.043V55.216H116.499ZM122.248 62.448L124.968 55.216H126.536L123.096 64H121.368L117.928 55.216H119.496L122.248 62.448ZM131.565 55.104C132.418 55.104 133.138 55.3173 133.725 55.744C134.322 56.1707 134.738 56.7413 134.973 57.456V55.216H136.429V64H134.973V61.76C134.738 62.4747 134.322 63.0453 133.725 63.472C133.138 63.8987 132.418 64.112 131.565 64.112C130.786 64.112 130.093 63.9307 129.485 63.568C128.877 63.2053 128.397 62.688 128.045 62.016C127.704 61.3333 127.533 60.5333 127.533 59.616C127.533 58.6987 127.704 57.8987 128.045 57.216C128.397 56.5333 128.877 56.0107 129.485 55.648C130.093 55.2853 130.786 55.104 131.565 55.104ZM131.981 56.4C131.085 56.4 130.365 56.688 129.821 57.264C129.288 57.8293 129.021 58.6133 129.021 59.616C129.021 60.6187 129.288 61.408 129.821 61.984C130.365 62.5493 131.085 62.832 131.981 62.832C132.557 62.832 133.069 62.6987 133.517 62.432C133.976 62.1653 134.333 61.792 134.589 61.312C134.845 60.8213 134.973 60.256 134.973 59.616C134.973 58.976 134.845 58.4107 134.589 57.92C134.333 57.4293 133.976 57.056 133.517 56.8C133.069 56.5333 132.557 56.4 131.981 56.4ZM142.938 62.72V64H141.85C140.954 64 140.282 63.7867 139.834 63.36C139.397 62.9333 139.178 62.2187 139.178 61.216V56.48H137.866V55.216H139.178V53.024H140.65V55.216H142.922V56.48H140.65V61.248C140.65 61.8133 140.751 62.2027 140.954 62.416C141.167 62.6187 141.53 62.72 142.042 62.72H142.938ZM152.795 59.12C152.795 59.4293 152.774 59.696 152.731 59.92H145.707C145.739 60.9227 146.022 61.6747 146.555 62.176C147.099 62.6773 147.76 62.928 148.539 62.928C149.243 62.928 149.83 62.752 150.299 62.4C150.779 62.0373 151.072 61.5573 151.179 60.96H152.731C152.624 61.568 152.384 62.112 152.011 62.592C151.648 63.072 151.174 63.4453 150.587 63.712C150 63.9787 149.339 64.112 148.603 64.112C147.76 64.112 147.014 63.9307 146.363 63.568C145.712 63.2053 145.2 62.688 144.827 62.016C144.464 61.3333 144.283 60.5333 144.283 59.616C144.283 58.6987 144.464 57.8987 144.827 57.216C145.2 56.5333 145.712 56.0107 146.363 55.648C147.014 55.2853 147.76 55.104 148.603 55.104C149.456 55.104 150.198 55.2853 150.827 55.648C151.467 56.0107 151.952 56.496 152.283 57.104C152.624 57.712 152.795 58.384 152.795 59.12ZM151.323 59.216C151.355 58.5653 151.248 58.0213 151.003 57.584C150.758 57.1467 150.422 56.8213 149.995 56.608C149.568 56.3947 149.104 56.288 148.603 56.288C147.803 56.288 147.131 56.5387 146.587 57.04C146.043 57.5307 145.75 58.256 145.707 59.216H151.323ZM159.26 55.216L162.108 62.128L164.748 55.216H166.364L161.148 68.16H159.5L161.324 63.856L157.628 55.216H159.26ZM171.683 55.104C172.526 55.104 173.278 55.2853 173.939 55.648C174.611 56.0107 175.134 56.5333 175.507 57.216C175.891 57.8987 176.083 58.6987 176.083 59.616C176.083 60.5333 175.891 61.3333 175.507 62.016C175.134 62.688 174.611 63.2053 173.939 63.568C173.278 63.9307 172.526 64.112 171.683 64.112C170.841 64.112 170.083 63.9307 169.411 63.568C168.75 63.2053 168.227 62.688 167.843 62.016C167.459 61.3333 167.267 60.5333 167.267 59.616C167.267 58.6987 167.459 57.8987 167.843 57.216C168.227 56.5333 168.75 56.0107 169.411 55.648C170.083 55.2853 170.841 55.104 171.683 55.104ZM171.683 56.384C171.161 56.384 170.675 56.5013 170.227 56.736C169.79 56.9707 169.433 57.3333 169.155 57.824C168.889 58.304 168.755 58.9013 168.755 59.616C168.755 60.32 168.889 60.9173 169.155 61.408C169.433 61.888 169.79 62.2453 170.227 62.48C170.675 62.7147 171.161 62.832 171.683 62.832C172.206 62.832 172.686 62.7147 173.123 62.48C173.571 62.2453 173.929 61.888 174.195 61.408C174.473 60.9173 174.611 60.32 174.611 59.616C174.611 58.9013 174.473 58.304 174.195 57.824C173.929 57.3333 173.571 56.9707 173.123 56.736C172.686 56.5013 172.206 56.384 171.683 56.384ZM185.789 55.216V64H184.333V61.936C184.109 62.6507 183.709 63.2 183.133 63.584C182.567 63.9573 181.906 64.144 181.149 64.144C180.135 64.144 179.314 63.8187 178.685 63.168C178.055 62.5067 177.741 61.5627 177.741 60.336V55.216H179.197V60.192C179.197 61.0667 179.421 61.744 179.869 62.224C180.317 62.6933 180.925 62.928 181.693 62.928C182.493 62.928 183.133 62.672 183.613 62.16C184.093 61.6373 184.333 60.88 184.333 59.888V55.216H185.789ZM189.577 56.992C189.865 56.384 190.286 55.9147 190.841 55.584C191.396 55.2427 192.057 55.072 192.825 55.072V56.656H192.377C191.556 56.656 190.884 56.8693 190.361 57.296C189.838 57.712 189.577 58.4053 189.577 59.376V64H188.121V55.216H189.577V56.992ZM202.407 62.72V64H201.319C200.423 64 199.751 63.7867 199.303 63.36C198.866 62.9333 198.647 62.2187 198.647 61.216V56.48H197.335V55.216H198.647V53.024H200.119V55.216H202.391V56.48H200.119V61.248C200.119 61.8133 200.22 62.2027 200.423 62.416C200.636 62.6187 200.999 62.72 201.511 62.72H202.407ZM212.264 59.12C212.264 59.4293 212.242 59.696 212.2 59.92H205.176C205.208 60.9227 205.49 61.6747 206.024 62.176C206.568 62.6773 207.229 62.928 208.008 62.928C208.712 62.928 209.298 62.752 209.768 62.4C210.248 62.0373 210.541 61.5573 210.648 60.96H212.2C212.093 61.568 211.853 62.112 211.48 62.592C211.117 63.072 210.642 63.4453 210.056 63.712C209.469 63.9787 208.808 64.112 208.072 64.112C207.229 64.112 206.482 63.9307 205.832 63.568C205.181 63.2053 204.669 62.688 204.296 62.016C203.933 61.3333 203.752 60.5333 203.752 59.616C203.752 58.6987 203.933 57.8987 204.296 57.216C204.669 56.5333 205.181 56.0107 205.832 55.648C206.482 55.2853 207.229 55.104 208.072 55.104C208.925 55.104 209.666 55.2853 210.296 55.648C210.936 56.0107 211.421 56.496 211.752 57.104C212.093 57.712 212.264 58.384 212.264 59.12ZM210.792 59.216C210.824 58.5653 210.717 58.0213 210.472 57.584C210.226 57.1467 209.89 56.8213 209.464 56.608C209.037 56.3947 208.573 56.288 208.072 56.288C207.272 56.288 206.6 56.5387 206.056 57.04C205.512 57.5307 205.218 58.256 205.176 59.216H210.792ZM217.768 55.104C218.621 55.104 219.341 55.3173 219.928 55.744C220.525 56.1707 220.941 56.7413 221.176 57.456V55.216H222.632V64H221.176V61.76C220.941 62.4747 220.525 63.0453 219.928 63.472C219.341 63.8987 218.621 64.112 217.768 64.112C216.989 64.112 216.296 63.9307 215.688 63.568C215.08 63.2053 214.6 62.688 214.248 62.016C213.907 61.3333 213.736 60.5333 213.736 59.616C213.736 58.6987 213.907 57.8987 214.248 57.216C214.6 56.5333 215.08 56.0107 215.688 55.648C216.296 55.2853 216.989 55.104 217.768 55.104ZM218.184 56.4C217.288 56.4 216.568 56.688 216.024 57.264C215.491 57.8293 215.224 58.6133 215.224 59.616C215.224 60.6187 215.491 61.408 216.024 61.984C216.568 62.5493 217.288 62.832 218.184 62.832C218.76 62.832 219.272 62.6987 219.72 62.432C220.179 62.1653 220.536 61.792 220.792 61.312C221.048 60.8213 221.176 60.256 221.176 59.616C221.176 58.976 221.048 58.4107 220.792 57.92C220.536 57.4293 220.179 57.056 219.72 56.8C219.272 56.5333 218.76 56.4 218.184 56.4ZM235.749 55.072C236.773 55.072 237.595 55.4027 238.213 56.064C238.843 56.7147 239.157 57.6587 239.157 58.896V64H237.701V59.024C237.701 58.16 237.488 57.4987 237.061 57.04C236.645 56.5813 236.069 56.352 235.333 56.352C234.565 56.352 233.947 56.608 233.477 57.12C233.019 57.6213 232.789 58.3627 232.789 59.344V64H231.333V59.024C231.333 58.16 231.12 57.4987 230.693 57.04C230.267 56.5813 229.691 56.352 228.965 56.352C228.187 56.352 227.563 56.608 227.093 57.12C226.635 57.6213 226.405 58.3627 226.405 59.344V64H224.949V55.216H226.405V57.216C226.619 56.5227 226.997 55.9947 227.541 55.632C228.096 55.2587 228.731 55.072 229.445 55.072C230.192 55.072 230.837 55.264 231.381 55.648C231.936 56.0213 232.331 56.576 232.565 57.312C232.811 56.5973 233.221 56.048 233.797 55.664C234.373 55.2693 235.024 55.072 235.749 55.072ZM257.435 55.216L254.907 64H253.339L250.923 56.848L248.491 64H246.907L244.411 55.216H245.883L247.755 62.608L250.187 55.216H251.707L254.155 62.592L256.043 55.216H257.435ZM262.777 55.104C263.62 55.104 264.372 55.2853 265.033 55.648C265.705 56.0107 266.228 56.5333 266.601 57.216C266.985 57.8987 267.177 58.6987 267.177 59.616C267.177 60.5333 266.985 61.3333 266.601 62.016C266.228 62.688 265.705 63.2053 265.033 63.568C264.372 63.9307 263.62 64.112 262.777 64.112C261.934 64.112 261.177 63.9307 260.505 63.568C259.844 63.2053 259.321 62.688 258.937 62.016C258.553 61.3333 258.361 60.5333 258.361 59.616C258.361 58.6987 258.553 57.8987 258.937 57.216C259.321 56.5333 259.844 56.0107 260.505 55.648C261.177 55.2853 261.934 55.104 262.777 55.104ZM262.777 56.384C262.254 56.384 261.769 56.5013 261.321 56.736C260.884 56.9707 260.526 57.3333 260.249 57.824C259.982 58.304 259.849 58.9013 259.849 59.616C259.849 60.32 259.982 60.9173 260.249 61.408C260.526 61.888 260.884 62.2453 261.321 62.48C261.769 62.7147 262.254 62.832 262.777 62.832C263.3 62.832 263.78 62.7147 264.217 62.48C264.665 62.2453 265.022 61.888 265.289 61.408C265.566 60.9173 265.705 60.32 265.705 59.616C265.705 58.9013 265.566 58.304 265.289 57.824C265.022 57.3333 264.665 56.9707 264.217 56.736C263.78 56.5013 263.3 56.384 262.777 56.384ZM270.53 56.992C270.818 56.384 271.24 55.9147 271.794 55.584C272.349 55.2427 273.01 55.072 273.778 55.072V56.656H273.33C272.509 56.656 271.837 56.8693 271.314 57.296C270.792 57.712 270.53 58.4053 270.53 59.376V64H269.074V55.216H270.53V56.992ZM280.031 64L276.671 60.048V64H275.215V52.16H276.671V59.04L279.983 55.216H281.759L277.823 59.584L281.855 64H280.031ZM282.881 52.64C282.881 52.3733 282.971 52.16 283.153 52C283.334 51.8293 283.574 51.744 283.873 51.744C284.171 51.744 284.411 51.8293 284.593 52C284.774 52.16 284.865 52.3733 284.865 52.64C284.865 52.9067 284.774 53.1253 284.593 53.296C284.411 53.456 284.171 53.536 283.873 53.536C283.574 53.536 283.334 53.456 283.153 53.296C282.971 53.1253 282.881 52.9067 282.881 52.64ZM284.593 55.216V64H283.137V55.216H284.593ZM291.558 55.072C292.582 55.072 293.408 55.4027 294.038 56.064C294.667 56.7147 294.982 57.6587 294.982 58.896V64H293.526V59.024C293.526 58.1493 293.302 57.4773 292.854 57.008C292.406 56.5387 291.798 56.304 291.03 56.304C290.23 56.304 289.59 56.5653 289.11 57.088C288.63 57.6 288.39 58.352 288.39 59.344V64H286.934V55.216H288.39V57.296C288.614 56.5813 289.008 56.032 289.574 55.648C290.15 55.264 290.811 55.072 291.558 55.072ZM300.815 55.104C301.668 55.104 302.388 55.3173 302.975 55.744C303.572 56.1707 303.988 56.7413 304.223 57.456V55.216H305.679V64.144C305.679 64.9547 305.508 65.6747 305.167 66.304C304.826 66.9333 304.346 67.424 303.727 67.776C303.108 68.128 302.388 68.304 301.567 68.304C300.383 68.304 299.418 68.016 298.671 67.44C297.924 66.8747 297.45 66.1067 297.247 65.136H298.687C298.858 65.7227 299.178 66.1813 299.647 66.512C300.127 66.8533 300.74 67.024 301.487 67.024C302.276 67.024 302.927 66.768 303.439 66.256C303.962 65.7547 304.223 65.0507 304.223 64.144V61.76C303.988 62.4747 303.572 63.0453 302.975 63.472C302.388 63.8987 301.668 64.112 300.815 64.112C300.036 64.112 299.343 63.9307 298.735 63.568C298.127 63.2053 297.647 62.688 297.295 62.016C296.954 61.3333 296.783 60.5333 296.783 59.616C296.783 58.6987 296.954 57.8987 297.295 57.216C297.647 56.5333 298.127 56.0107 298.735 55.648C299.343 55.2853 300.036 55.104 300.815 55.104ZM301.231 56.4C300.335 56.4 299.615 56.688 299.071 57.264C298.538 57.8293 298.271 58.6133 298.271 59.616C298.271 60.6187 298.538 61.408 299.071 61.984C299.615 62.5493 300.335 62.832 301.231 62.832C301.807 62.832 302.319 62.6987 302.767 62.432C303.226 62.1653 303.583 61.792 303.839 61.312C304.095 60.8213 304.223 60.256 304.223 59.616C304.223 58.976 304.095 58.4107 303.839 57.92C303.583 57.4293 303.226 57.056 302.767 56.8C302.319 56.5333 301.807 56.4 301.231 56.4ZM89.792 87.072C90.816 87.072 91.6427 87.4027 92.272 88.064C92.9013 88.7147 93.216 89.6587 93.216 90.896V96H91.76V91.024C91.76 90.1493 91.536 89.4773 91.088 89.008C90.64 88.5387 90.032 88.304 89.264 88.304C88.464 88.304 87.824 88.5653 87.344 89.088C86.864 89.6 86.624 90.352 86.624 91.344V96H85.168V84.16H86.624V89.296C86.848 88.5813 87.2427 88.032 87.808 87.648C88.384 87.264 89.0453 87.072 89.792 87.072ZM99.0493 87.104C99.9026 87.104 100.623 87.3173 101.209 87.744C101.807 88.1707 102.223 88.7413 102.457 89.456V87.216H103.913V96H102.457V93.76C102.223 94.4747 101.807 95.0453 101.209 95.472C100.623 95.8987 99.9026 96.112 99.0493 96.112C98.2706 96.112 97.5773 95.9307 96.9693 95.568C96.3613 95.2053 95.8813 94.688 95.5293 94.016C95.1879 93.3333 95.0173 92.5333 95.0173 91.616C95.0173 90.6987 95.1879 89.8987 95.5293 89.216C95.8813 88.5333 96.3613 88.0107 96.9693 87.648C97.5773 87.2853 98.2706 87.104 99.0493 87.104ZM99.4653 88.4C98.5693 88.4 97.8493 88.688 97.3053 89.264C96.7719 89.8293 96.5053 90.6133 96.5053 91.616C96.5053 92.6187 96.7719 93.408 97.3053 93.984C97.8493 94.5493 98.5693 94.832 99.4653 94.832C100.041 94.832 100.553 94.6987 101.001 94.432C101.46 94.1653 101.817 93.792 102.073 93.312C102.329 92.8213 102.457 92.256 102.457 91.616C102.457 90.976 102.329 90.4107 102.073 89.92C101.817 89.4293 101.46 89.056 101.001 88.8C100.553 88.5333 100.041 88.4 99.4653 88.4ZM107.687 88.992C107.975 88.384 108.396 87.9147 108.951 87.584C109.505 87.2427 110.167 87.072 110.935 87.072V88.656H110.487C109.665 88.656 108.993 88.8693 108.471 89.296C107.948 89.712 107.687 90.4053 107.687 91.376V96H106.231V87.216H107.687V88.992ZM115.971 87.104C116.824 87.104 117.544 87.3173 118.131 87.744C118.728 88.1707 119.144 88.7413 119.379 89.456V84.16H120.835V96H119.379V93.76C119.144 94.4747 118.728 95.0453 118.131 95.472C117.544 95.8987 116.824 96.112 115.971 96.112C115.192 96.112 114.499 95.9307 113.891 95.568C113.283 95.2053 112.803 94.688 112.451 94.016C112.11 93.3333 111.939 92.5333 111.939 91.616C111.939 90.6987 112.11 89.8987 112.451 89.216C112.803 88.5333 113.283 88.0107 113.891 87.648C114.499 87.2853 115.192 87.104 115.971 87.104ZM116.387 88.4C115.491 88.4 114.771 88.688 114.227 89.264C113.694 89.8293 113.427 90.6133 113.427 91.616C113.427 92.6187 113.694 93.408 114.227 93.984C114.771 94.5493 115.491 94.832 116.387 94.832C116.963 94.832 117.475 94.6987 117.923 94.432C118.382 94.1653 118.739 93.792 118.995 93.312C119.251 92.8213 119.379 92.256 119.379 91.616C119.379 90.976 119.251 90.4107 118.995 89.92C118.739 89.4293 118.382 89.056 117.923 88.8C117.475 88.5333 116.963 88.4 116.387 88.4ZM131.232 91.12C131.232 91.4293 131.211 91.696 131.168 91.92H124.144C124.176 92.9227 124.459 93.6747 124.992 94.176C125.536 94.6773 126.198 94.928 126.976 94.928C127.68 94.928 128.267 94.752 128.736 94.4C129.216 94.0373 129.51 93.5573 129.616 92.96H131.168C131.062 93.568 130.822 94.112 130.448 94.592C130.086 95.072 129.611 95.4453 129.024 95.712C128.438 95.9787 127.776 96.112 127.04 96.112C126.198 96.112 125.451 95.9307 124.8 95.568C124.15 95.2053 123.638 94.688 123.264 94.016C122.902 93.3333 122.72 92.5333 122.72 91.616C122.72 90.6987 122.902 89.8987 123.264 89.216C123.638 88.5333 124.15 88.0107 124.8 87.648C125.451 87.2853 126.198 87.104 127.04 87.104C127.894 87.104 128.635 87.2853 129.264 87.648C129.904 88.0107 130.39 88.496 130.72 89.104C131.062 89.712 131.232 90.384 131.232 91.12ZM129.76 91.216C129.792 90.5653 129.686 90.0213 129.44 89.584C129.195 89.1467 128.859 88.8213 128.432 88.608C128.006 88.3947 127.542 88.288 127.04 88.288C126.24 88.288 125.568 88.5387 125.024 89.04C124.48 89.5307 124.187 90.256 124.144 91.216H129.76ZM134.593 88.992C134.881 88.384 135.302 87.9147 135.857 87.584C136.411 87.2427 137.073 87.072 137.841 87.072V88.656H137.393C136.571 88.656 135.899 88.8693 135.377 89.296C134.854 89.712 134.593 90.4053 134.593 91.376V96H133.137V87.216H134.593V88.992ZM146.831 87.104C147.684 87.104 148.404 87.3173 148.991 87.744C149.588 88.1707 150.004 88.7413 150.239 89.456V87.216H151.695V96H150.239V93.76C150.004 94.4747 149.588 95.0453 148.991 95.472C148.404 95.8987 147.684 96.112 146.831 96.112C146.052 96.112 145.359 95.9307 144.751 95.568C144.143 95.2053 143.663 94.688 143.311 94.016C142.969 93.3333 142.799 92.5333 142.799 91.616C142.799 90.6987 142.969 89.8987 143.311 89.216C143.663 88.5333 144.143 88.0107 144.751 87.648C145.359 87.2853 146.052 87.104 146.831 87.104ZM147.247 88.4C146.351 88.4 145.631 88.688 145.087 89.264C144.553 89.8293 144.287 90.6133 144.287 91.616C144.287 92.6187 144.553 93.408 145.087 93.984C145.631 94.5493 146.351 94.832 147.247 94.832C147.823 94.832 148.335 94.6987 148.783 94.432C149.241 94.1653 149.599 93.792 149.855 93.312C150.111 92.8213 150.239 92.256 150.239 91.616C150.239 90.976 150.111 90.4107 149.855 89.92C149.599 89.4293 149.241 89.056 148.783 88.8C148.335 88.5333 147.823 88.4 147.247 88.4ZM158.636 87.072C159.66 87.072 160.486 87.4027 161.116 88.064C161.745 88.7147 162.06 89.6587 162.06 90.896V96H160.604V91.024C160.604 90.1493 160.38 89.4773 159.932 89.008C159.484 88.5387 158.876 88.304 158.108 88.304C157.308 88.304 156.668 88.5653 156.188 89.088C155.708 89.6 155.468 90.352 155.468 91.344V96H154.012V87.216H155.468V89.296C155.692 88.5813 156.086 88.032 156.652 87.648C157.228 87.264 157.889 87.072 158.636 87.072ZM167.893 87.104C168.746 87.104 169.466 87.3173 170.053 87.744C170.65 88.1707 171.066 88.7413 171.301 89.456V84.16H172.757V96H171.301V93.76C171.066 94.4747 170.65 95.0453 170.053 95.472C169.466 95.8987 168.746 96.112 167.893 96.112C167.114 96.112 166.421 95.9307 165.813 95.568C165.205 95.2053 164.725 94.688 164.373 94.016C164.032 93.3333 163.861 92.5333 163.861 91.616C163.861 90.6987 164.032 89.8987 164.373 89.216C164.725 88.5333 165.205 88.0107 165.813 87.648C166.421 87.2853 167.114 87.104 167.893 87.104ZM168.309 88.4C167.413 88.4 166.693 88.688 166.149 89.264C165.616 89.8293 165.349 90.6133 165.349 91.616C165.349 92.6187 165.616 93.408 166.149 93.984C166.693 94.5493 167.413 94.832 168.309 94.832C168.885 94.832 169.397 94.6987 169.845 94.432C170.304 94.1653 170.661 93.792 170.917 93.312C171.173 92.8213 171.301 92.256 171.301 91.616C171.301 90.976 171.173 90.4107 170.917 89.92C170.661 89.4293 170.304 89.056 169.845 88.8C169.397 88.5333 168.885 88.4 168.309 88.4ZM180.483 88.992C180.771 88.384 181.193 87.9147 181.747 87.584C182.302 87.2427 182.963 87.072 183.731 87.072V88.656H183.283C182.462 88.656 181.79 88.8693 181.267 89.296C180.745 89.712 180.483 90.4053 180.483 91.376V96H179.027V87.216H180.483V88.992ZM193.248 91.12C193.248 91.4293 193.227 91.696 193.184 91.92H186.16C186.192 92.9227 186.475 93.6747 187.008 94.176C187.552 94.6773 188.213 94.928 188.992 94.928C189.696 94.928 190.283 94.752 190.752 94.4C191.232 94.0373 191.525 93.5573 191.632 92.96H193.184C193.077 93.568 192.837 94.112 192.464 94.592C192.101 95.072 191.627 95.4453 191.04 95.712C190.453 95.9787 189.792 96.112 189.056 96.112C188.213 96.112 187.467 95.9307 186.816 95.568C186.165 95.2053 185.653 94.688 185.28 94.016C184.917 93.3333 184.736 92.5333 184.736 91.616C184.736 90.6987 184.917 89.8987 185.28 89.216C185.653 88.5333 186.165 88.0107 186.816 87.648C187.467 87.2853 188.213 87.104 189.056 87.104C189.909 87.104 190.651 87.2853 191.28 87.648C191.92 88.0107 192.405 88.496 192.736 89.104C193.077 89.712 193.248 90.384 193.248 91.12ZM191.776 91.216C191.808 90.5653 191.701 90.0213 191.456 89.584C191.211 89.1467 190.875 88.8213 190.448 88.608C190.021 88.3947 189.557 88.288 189.056 88.288C188.256 88.288 187.584 88.5387 187.04 89.04C186.496 89.5307 186.203 90.256 186.16 91.216H191.776ZM199.04 87.104C200.16 87.104 201.088 87.4027 201.824 88C202.56 88.5973 203.014 89.3973 203.184 90.4H201.648C201.542 89.7707 201.248 89.28 200.768 88.928C200.299 88.5653 199.712 88.384 199.008 88.384C198.496 88.384 198.027 88.5013 197.6 88.736C197.184 88.9707 196.848 89.3333 196.592 89.824C196.336 90.304 196.208 90.9013 196.208 91.616C196.208 92.3307 196.336 92.9333 196.592 93.424C196.848 93.904 197.184 94.2613 197.6 94.496C198.027 94.7307 198.496 94.848 199.008 94.848C199.712 94.848 200.299 94.6667 200.768 94.304C201.248 93.9413 201.542 93.4453 201.648 92.816H203.184C203.014 93.8293 202.56 94.6347 201.824 95.232C201.088 95.8187 200.16 96.112 199.04 96.112C198.198 96.112 197.451 95.9307 196.8 95.568C196.15 95.2053 195.638 94.688 195.264 94.016C194.902 93.3333 194.72 92.5333 194.72 91.616C194.72 90.6987 194.902 89.8987 195.264 89.216C195.638 88.5333 196.15 88.0107 196.8 87.648C197.451 87.2853 198.198 87.104 199.04 87.104ZM213.17 91.12C213.17 91.4293 213.149 91.696 213.106 91.92H206.082C206.114 92.9227 206.397 93.6747 206.93 94.176C207.474 94.6773 208.135 94.928 208.914 94.928C209.618 94.928 210.205 94.752 210.674 94.4C211.154 94.0373 211.447 93.5573 211.554 92.96H213.106C212.999 93.568 212.759 94.112 212.386 94.592C212.023 95.072 211.549 95.4453 210.962 95.712C210.375 95.9787 209.714 96.112 208.978 96.112C208.135 96.112 207.389 95.9307 206.738 95.568C206.087 95.2053 205.575 94.688 205.202 94.016C204.839 93.3333 204.658 92.5333 204.658 91.616C204.658 90.6987 204.839 89.8987 205.202 89.216C205.575 88.5333 206.087 88.0107 206.738 87.648C207.389 87.2853 208.135 87.104 208.978 87.104C209.831 87.104 210.573 87.2853 211.202 87.648C211.842 88.0107 212.327 88.496 212.658 89.104C212.999 89.712 213.17 90.384 213.17 91.12ZM211.698 91.216C211.73 90.5653 211.623 90.0213 211.378 89.584C211.133 89.1467 210.797 88.8213 210.37 88.608C209.943 88.3947 209.479 88.288 208.978 88.288C208.178 88.288 207.506 88.5387 206.962 89.04C206.418 89.5307 206.125 90.256 206.082 91.216H211.698ZM214.818 84.64C214.818 84.3733 214.909 84.16 215.09 84C215.272 83.8293 215.512 83.744 215.81 83.744C216.109 83.744 216.349 83.8293 216.53 84C216.712 84.16 216.802 84.3733 216.802 84.64C216.802 84.9067 216.712 85.1253 216.53 85.296C216.349 85.456 216.109 85.536 215.81 85.536C215.512 85.536 215.272 85.456 215.09 85.296C214.909 85.1253 214.818 84.9067 214.818 84.64ZM216.53 87.216V96H215.074V87.216H216.53ZM222.279 94.448L224.999 87.216H226.567L223.127 96H221.399L217.959 87.216H219.527L222.279 94.448ZM236.076 91.12C236.076 91.4293 236.055 91.696 236.012 91.92H228.988C229.02 92.9227 229.303 93.6747 229.836 94.176C230.38 94.6773 231.041 94.928 231.82 94.928C232.524 94.928 233.111 94.752 233.58 94.4C234.06 94.0373 234.353 93.5573 234.46 92.96H236.012C235.905 93.568 235.665 94.112 235.292 94.592C234.929 95.072 234.455 95.4453 233.868 95.712C233.281 95.9787 232.62 96.112 231.884 96.112C231.041 96.112 230.295 95.9307 229.644 95.568C228.993 95.2053 228.481 94.688 228.108 94.016C227.745 93.3333 227.564 92.5333 227.564 91.616C227.564 90.6987 227.745 89.8987 228.108 89.216C228.481 88.5333 228.993 88.0107 229.644 87.648C230.295 87.2853 231.041 87.104 231.884 87.104C232.737 87.104 233.479 87.2853 234.108 87.648C234.748 88.0107 235.233 88.496 235.564 89.104C235.905 89.712 236.076 90.384 236.076 91.12ZM234.604 91.216C234.636 90.5653 234.529 90.0213 234.284 89.584C234.039 89.1467 233.703 88.8213 233.276 88.608C232.849 88.3947 232.385 88.288 231.884 88.288C231.084 88.288 230.412 88.5387 229.868 89.04C229.324 89.5307 229.031 90.256 228.988 91.216H234.604ZM245.534 87.104C246.387 87.104 247.107 87.3173 247.694 87.744C248.291 88.1707 248.707 88.7413 248.942 89.456V87.216H250.398V96H248.942V93.76C248.707 94.4747 248.291 95.0453 247.694 95.472C247.107 95.8987 246.387 96.112 245.534 96.112C244.755 96.112 244.062 95.9307 243.454 95.568C242.846 95.2053 242.366 94.688 242.014 94.016C241.672 93.3333 241.502 92.5333 241.502 91.616C241.502 90.6987 241.672 89.8987 242.014 89.216C242.366 88.5333 242.846 88.0107 243.454 87.648C244.062 87.2853 244.755 87.104 245.534 87.104ZM245.95 88.4C245.054 88.4 244.334 88.688 243.79 89.264C243.256 89.8293 242.99 90.6133 242.99 91.616C242.99 92.6187 243.256 93.408 243.79 93.984C244.334 94.5493 245.054 94.832 245.95 94.832C246.526 94.832 247.038 94.6987 247.486 94.432C247.944 94.1653 248.302 93.792 248.558 93.312C248.814 92.8213 248.942 92.256 248.942 91.616C248.942 90.976 248.814 90.4107 248.558 89.92C248.302 89.4293 247.944 89.056 247.486 88.8C247.038 88.5333 246.526 88.4 245.95 88.4ZM260.268 87.104C261.121 87.104 261.841 87.3173 262.428 87.744C263.025 88.1707 263.441 88.7413 263.676 89.456V87.216H265.132V96.144C265.132 96.9547 264.961 97.6747 264.62 98.304C264.279 98.9333 263.799 99.424 263.18 99.776C262.561 100.128 261.841 100.304 261.02 100.304C259.836 100.304 258.871 100.016 258.124 99.44C257.377 98.8747 256.903 98.1067 256.7 97.136H258.14C258.311 97.7227 258.631 98.1813 259.1 98.512C259.58 98.8533 260.193 99.024 260.94 99.024C261.729 99.024 262.38 98.768 262.892 98.256C263.415 97.7547 263.676 97.0507 263.676 96.144V93.76C263.441 94.4747 263.025 95.0453 262.428 95.472C261.841 95.8987 261.121 96.112 260.268 96.112C259.489 96.112 258.796 95.9307 258.188 95.568C257.58 95.2053 257.1 94.688 256.748 94.016C256.407 93.3333 256.236 92.5333 256.236 91.616C256.236 90.6987 256.407 89.8987 256.748 89.216C257.1 88.5333 257.58 88.0107 258.188 87.648C258.796 87.2853 259.489 87.104 260.268 87.104ZM260.684 88.4C259.788 88.4 259.068 88.688 258.524 89.264C257.991 89.8293 257.724 90.6133 257.724 91.616C257.724 92.6187 257.991 93.408 258.524 93.984C259.068 94.5493 259.788 94.832 260.684 94.832C261.26 94.832 261.772 94.6987 262.22 94.432C262.679 94.1653 263.036 93.792 263.292 93.312C263.548 92.8213 263.676 92.256 263.676 91.616C263.676 90.976 263.548 90.4107 263.292 89.92C263.036 89.4293 262.679 89.056 262.22 88.8C261.772 88.5333 261.26 88.4 260.684 88.4ZM267.193 84.64C267.193 84.3733 267.284 84.16 267.465 84C267.647 83.8293 267.887 83.744 268.185 83.744C268.484 83.744 268.724 83.8293 268.905 84C269.087 84.16 269.177 84.3733 269.177 84.64C269.177 84.9067 269.087 85.1253 268.905 85.296C268.724 85.456 268.484 85.536 268.185 85.536C267.887 85.536 267.647 85.456 267.465 85.296C267.284 85.1253 267.193 84.9067 267.193 84.64ZM268.905 87.216V96H267.449V87.216H268.905ZM275.134 85.136C274.355 85.1253 273.811 85.2587 273.502 85.536C273.203 85.8133 273.054 86.2933 273.054 86.976V87.216H275.134V88.496H273.054V96H271.598V88.496H270.334V87.216H271.598V86.864C271.598 84.7627 272.777 83.76 275.134 83.856V85.136ZM280.907 94.72V96H279.819C278.923 96 278.251 95.7867 277.803 95.36C277.366 94.9333 277.147 94.2187 277.147 93.216V88.48H275.835V87.216H277.147V85.024H278.619V87.216H280.891V88.48H278.619V93.248C278.619 93.8133 278.72 94.2027 278.923 94.416C279.136 94.6187 279.499 94.72 280.011 94.72H280.907Z" fill="#575455"/>
<circle cx="30" cy="30" r="30" fill="#5C4EF7"/>
<path d="M38 30V40H22V30" stroke="white" stroke-width="2" stroke-linecap="round" stroke-linejoin="round"/>
<path d="M40 25H20V30H40V25Z" stroke="white" stroke-width="2" stroke-linecap="round" stroke-linejoin="round"/>
<path d="M30 40V25" stroke="white" stroke-width="2" stroke-linecap="round" stroke-linejoin="round"/>
<path d="M30 25H34.5C35.163 25 35.7989 24.7366 36.2678 24.2678C36.7366 23.7989 37 23.163 37 22.5C37 21.837 36.7366 21.2011 36.2678 20.7322C35.7989 20.2634 35.163 20 34.5 20C31 20 30 25 30 25Z" stroke="white" stroke-width="2" stroke-linecap="round" stroke-linejoin="round"/>
<path d="M30 25H25.5C24.837 25 24.2011 24.7366 23.7322 24.2678C23.2634 23.7989 23 23.163 23 22.5C23 21.837 23.2634 21.2011 23.7322 20.7322C24.2011 20.2634 24.837 20 25.5 20C29 20 30 25 30 25Z" stroke="white" stroke-width="2" stroke-linecap="round" stroke-linejoin="round"/>
<path d="M92.64 22L89.34 16.5H88.1V22H85.28V7.88H90.66C92.3 7.88 93.5467 8.28 94.4 9.08C95.2667 9.88 95.7 10.9333 95.7 12.24C95.7 13.3067 95.4 14.2 94.8 14.92C94.2133 15.64 93.36 16.12 92.24 16.36L95.76 22H92.64ZM88.1 14.56H90.42C92.0333 14.56 92.84 13.8467 92.84 12.42C92.84 11.74 92.64 11.2133 92.24 10.84C91.8533 10.4533 91.2467 10.26 90.42 10.26H88.1V14.56ZM108.024 16.04C108.024 16.32 107.991 16.64 107.924 17H99.8042C99.8442 17.9867 100.111 18.7133 100.604 19.18C101.098 19.6467 101.711 19.88 102.444 19.88C103.098 19.88 103.638 19.72 104.064 19.4C104.504 19.08 104.784 18.6467 104.904 18.1H107.884C107.738 18.8733 107.424 19.5667 106.944 20.18C106.464 20.7933 105.844 21.2733 105.084 21.62C104.338 21.9667 103.504 22.14 102.584 22.14C101.504 22.14 100.544 21.9133 99.7042 21.46C98.8642 20.9933 98.2109 20.3333 97.7442 19.48C97.2776 18.6267 97.0442 17.62 97.0442 16.46C97.0442 15.3 97.2776 14.2933 97.7442 13.44C98.2109 12.5733 98.8642 11.9133 99.7042 11.46C100.544 11.0067 101.504 10.78 102.584 10.78C103.678 10.78 104.631 11.0067 105.444 11.46C106.271 11.9133 106.904 12.54 107.344 13.34C107.798 14.1267 108.024 15.0267 108.024 16.04ZM105.184 15.76C105.224 14.8533 104.984 14.1667 104.464 13.7C103.958 13.2333 103.331 13 102.584 13C101.824 13 101.184 13.2333 100.664 13.7C100.144 14.1667 99.8576 14.8533 99.8042 15.76H105.184ZM125.886 10.92L122.906 22H119.786L117.406 13.94L114.966 22H111.846L108.886 10.92H111.706L113.506 19.48L115.966 10.92H118.946L121.426 19.48L123.246 10.92H125.886ZM131.632 10.78C132.565 10.78 133.365 11 134.032 11.44C134.698 11.88 135.172 12.4733 135.452 13.22V10.92H138.252V22H135.452V19.68C135.172 20.4267 134.698 21.0267 134.032 21.48C133.365 21.92 132.565 22.14 131.632 22.14C130.698 22.14 129.858 21.9133 129.112 21.46C128.365 21.0067 127.778 20.3533 127.352 19.5C126.938 18.6333 126.732 17.62 126.732 16.46C126.732 15.3 126.938 14.2933 127.352 13.44C127.778 12.5733 128.365 11.9133 129.112 11.46C129.858 11.0067 130.698 10.78 131.632 10.78ZM132.512 13.24C131.632 13.24 130.925 13.5267 130.392 14.1C129.858 14.6733 129.592 15.46 129.592 16.46C129.592 17.46 129.858 18.2467 130.392 18.82C130.925 19.38 131.632 19.66 132.512 19.66C133.365 19.66 134.065 19.3733 134.612 18.8C135.172 18.2133 135.452 17.4333 135.452 16.46C135.452 15.4733 135.172 14.6933 134.612 14.12C134.065 13.5333 133.365 13.24 132.512 13.24ZM143.627 13.04C144.041 12.3333 144.587 11.78 145.267 11.38C145.947 10.9667 146.707 10.76 147.547 10.76V13.78H146.727C144.661 13.78 143.627 14.74 143.627 16.66V22H140.807V10.92H143.627V13.04ZM153.448 10.78C154.381 10.78 155.175 11 155.828 11.44C156.495 11.88 156.975 12.4733 157.268 13.22V7.2H160.068V22H157.268V19.68C156.975 20.4267 156.495 21.0267 155.828 21.48C155.175 21.92 154.381 22.14 153.448 22.14C152.515 22.14 151.675 21.9133 150.928 21.46C150.181 21.0067 149.595 20.3533 149.168 19.5C148.755 18.6333 148.548 17.62 148.548 16.46C148.548 15.3 148.755 14.2933 149.168 13.44C149.595 12.5733 150.181 11.9133 150.928 11.46C151.675 11.0067 152.515 10.78 153.448 10.78ZM154.328 13.24C153.448 13.24 152.741 13.5267 152.208 14.1C151.675 14.6733 151.408 15.46 151.408 16.46C151.408 17.46 151.675 18.2467 152.208 18.82C152.741 19.38 153.448 19.66 154.328 19.66C155.181 19.66 155.881 19.3733 156.428 18.8C156.988 18.2133 157.268 17.4333 157.268 16.46C157.268 15.4733 156.988 14.6933 156.428 14.12C155.881 13.5333 155.181 13.24 154.328 13.24ZM176.679 18.14C176.679 18.86 176.499 19.5267 176.139 20.14C175.779 20.74 175.246 21.2267 174.539 21.6C173.833 21.96 172.973 22.14 171.959 22.14C170.959 22.14 170.066 21.9733 169.279 21.64C168.493 21.2933 167.859 20.8 167.379 20.16C166.913 19.52 166.646 18.7733 166.579 17.92H169.579C169.646 18.4933 169.873 18.9733 170.259 19.36C170.659 19.7333 171.186 19.92 171.839 19.92C172.426 19.92 172.873 19.7667 173.179 19.46C173.499 19.14 173.659 18.7333 173.659 18.24C173.659 17.8 173.533 17.44 173.279 17.16C173.026 16.8667 172.706 16.6333 172.319 16.46C171.933 16.2867 171.399 16.0867 170.719 15.86C169.839 15.5667 169.119 15.28 168.559 15C167.999 14.7067 167.519 14.2867 167.119 13.74C166.733 13.1933 166.539 12.48 166.539 11.6C166.539 10.3867 166.973 9.43333 167.839 8.74C168.719 8.03333 169.879 7.68 171.319 7.68C172.813 7.68 173.999 8.04 174.879 8.76C175.773 9.48 176.279 10.44 176.399 11.64H173.359C173.279 11.1333 173.066 10.72 172.719 10.4C172.373 10.0667 171.899 9.9 171.299 9.9C170.779 9.9 170.359 10.04 170.039 10.32C169.719 10.5867 169.559 10.98 169.559 11.5C169.559 11.9133 169.679 12.26 169.919 12.54C170.173 12.8067 170.486 13.0267 170.859 13.2C171.246 13.3733 171.766 13.5667 172.419 13.78C173.326 14.1 174.059 14.4 174.619 14.68C175.193 14.96 175.679 15.38 176.079 15.94C176.479 16.5 176.679 17.2333 176.679 18.14ZM180.657 10.92L183.677 18.44L186.477 10.92H189.577L182.797 27.28H179.677L182.177 21.68L177.517 10.92H180.657ZM194.725 10.78C196.072 10.78 197.152 11.12 197.965 11.8C198.778 12.48 199.285 13.3867 199.485 14.52H196.845C196.738 13.9867 196.498 13.56 196.125 13.24C195.752 12.92 195.265 12.76 194.665 12.76C194.185 12.76 193.812 12.8733 193.545 13.1C193.278 13.3267 193.145 13.6333 193.145 14.02C193.145 14.3267 193.252 14.5733 193.465 14.76C193.678 14.9467 193.945 15.0933 194.265 15.2C194.585 15.3067 195.045 15.4333 195.645 15.58C196.485 15.7667 197.165 15.9667 197.685 16.18C198.218 16.38 198.672 16.7067 199.045 17.16C199.432 17.6 199.625 18.2 199.625 18.96C199.625 19.9067 199.252 20.6733 198.505 21.26C197.772 21.8467 196.778 22.14 195.525 22.14C194.085 22.14 192.932 21.82 192.065 21.18C191.198 20.5267 190.672 19.6 190.485 18.4H193.185C193.252 18.9467 193.492 19.38 193.905 19.7C194.318 20.0067 194.858 20.16 195.525 20.16C196.005 20.16 196.372 20.0467 196.625 19.82C196.878 19.58 197.005 19.2733 197.005 18.9C197.005 18.58 196.892 18.32 196.665 18.12C196.452 17.92 196.178 17.7667 195.845 17.66C195.525 17.5533 195.065 17.4267 194.465 17.28C193.638 17.0933 192.965 16.9067 192.445 16.72C191.938 16.52 191.498 16.2067 191.125 15.78C190.765 15.3533 190.585 14.7667 190.585 14.02C190.585 13.06 190.952 12.28 191.685 11.68C192.418 11.08 193.432 10.78 194.725 10.78ZM207.645 19.58V22H206.165C204.925 22 203.972 21.7 203.305 21.1C202.652 20.5 202.325 19.5 202.325 18.1V13.3H200.785V10.92H202.325V8.18H205.145V10.92H207.625V13.3H205.145V18.14C205.145 18.6733 205.252 19.0467 205.465 19.26C205.679 19.4733 206.039 19.58 206.545 19.58H207.645ZM220.095 16.04C220.095 16.32 220.061 16.64 219.995 17H211.875C211.915 17.9867 212.181 18.7133 212.675 19.18C213.168 19.6467 213.781 19.88 214.515 19.88C215.168 19.88 215.708 19.72 216.135 19.4C216.575 19.08 216.855 18.6467 216.975 18.1H219.955C219.808 18.8733 219.495 19.5667 219.015 20.18C218.535 20.7933 217.915 21.2733 217.155 21.62C216.408 21.9667 215.575 22.14 214.655 22.14C213.575 22.14 212.615 21.9133 211.775 21.46C210.935 20.9933 210.281 20.3333 209.815 19.48C209.348 18.6267 209.115 17.62 209.115 16.46C209.115 15.3 209.348 14.2933 209.815 13.44C210.281 12.5733 210.935 11.9133 211.775 11.46C212.615 11.0067 213.575 10.78 214.655 10.78C215.748 10.78 216.701 11.0067 217.515 11.46C218.341 11.9133 218.975 12.54 219.415 13.34C219.868 14.1267 220.095 15.0267 220.095 16.04ZM217.255 15.76C217.295 14.8533 217.055 14.1667 216.535 13.7C216.028 13.2333 215.401 13 214.655 13C213.895 13 213.255 13.2333 212.735 13.7C212.215 14.1667 211.928 14.8533 211.875 15.76H217.255ZM236.196 10.76C237.543 10.76 238.603 11.18 239.376 12.02C240.163 12.8467 240.556 14.0267 240.556 15.56V22H237.756V15.88C237.756 15.0267 237.536 14.3733 237.096 13.92C236.67 13.4533 236.076 13.22 235.316 13.22C234.53 13.22 233.903 13.4667 233.436 13.96C232.97 14.4533 232.736 15.1733 232.736 16.12V22H229.936V15.88C229.936 15.0267 229.716 14.3733 229.276 13.92C228.85 13.4533 228.256 13.22 227.496 13.22C226.71 13.22 226.083 13.4667 225.616 13.96C225.15 14.4533 224.916 15.1733 224.916 16.12V22H222.096V10.92H224.916V13.02C225.21 12.3 225.67 11.7467 226.296 11.36C226.936 10.96 227.676 10.76 228.516 10.76C229.41 10.76 230.183 10.9733 230.836 11.4C231.503 11.8267 232.003 12.44 232.336 13.24C232.683 12.48 233.196 11.88 233.876 11.44C234.57 10.9867 235.343 10.76 236.196 10.76Z" fill="#070F18"/>
</svg>
