<svg width="1272" height="48" viewBox="0 0 1272 48" fill="none" xmlns="http://www.w3.org/2000/svg">
<path d="M429.72 18.704V30H427.448V25.088H422.616V30H420.36V18.704H422.616V23.28H427.448V18.704H429.72ZM435.862 21.024C436.726 21.024 437.5 21.2053 438.182 21.568C438.876 21.9307 439.42 22.4587 439.814 23.152C440.209 23.8347 440.406 24.64 440.406 25.568C440.406 26.496 440.209 27.3013 439.814 27.984C439.42 28.6667 438.876 29.1947 438.182 29.568C437.5 29.9307 436.726 30.112 435.862 30.112C434.998 30.112 434.22 29.9307 433.526 29.568C432.844 29.1947 432.305 28.6667 431.91 27.984C431.516 27.3013 431.318 26.496 431.318 25.568C431.318 24.64 431.516 23.8347 431.91 23.152C432.305 22.4587 432.844 21.9307 433.526 21.568C434.22 21.2053 434.998 21.024 435.862 21.024ZM435.862 22.976C435.233 22.976 434.7 23.2 434.262 23.648C433.825 24.0853 433.606 24.7253 433.606 25.568C433.606 26.4107 433.825 27.056 434.262 27.504C434.7 27.9413 435.233 28.16 435.862 28.16C436.492 28.16 437.025 27.9413 437.462 27.504C437.9 27.056 438.118 26.4107 438.118 25.568C438.118 24.7253 437.9 24.0853 437.462 23.648C437.025 23.2 436.492 22.976 435.862 22.976ZM453.281 21.008C454.358 21.008 455.206 21.344 455.825 22.016C456.454 22.6773 456.769 23.6213 456.769 24.848V30H454.529V25.104C454.529 24.4213 454.353 23.8987 454.001 23.536C453.659 23.1627 453.185 22.976 452.577 22.976C451.947 22.976 451.446 23.1733 451.073 23.568C450.699 23.9627 450.513 24.5387 450.513 25.296V30H448.273V25.104C448.273 24.4213 448.097 23.8987 447.745 23.536C447.403 23.1627 446.929 22.976 446.321 22.976C445.691 22.976 445.19 23.1733 444.817 23.568C444.443 23.9627 444.257 24.5387 444.257 25.296V30H442.001V21.136H444.257V22.816C444.491 22.24 444.859 21.7973 445.361 21.488C445.873 21.168 446.465 21.008 447.137 21.008C447.851 21.008 448.47 21.1787 448.993 21.52C449.526 21.8613 449.926 22.352 450.193 22.992C450.47 22.384 450.881 21.904 451.425 21.552C451.979 21.1893 452.598 21.008 453.281 21.008ZM467.087 25.232C467.087 25.456 467.06 25.712 467.007 26H460.511C460.543 26.7893 460.756 27.3707 461.151 27.744C461.545 28.1173 462.036 28.304 462.623 28.304C463.145 28.304 463.577 28.176 463.919 27.92C464.271 27.664 464.495 27.3173 464.591 26.88H466.975C466.857 27.4987 466.607 28.0533 466.223 28.544C465.839 29.0347 465.343 29.4187 464.735 29.696C464.137 29.9733 463.471 30.112 462.735 30.112C461.871 30.112 461.103 29.9307 460.431 29.568C459.759 29.1947 459.236 28.6667 458.863 27.984C458.489 27.3013 458.303 26.496 458.303 25.568C458.303 24.64 458.489 23.8347 458.863 23.152C459.236 22.4587 459.759 21.9307 460.431 21.568C461.103 21.2053 461.871 21.024 462.735 21.024C463.609 21.024 464.372 21.2053 465.023 21.568C465.684 21.9307 466.191 22.432 466.543 23.072C466.905 23.7013 467.087 24.4213 467.087 25.232ZM464.815 25.008C464.847 24.2827 464.655 23.7333 464.239 23.36C463.833 22.9867 463.332 22.8 462.735 22.8C462.127 22.8 461.615 22.9867 461.199 23.36C460.783 23.7333 460.553 24.2827 460.511 25.008H464.815Z" fill="#070F18"/>
<path d="M534.865 18.72V19.904H529.937V23.808H534.113V24.944H529.937V30H528.481V18.72H534.865ZM544.67 25.12C544.67 25.4293 544.649 25.696 544.606 25.92H537.582C537.614 26.9227 537.897 27.6747 538.43 28.176C538.974 28.6773 539.635 28.928 540.414 28.928C541.118 28.928 541.705 28.752 542.174 28.4C542.654 28.0373 542.947 27.5573 543.054 26.96H544.606C544.499 27.568 544.259 28.112 543.886 28.592C543.523 29.072 543.049 29.4453 542.462 29.712C541.875 29.9787 541.214 30.112 540.478 30.112C539.635 30.112 538.889 29.9307 538.238 29.568C537.587 29.2053 537.075 28.688 536.702 28.016C536.339 27.3333 536.158 26.5333 536.158 25.616C536.158 24.6987 536.339 23.8987 536.702 23.216C537.075 22.5333 537.587 22.0107 538.238 21.648C538.889 21.2853 539.635 21.104 540.478 21.104C541.331 21.104 542.073 21.2853 542.702 21.648C543.342 22.0107 543.827 22.496 544.158 23.104C544.499 23.712 544.67 24.384 544.67 25.12ZM543.198 25.216C543.23 24.5653 543.123 24.0213 542.878 23.584C542.633 23.1467 542.297 22.8213 541.87 22.608C541.443 22.3947 540.979 22.288 540.478 22.288C539.678 22.288 539.006 22.5387 538.462 23.04C537.918 23.5307 537.625 24.256 537.582 25.216H543.198ZM550.174 21.104C551.028 21.104 551.748 21.3173 552.334 21.744C552.932 22.1707 553.348 22.7413 553.582 23.456V21.216H555.038V30H553.582V27.76C553.348 28.4747 552.932 29.0453 552.334 29.472C551.748 29.8987 551.028 30.112 550.174 30.112C549.396 30.112 548.702 29.9307 548.094 29.568C547.486 29.2053 547.006 28.688 546.654 28.016C546.313 27.3333 546.142 26.5333 546.142 25.616C546.142 24.6987 546.313 23.8987 546.654 23.216C547.006 22.5333 547.486 22.0107 548.094 21.648C548.702 21.2853 549.396 21.104 550.174 21.104ZM550.59 22.4C549.694 22.4 548.974 22.688 548.43 23.264C547.897 23.8293 547.63 24.6133 547.63 25.616C547.63 26.6187 547.897 27.408 548.43 27.984C548.974 28.5493 549.694 28.832 550.59 28.832C551.166 28.832 551.678 28.6987 552.126 28.432C552.585 28.1653 552.942 27.792 553.198 27.312C553.454 26.8213 553.582 26.256 553.582 25.616C553.582 24.976 553.454 24.4107 553.198 23.92C552.942 23.4293 552.585 23.056 552.126 22.8C551.678 22.5333 551.166 22.4 550.59 22.4ZM561.548 28.72V30H560.46C559.564 30 558.892 29.7867 558.444 29.36C558.006 28.9333 557.788 28.2187 557.788 27.216V22.48H556.476V21.216H557.788V19.024H559.26V21.216H561.532V22.48H559.26V27.248C559.26 27.8133 559.361 28.2027 559.564 28.416C559.777 28.6187 560.14 28.72 560.652 28.72H561.548ZM571.132 21.216V30H569.676V27.936C569.452 28.6507 569.052 29.2 568.476 29.584C567.911 29.9573 567.25 30.144 566.492 30.144C565.479 30.144 564.658 29.8187 564.028 29.168C563.399 28.5067 563.084 27.5627 563.084 26.336V21.216H564.54V26.192C564.54 27.0667 564.764 27.744 565.212 28.224C565.66 28.6933 566.268 28.928 567.036 28.928C567.836 28.928 568.476 28.672 568.956 28.16C569.436 27.6373 569.676 26.88 569.676 25.888V21.216H571.132ZM574.921 22.992C575.209 22.384 575.63 21.9147 576.185 21.584C576.74 21.2427 577.401 21.072 578.169 21.072V22.656H577.721C576.9 22.656 576.228 22.8693 575.705 23.296C575.182 23.712 574.921 24.4053 574.921 25.376V30H573.465V21.216H574.921V22.992ZM587.686 25.12C587.686 25.4293 587.664 25.696 587.622 25.92H580.598C580.63 26.9227 580.912 27.6747 581.446 28.176C581.99 28.6773 582.651 28.928 583.43 28.928C584.134 28.928 584.72 28.752 585.19 28.4C585.67 28.0373 585.963 27.5573 586.07 26.96H587.622C587.515 27.568 587.275 28.112 586.902 28.592C586.539 29.072 586.064 29.4453 585.478 29.712C584.891 29.9787 584.23 30.112 583.494 30.112C582.651 30.112 581.904 29.9307 581.254 29.568C580.603 29.2053 580.091 28.688 579.718 28.016C579.355 27.3333 579.174 26.5333 579.174 25.616C579.174 24.6987 579.355 23.8987 579.718 23.216C580.091 22.5333 580.603 22.0107 581.254 21.648C581.904 21.2853 582.651 21.104 583.494 21.104C584.347 21.104 585.088 21.2853 585.718 21.648C586.358 22.0107 586.843 22.496 587.174 23.104C587.515 23.712 587.686 24.384 587.686 25.12ZM586.214 25.216C586.246 24.5653 586.139 24.0213 585.894 23.584C585.648 23.1467 585.312 22.8213 584.886 22.608C584.459 22.3947 583.995 22.288 583.494 22.288C582.694 22.288 582.022 22.5387 581.478 23.04C580.934 23.5307 580.64 24.256 580.598 25.216H586.214ZM592.342 21.104C593.334 21.104 594.129 21.3653 594.726 21.888C595.334 22.4 595.702 23.0933 595.83 23.968H594.438C594.374 23.4453 594.155 23.0187 593.782 22.688C593.419 22.3467 592.929 22.176 592.31 22.176C591.787 22.176 591.377 22.304 591.078 22.56C590.79 22.8053 590.646 23.1413 590.646 23.568C590.646 23.888 590.742 24.1493 590.934 24.352C591.137 24.544 591.382 24.6933 591.67 24.8C591.969 24.896 592.374 25.0027 592.886 25.12C593.537 25.2693 594.059 25.424 594.454 25.584C594.859 25.7333 595.201 25.9787 595.478 26.32C595.766 26.6613 595.91 27.12 595.91 27.696C595.91 28.4107 595.638 28.992 595.094 29.44C594.561 29.888 593.846 30.112 592.95 30.112C591.905 30.112 591.051 29.8613 590.39 29.36C589.729 28.8587 589.339 28.16 589.222 27.264H590.63C590.683 27.7973 590.913 28.2293 591.318 28.56C591.734 28.8907 592.278 29.056 592.95 29.056C593.451 29.056 593.841 28.928 594.118 28.672C594.406 28.416 594.55 28.08 594.55 27.664C594.55 27.3227 594.449 27.0507 594.246 26.848C594.043 26.6453 593.793 26.4907 593.494 26.384C593.195 26.2773 592.785 26.1653 592.262 26.048C591.611 25.8987 591.089 25.7493 590.694 25.6C590.31 25.4507 589.979 25.216 589.702 24.896C589.435 24.5653 589.302 24.1227 589.302 23.568C589.302 22.832 589.574 22.24 590.118 21.792C590.662 21.3333 591.403 21.104 592.342 21.104Z" fill="#070F18"/>
<path d="M665.781 27.072C665.781 27.6053 665.653 28.1013 665.397 28.56C665.141 29.0187 664.751 29.392 664.229 29.68C663.706 29.968 663.061 30.112 662.293 30.112C661.546 30.112 660.879 29.9787 660.293 29.712C659.717 29.4347 659.253 29.0613 658.901 28.592C658.559 28.112 658.362 27.568 658.309 26.96H659.861C659.893 27.28 659.999 27.5947 660.181 27.904C660.373 28.2027 660.639 28.4533 660.981 28.656C661.333 28.848 661.754 28.944 662.245 28.944C662.885 28.944 663.375 28.7733 663.717 28.432C664.058 28.0907 664.229 27.6533 664.229 27.12C664.229 26.6613 664.106 26.288 663.861 26C663.626 25.712 663.333 25.488 662.981 25.328C662.629 25.1573 662.149 24.976 661.541 24.784C660.826 24.5493 660.25 24.3307 659.813 24.128C659.386 23.9147 659.018 23.6 658.709 23.184C658.41 22.768 658.261 22.2187 658.261 21.536C658.261 20.9493 658.399 20.432 658.677 19.984C658.965 19.536 659.37 19.1893 659.893 18.944C660.426 18.6987 661.05 18.576 661.765 18.576C662.874 18.576 663.754 18.848 664.405 19.392C665.055 19.9253 665.434 20.608 665.541 21.44H663.973C663.887 20.992 663.658 20.5973 663.285 20.256C662.911 19.9147 662.405 19.744 661.765 19.744C661.178 19.744 660.709 19.8987 660.357 20.208C660.005 20.5067 659.829 20.9333 659.829 21.488C659.829 21.9253 659.941 22.2827 660.165 22.56C660.399 22.8267 660.687 23.04 661.029 23.2C661.37 23.3493 661.839 23.52 662.437 23.712C663.162 23.9467 663.743 24.1707 664.181 24.384C664.629 24.5973 665.007 24.9227 665.317 25.36C665.626 25.7867 665.781 26.3573 665.781 27.072ZM672.362 21.072C673.386 21.072 674.213 21.4027 674.842 22.064C675.472 22.7147 675.786 23.6587 675.786 24.896V30H674.33V25.024C674.33 24.1493 674.106 23.4773 673.658 23.008C673.21 22.5387 672.602 22.304 671.834 22.304C671.034 22.304 670.394 22.5653 669.914 23.088C669.434 23.6 669.194 24.352 669.194 25.344V30H667.738V18.16H669.194V23.296C669.418 22.5813 669.813 22.032 670.378 21.648C670.954 21.264 671.616 21.072 672.362 21.072ZM682.004 21.104C682.846 21.104 683.598 21.2853 684.26 21.648C684.932 22.0107 685.454 22.5333 685.828 23.216C686.212 23.8987 686.404 24.6987 686.404 25.616C686.404 26.5333 686.212 27.3333 685.828 28.016C685.454 28.688 684.932 29.2053 684.26 29.568C683.598 29.9307 682.846 30.112 682.004 30.112C681.161 30.112 680.404 29.9307 679.732 29.568C679.07 29.2053 678.548 28.688 678.164 28.016C677.78 27.3333 677.588 26.5333 677.588 25.616C677.588 24.6987 677.78 23.8987 678.164 23.216C678.548 22.5333 679.07 22.0107 679.732 21.648C680.404 21.2853 681.161 21.104 682.004 21.104ZM682.004 22.384C681.481 22.384 680.996 22.5013 680.548 22.736C680.11 22.9707 679.753 23.3333 679.476 23.824C679.209 24.304 679.076 24.9013 679.076 25.616C679.076 26.32 679.209 26.9173 679.476 27.408C679.753 27.888 680.11 28.2453 680.548 28.48C680.996 28.7147 681.481 28.832 682.004 28.832C682.526 28.832 683.006 28.7147 683.444 28.48C683.892 28.2453 684.249 27.888 684.516 27.408C684.793 26.9173 684.932 26.32 684.932 25.616C684.932 24.9013 684.793 24.304 684.516 23.824C684.249 23.3333 683.892 22.9707 683.444 22.736C683.006 22.5013 682.526 22.384 682.004 22.384ZM700.365 21.216L697.837 30H696.269L693.853 22.848L691.421 30H689.837L687.341 21.216H688.813L690.685 28.608L693.117 21.216H694.637L697.085 28.592L698.973 21.216H700.365ZM705.611 21.104C706.731 21.104 707.659 21.4027 708.395 22C709.131 22.5973 709.584 23.3973 709.755 24.4H708.219C708.112 23.7707 707.819 23.28 707.339 22.928C706.869 22.5653 706.283 22.384 705.579 22.384C705.067 22.384 704.597 22.5013 704.171 22.736C703.755 22.9707 703.419 23.3333 703.163 23.824C702.907 24.304 702.779 24.9013 702.779 25.616C702.779 26.3307 702.907 26.9333 703.163 27.424C703.419 27.904 703.755 28.2613 704.171 28.496C704.597 28.7307 705.067 28.848 705.579 28.848C706.283 28.848 706.869 28.6667 707.339 28.304C707.819 27.9413 708.112 27.4453 708.219 26.816H709.755C709.584 27.8293 709.131 28.6347 708.395 29.232C707.659 29.8187 706.731 30.112 705.611 30.112C704.768 30.112 704.021 29.9307 703.371 29.568C702.72 29.2053 702.208 28.688 701.835 28.016C701.472 27.3333 701.291 26.5333 701.291 25.616C701.291 24.6987 701.472 23.8987 701.835 23.216C702.208 22.5333 702.72 22.0107 703.371 21.648C704.021 21.2853 704.768 21.104 705.611 21.104ZM715.26 21.104C716.114 21.104 716.834 21.3173 717.42 21.744C718.018 22.1707 718.434 22.7413 718.668 23.456V21.216H720.124V30H718.668V27.76C718.434 28.4747 718.018 29.0453 717.42 29.472C716.834 29.8987 716.114 30.112 715.26 30.112C714.482 30.112 713.788 29.9307 713.18 29.568C712.572 29.2053 712.092 28.688 711.74 28.016C711.399 27.3333 711.228 26.5333 711.228 25.616C711.228 24.6987 711.399 23.8987 711.74 23.216C712.092 22.5333 712.572 22.0107 713.18 21.648C713.788 21.2853 714.482 21.104 715.26 21.104ZM715.676 22.4C714.78 22.4 714.06 22.688 713.516 23.264C712.983 23.8293 712.716 24.6133 712.716 25.616C712.716 26.6187 712.983 27.408 713.516 27.984C714.06 28.5493 714.78 28.832 715.676 28.832C716.252 28.832 716.764 28.6987 717.212 28.432C717.671 28.1653 718.028 27.792 718.284 27.312C718.54 26.8213 718.668 26.256 718.668 25.616C718.668 24.976 718.54 24.4107 718.284 23.92C718.028 23.4293 717.671 23.056 717.212 22.8C716.764 22.5333 716.252 22.4 715.676 22.4ZM725.193 21.104C726.185 21.104 726.98 21.3653 727.577 21.888C728.185 22.4 728.553 23.0933 728.681 23.968H727.289C727.225 23.4453 727.007 23.0187 726.633 22.688C726.271 22.3467 725.78 22.176 725.161 22.176C724.639 22.176 724.228 22.304 723.929 22.56C723.641 22.8053 723.497 23.1413 723.497 23.568C723.497 23.888 723.593 24.1493 723.785 24.352C723.988 24.544 724.233 24.6933 724.521 24.8C724.82 24.896 725.225 25.0027 725.737 25.12C726.388 25.2693 726.911 25.424 727.305 25.584C727.711 25.7333 728.052 25.9787 728.329 26.32C728.617 26.6613 728.761 27.12 728.761 27.696C728.761 28.4107 728.489 28.992 727.945 29.44C727.412 29.888 726.697 30.112 725.801 30.112C724.756 30.112 723.903 29.8613 723.241 29.36C722.58 28.8587 722.191 28.16 722.073 27.264H723.481C723.535 27.7973 723.764 28.2293 724.169 28.56C724.585 28.8907 725.129 29.056 725.801 29.056C726.303 29.056 726.692 28.928 726.969 28.672C727.257 28.416 727.401 28.08 727.401 27.664C727.401 27.3227 727.3 27.0507 727.097 26.848C726.895 26.6453 726.644 26.4907 726.345 26.384C726.047 26.2773 725.636 26.1653 725.113 26.048C724.463 25.8987 723.94 25.7493 723.545 25.6C723.161 25.4507 722.831 25.216 722.553 24.896C722.287 24.5653 722.153 24.1227 722.153 23.568C722.153 22.832 722.425 22.24 722.969 21.792C723.513 21.3333 724.255 21.104 725.193 21.104ZM738.787 25.12C738.787 25.4293 738.766 25.696 738.723 25.92H731.699C731.731 26.9227 732.014 27.6747 732.547 28.176C733.091 28.6773 733.752 28.928 734.531 28.928C735.235 28.928 735.822 28.752 736.291 28.4C736.771 28.0373 737.064 27.5573 737.171 26.96H738.723C738.616 27.568 738.376 28.112 738.003 28.592C737.64 29.072 737.166 29.4453 736.579 29.712C735.992 29.9787 735.331 30.112 734.595 30.112C733.752 30.112 733.006 29.9307 732.355 29.568C731.704 29.2053 731.192 28.688 730.819 28.016C730.456 27.3333 730.275 26.5333 730.275 25.616C730.275 24.6987 730.456 23.8987 730.819 23.216C731.192 22.5333 731.704 22.0107 732.355 21.648C733.006 21.2853 733.752 21.104 734.595 21.104C735.448 21.104 736.19 21.2853 736.819 21.648C737.459 22.0107 737.944 22.496 738.275 23.104C738.616 23.712 738.787 24.384 738.787 25.12ZM737.315 25.216C737.347 24.5653 737.24 24.0213 736.995 23.584C736.75 23.1467 736.414 22.8213 735.987 22.608C735.56 22.3947 735.096 22.288 734.595 22.288C733.795 22.288 733.123 22.5387 732.579 23.04C732.035 23.5307 731.742 24.256 731.699 25.216H737.315Z" fill="#070F18"/>
<path d="M802.687 25.456V30H801.231V18.72H804.815C806.105 18.72 807.071 19.024 807.711 19.632C808.351 20.2293 808.671 21.0507 808.671 22.096C808.671 23.152 808.34 23.9787 807.679 24.576C807.017 25.1627 806.063 25.456 804.815 25.456H802.687ZM804.687 24.24C805.572 24.24 806.207 24.0533 806.591 23.68C806.985 23.3067 807.183 22.7787 807.183 22.096C807.183 21.392 806.985 20.8587 806.591 20.496C806.207 20.1227 805.572 19.936 804.687 19.936H802.687V24.24H804.687ZM811.827 22.992C812.115 22.384 812.536 21.9147 813.091 21.584C813.646 21.2427 814.307 21.072 815.075 21.072V22.656H814.627C813.806 22.656 813.134 22.8693 812.611 23.296C812.088 23.712 811.827 24.4053 811.827 25.376V30H810.371V21.216H811.827V22.992ZM816.256 18.64C816.256 18.3733 816.346 18.16 816.528 18C816.709 17.8293 816.949 17.744 817.248 17.744C817.546 17.744 817.786 17.8293 817.968 18C818.149 18.16 818.24 18.3733 818.24 18.64C818.24 18.9067 818.149 19.1253 817.968 19.296C817.786 19.456 817.546 19.536 817.248 19.536C816.949 19.536 816.709 19.456 816.528 19.296C816.346 19.1253 816.256 18.9067 816.256 18.64ZM817.968 21.216V30H816.512V21.216H817.968ZM824.197 21.104C825.317 21.104 826.245 21.4027 826.981 22C827.717 22.5973 828.17 23.3973 828.341 24.4H826.805C826.698 23.7707 826.405 23.28 825.925 22.928C825.455 22.5653 824.869 22.384 824.165 22.384C823.653 22.384 823.183 22.5013 822.757 22.736C822.341 22.9707 822.005 23.3333 821.749 23.824C821.493 24.304 821.365 24.9013 821.365 25.616C821.365 26.3307 821.493 26.9333 821.749 27.424C822.005 27.904 822.341 28.2613 822.757 28.496C823.183 28.7307 823.653 28.848 824.165 28.848C824.869 28.848 825.455 28.6667 825.925 28.304C826.405 27.9413 826.698 27.4453 826.805 26.816H828.341C828.17 27.8293 827.717 28.6347 826.981 29.232C826.245 29.8187 825.317 30.112 824.197 30.112C823.354 30.112 822.607 29.9307 821.957 29.568C821.306 29.2053 820.794 28.688 820.421 28.016C820.058 27.3333 819.877 26.5333 819.877 25.616C819.877 24.6987 820.058 23.8987 820.421 23.216C820.794 22.5333 821.306 22.0107 821.957 21.648C822.607 21.2853 823.354 21.104 824.197 21.104ZM829.99 18.64C829.99 18.3733 830.081 18.16 830.262 18C830.443 17.8293 830.683 17.744 830.982 17.744C831.281 17.744 831.521 17.8293 831.702 18C831.883 18.16 831.974 18.3733 831.974 18.64C831.974 18.9067 831.883 19.1253 831.702 19.296C831.521 19.456 831.281 19.536 830.982 19.536C830.683 19.536 830.443 19.456 830.262 19.296C830.081 19.1253 829.99 18.9067 829.99 18.64ZM831.702 21.216V30H830.246V21.216H831.702ZM838.667 21.072C839.691 21.072 840.518 21.4027 841.147 22.064C841.776 22.7147 842.091 23.6587 842.091 24.896V30H840.635V25.024C840.635 24.1493 840.411 23.4773 839.963 23.008C839.515 22.5387 838.907 22.304 838.139 22.304C837.339 22.304 836.699 22.5653 836.219 23.088C835.739 23.6 835.499 24.352 835.499 25.344V30H834.043V21.216H835.499V23.296C835.723 22.5813 836.118 22.032 836.683 21.648C837.259 21.264 837.92 21.072 838.667 21.072ZM847.924 21.104C848.778 21.104 849.498 21.3173 850.084 21.744C850.682 22.1707 851.098 22.7413 851.332 23.456V21.216H852.788V30.144C852.788 30.9547 852.618 31.6747 852.276 32.304C851.935 32.9333 851.455 33.424 850.836 33.776C850.218 34.128 849.498 34.304 848.676 34.304C847.492 34.304 846.527 34.016 845.78 33.44C845.034 32.8747 844.559 32.1067 844.356 31.136H845.796C845.967 31.7227 846.287 32.1813 846.756 32.512C847.236 32.8533 847.85 33.024 848.596 33.024C849.386 33.024 850.036 32.768 850.548 32.256C851.071 31.7547 851.332 31.0507 851.332 30.144V27.76C851.098 28.4747 850.682 29.0453 850.084 29.472C849.498 29.8987 848.778 30.112 847.924 30.112C847.146 30.112 846.452 29.9307 845.844 29.568C845.236 29.2053 844.756 28.688 844.404 28.016C844.063 27.3333 843.892 26.5333 843.892 25.616C843.892 24.6987 844.063 23.8987 844.404 23.216C844.756 22.5333 845.236 22.0107 845.844 21.648C846.452 21.2853 847.146 21.104 847.924 21.104ZM848.34 22.4C847.444 22.4 846.724 22.688 846.18 23.264C845.647 23.8293 845.38 24.6133 845.38 25.616C845.38 26.6187 845.647 27.408 846.18 27.984C846.724 28.5493 847.444 28.832 848.34 28.832C848.916 28.832 849.428 28.6987 849.876 28.432C850.335 28.1653 850.692 27.792 850.948 27.312C851.204 26.8213 851.332 26.256 851.332 25.616C851.332 24.976 851.204 24.4107 850.948 23.92C850.692 23.4293 850.335 23.056 849.876 22.8C849.428 22.5333 848.916 22.4 848.34 22.4Z" fill="#070F18"/>
<rect x="1122" width="150" height="48" rx="24" fill="#F5F6FB"/>
<path d="M1179.31 27.072C1179.31 27.6053 1179.18 28.1013 1178.93 28.56C1178.67 29.0187 1178.28 29.392 1177.76 29.68C1177.24 29.968 1176.59 30.112 1175.82 30.112C1175.08 30.112 1174.41 29.9787 1173.82 29.712C1173.25 29.4347 1172.78 29.0613 1172.43 28.592C1172.09 28.112 1171.89 27.568 1171.84 26.96H1173.39C1173.42 27.28 1173.53 27.5947 1173.71 27.904C1173.9 28.2027 1174.17 28.4533 1174.51 28.656C1174.86 28.848 1175.29 28.944 1175.78 28.944C1176.42 28.944 1176.91 28.7733 1177.25 28.432C1177.59 28.0907 1177.76 27.6533 1177.76 27.12C1177.76 26.6613 1177.64 26.288 1177.39 26C1177.16 25.712 1176.86 25.488 1176.51 25.328C1176.16 25.1573 1175.68 24.976 1175.07 24.784C1174.36 24.5493 1173.78 24.3307 1173.34 24.128C1172.92 23.9147 1172.55 23.6 1172.24 23.184C1171.94 22.768 1171.79 22.2187 1171.79 21.536C1171.79 20.9493 1171.93 20.432 1172.21 19.984C1172.5 19.536 1172.9 19.1893 1173.42 18.944C1173.96 18.6987 1174.58 18.576 1175.3 18.576C1176.41 18.576 1177.29 18.848 1177.94 19.392C1178.59 19.9253 1178.97 20.608 1179.07 21.44H1177.5C1177.42 20.992 1177.19 20.5973 1176.82 20.256C1176.44 19.9147 1175.94 19.744 1175.3 19.744C1174.71 19.744 1174.24 19.8987 1173.89 20.208C1173.54 20.5067 1173.36 20.9333 1173.36 21.488C1173.36 21.9253 1173.47 22.2827 1173.7 22.56C1173.93 22.8267 1174.22 23.04 1174.56 23.2C1174.9 23.3493 1175.37 23.52 1175.97 23.712C1176.69 23.9467 1177.27 24.1707 1177.71 24.384C1178.16 24.5973 1178.54 24.9227 1178.85 25.36C1179.16 25.7867 1179.31 26.3573 1179.31 27.072ZM1181.01 18.64C1181.01 18.3733 1181.1 18.16 1181.29 18C1181.47 17.8293 1181.71 17.744 1182.01 17.744C1182.3 17.744 1182.54 17.8293 1182.73 18C1182.91 18.16 1183 18.3733 1183 18.64C1183 18.9067 1182.91 19.1253 1182.73 19.296C1182.54 19.456 1182.3 19.536 1182.01 19.536C1181.71 19.536 1181.47 19.456 1181.29 19.296C1181.1 19.1253 1181.01 18.9067 1181.01 18.64ZM1182.73 21.216V30H1181.27V21.216H1182.73ZM1188.67 21.104C1189.52 21.104 1190.24 21.3173 1190.83 21.744C1191.42 22.1707 1191.84 22.7413 1192.07 23.456V21.216H1193.53V30.144C1193.53 30.9547 1193.36 31.6747 1193.02 32.304C1192.68 32.9333 1192.2 33.424 1191.58 33.776C1190.96 34.128 1190.24 34.304 1189.42 34.304C1188.23 34.304 1187.27 34.016 1186.52 33.44C1185.78 32.8747 1185.3 32.1067 1185.1 31.136H1186.54C1186.71 31.7227 1187.03 32.1813 1187.5 32.512C1187.98 32.8533 1188.59 33.024 1189.34 33.024C1190.13 33.024 1190.78 32.768 1191.29 32.256C1191.81 31.7547 1192.07 31.0507 1192.07 30.144V27.76C1191.84 28.4747 1191.42 29.0453 1190.83 29.472C1190.24 29.8987 1189.52 30.112 1188.67 30.112C1187.89 30.112 1187.19 29.9307 1186.59 29.568C1185.98 29.2053 1185.5 28.688 1185.15 28.016C1184.81 27.3333 1184.63 26.5333 1184.63 25.616C1184.63 24.6987 1184.81 23.8987 1185.15 23.216C1185.5 22.5333 1185.98 22.0107 1186.59 21.648C1187.19 21.2853 1187.89 21.104 1188.67 21.104ZM1189.08 22.4C1188.19 22.4 1187.47 22.688 1186.92 23.264C1186.39 23.8293 1186.12 24.6133 1186.12 25.616C1186.12 26.6187 1186.39 27.408 1186.92 27.984C1187.47 28.5493 1188.19 28.832 1189.08 28.832C1189.66 28.832 1190.17 28.6987 1190.62 28.432C1191.08 28.1653 1191.43 27.792 1191.69 27.312C1191.95 26.8213 1192.07 26.256 1192.07 25.616C1192.07 24.976 1191.95 24.4107 1191.69 23.92C1191.43 23.4293 1191.08 23.056 1190.62 22.8C1190.17 22.5333 1189.66 22.4 1189.08 22.4ZM1200.47 21.072C1201.5 21.072 1202.32 21.4027 1202.95 22.064C1203.58 22.7147 1203.9 23.6587 1203.9 24.896V30H1202.44V25.024C1202.44 24.1493 1202.22 23.4773 1201.77 23.008C1201.32 22.5387 1200.71 22.304 1199.94 22.304C1199.14 22.304 1198.5 22.5653 1198.02 23.088C1197.54 23.6 1197.3 24.352 1197.3 25.344V30H1195.85V21.216H1197.3V23.296C1197.53 22.5813 1197.92 22.032 1198.49 21.648C1199.06 21.264 1199.73 21.072 1200.47 21.072ZM1211.54 18.72V30H1210.08V18.72H1211.54ZM1218.5 21.072C1219.53 21.072 1220.35 21.4027 1220.98 22.064C1221.61 22.7147 1221.93 23.6587 1221.93 24.896V30H1220.47V25.024C1220.47 24.1493 1220.25 23.4773 1219.8 23.008C1219.35 22.5387 1218.74 22.304 1217.97 22.304C1217.17 22.304 1216.53 22.5653 1216.05 23.088C1215.57 23.6 1215.33 24.352 1215.33 25.344V30H1213.88V21.216H1215.33V23.296C1215.56 22.5813 1215.95 22.032 1216.52 21.648C1217.09 21.264 1217.76 21.072 1218.5 21.072Z" fill="#070F18"/>
<path d="M65.74 23.664V31H61.792V11.232H68.988C71.3213 11.232 73.076 11.792 74.252 12.912C75.4467 14.032 76.044 15.5533 76.044 17.476C76.044 19.3613 75.428 20.864 74.196 21.984C72.9827 23.104 71.2467 23.664 68.988 23.664H65.74ZM68.568 20.5C70.8827 20.5 72.04 19.492 72.04 17.476C72.04 16.4867 71.7693 15.7307 71.228 15.208C70.6867 14.6853 69.8 14.424 68.568 14.424H65.74V20.5H68.568ZM84.6844 15.292C85.9911 15.292 87.1111 15.6 88.0444 16.216C88.9777 16.832 89.6404 17.6627 90.0324 18.708V15.488H93.9524V31H90.0324V27.752C89.6404 28.7973 88.9777 29.6373 88.0444 30.272C87.1111 30.888 85.9911 31.196 84.6844 31.196C83.3777 31.196 82.2017 30.8787 81.1564 30.244C80.1111 29.6093 79.2897 28.6947 78.6924 27.5C78.1137 26.2867 77.8244 24.868 77.8244 23.244C77.8244 21.62 78.1137 20.2107 78.6924 19.016C79.2897 17.8027 80.1111 16.8787 81.1564 16.244C82.2017 15.6093 83.3777 15.292 84.6844 15.292ZM85.9164 18.736C84.6844 18.736 83.6951 19.1373 82.9484 19.94C82.2017 20.7427 81.8284 21.844 81.8284 23.244C81.8284 24.644 82.2017 25.7453 82.9484 26.548C83.6951 27.332 84.6844 27.724 85.9164 27.724C87.1111 27.724 88.0911 27.3227 88.8564 26.52C89.6404 25.6987 90.0324 24.6067 90.0324 23.244C90.0324 21.8627 89.6404 20.7707 88.8564 19.968C88.0911 19.1467 87.1111 18.736 85.9164 18.736ZM100.19 15.488L104.418 26.016L108.338 15.488H112.678L103.186 38.392H98.8183L102.318 30.552L95.7943 15.488H100.19ZM123.778 15.264C125.57 15.264 126.998 15.852 128.062 17.028C129.126 18.204 129.658 19.856 129.658 21.984V31H125.738V22.432C125.738 21.2 125.421 20.248 124.786 19.576C124.151 18.8853 123.283 18.54 122.182 18.54C121.062 18.54 120.166 18.904 119.494 19.632C118.822 20.36 118.486 21.4053 118.486 22.768V31H114.538V15.488H118.486V18.596C118.897 17.5507 119.569 16.7387 120.502 16.16C121.454 15.5627 122.546 15.264 123.778 15.264ZM139.208 15.292C140.515 15.292 141.635 15.6 142.568 16.216C143.501 16.832 144.164 17.6627 144.556 18.708V15.488H148.476V31H144.556V27.752C144.164 28.7973 143.501 29.6373 142.568 30.272C141.635 30.888 140.515 31.196 139.208 31.196C137.901 31.196 136.725 30.8787 135.68 30.244C134.635 29.6093 133.813 28.6947 133.216 27.5C132.637 26.2867 132.348 24.868 132.348 23.244C132.348 21.62 132.637 20.2107 133.216 19.016C133.813 17.8027 134.635 16.8787 135.68 16.244C136.725 15.6093 137.901 15.292 139.208 15.292ZM140.44 18.736C139.208 18.736 138.219 19.1373 137.472 19.94C136.725 20.7427 136.352 21.844 136.352 23.244C136.352 24.644 136.725 25.7453 137.472 26.548C138.219 27.332 139.208 27.724 140.44 27.724C141.635 27.724 142.615 27.3227 143.38 26.52C144.164 25.6987 144.556 24.6067 144.556 23.244C144.556 21.8627 144.164 20.7707 143.38 19.968C142.615 19.1467 141.635 18.736 140.44 18.736Z" fill="#070F18"/>
<rect y="4" width="48" height="34" rx="10" fill="#F5F6FB"/>
<circle cx="15" cy="21" r="6" fill="#207DFF"/>
<circle cx="33" cy="21" r="6" fill="#F06157"/>
</svg>
